<?xml version="1.0" encoding="utf-8"?>
<!-- Generator: Adobe Illustrator 18.0.0, SVG Export Plug-In . SVG Version: 6.00 Build 0)  -->
<!DOCTYPE svg PUBLIC "-//W3C//DTD SVG 1.1//EN" "http://www.w3.org/Graphics/SVG/1.1/DTD/svg11.dtd">
<svg version="1.1" id="Layer_1" xmlns="http://www.w3.org/2000/svg" xmlns:xlink="http://www.w3.org/1999/xlink" x="0px" y="0px"
	 viewBox="0 0 16 16" enable-background="new 0 0 16 16" xml:space="preserve">
<rect x="0" y="0" fill-rule="evenodd" clip-rule="evenodd" fill="#FFFFFF" width="16" height="16"/>
<g>
	<g>
		<path fill-rule="evenodd" clip-rule="evenodd" fill="#231F20" d="M0,0v16h16V0H0z M7.9,12.9c-0.4,0-0.5,0-0.7,0
			c-0.3,0-0.4-0.1-0.4-0.1s0.1,0,0.4-0.1c0,0,0,0,0,0c0.2-0.1,0.6-0.2,0.9-0.4c0.2-0.1,0.3-0.3,0.4-0.4c0,0,0-0.1,0-0.1
			c0.1-0.1,0.1-0.3,0.1-0.4c0-0.4-0.2-0.9-0.5-1.4C8.1,9.9,8,9.8,7.9,9.6L7.8,9.5L7.7,9.3C7.5,9,7.4,8.7,7.3,8.4
			c-0.2-0.6-0.2-1.2,0-1.7c0.1-0.2,0.2-0.5,0.3-0.6c0.1-0.2,0.3-0.3,0.4-0.4c0.1-0.1,0.2-0.1,0.3-0.2c0.1,0,0.1,0,0.1,0
			S8.4,5.7,8.3,5.9c0,0.1-0.1,0.3-0.1,0.4c0,0.2,0,0.3,0,0.5c0,0.4,0.1,0.8,0.3,1.2c0.1,0.2,0.2,0.4,0.3,0.7l0.1,0.2L9,9.1
			C9,9.2,9.1,9.4,9.2,9.5c0.1,0.3,0.2,0.6,0.3,0.9c0.1,0.3,0.1,0.7,0,1c0,0,0,0,0,0c1-0.6,1.6-1.8,1.6-3.5c0-2.6-1.2-3.9-3.8-3.9H6
			v5.3h0v3.5H3.6v-1h1.2V4.1H3.6v-1h3.6c3.5,0,5.1,1.6,5.1,4.9C12.4,11,10.9,12.7,7.9,12.9z"/>
	</g>
</g>
</svg>
