<svg xmlns="http://www.w3.org/2000/svg" viewBox="0 0 74.43 86.61"><defs><style>.\37 036d17a-868f-48ee-89af-c63fff59d00e{fill:#fff;}</style></defs><title>arabica burundi</title><g id="0c9b69f6-9d93-4d7a-9532-ab30d6fa2767" data-name="Layer 2"><g id="c402aeee-5fb5-4b1f-9393-9f1884101249" data-name="Banners"><polygon class="7036d17a-868f-48ee-89af-c63fff59d00e" points="74.22 33.55 73.69 33.16 73.55 32.87 73.6 32.63 73.78 32.1 73.78 31.89 73.38 31.33 72.39 30.4 72.19 29.81 72.46 29.18 73.7 27.75 74.1 27.05 73.16 27.05 71.26 27.57 70.32 27.65 69.8 27.49 68.87 26.9 68.37 26.71 67.87 26.74 67.47 26.9 67.05 27.01 66.5 26.89 66.41 26.72 66.29 26.06 66.19 25.82 66.01 25.71 65.48 25.48 62.87 23.93 62.55 23.88 61.98 24.09 61.51 24.48 60.71 25.57 60.51 25.66 60.34 25.15 59.98 24.8 59.76 24.49 59.95 24.05 59.21 23.85 58.6 23.28 57.59 21.98 57.5 21.29 57.97 20.4 58.84 19.22 58.85 18.2 58.99 17.57 59.31 17.05 61.63 14.63 61.9 13.87 60.97 14.21 59.52 14.87 58.67 15.14 57.89 15.13 57.45 14.7 57.6 13.71 57.92 13.22 58.89 12.31 59.27 11.81 59.45 11.38 59.77 10.12 61.31 6.42 61.85 5.57 63.17 3.9 61.85 3.86 60.51 3.23 58.32 1.45 58.09 1.13 57.88 0.57 57.69 0.35 57.55 0.4 56.29 0.1 56.09 0 55.44 0.19 55.05 0.56 54.7 1.01 54.17 1.49 53.6 1.79 52.84 2.03 52.07 2.19 51.42 2.22 50.93 2.11 49.67 1.5 49.2 1.46 49.05 1.73 49.04 2.1 48.95 2.38 47.13 4.65 46.45 5.13 45.53 5.16 44.61 4.8 43.77 4.24 43.12 3.67 41.86 2.2 41.36 1.82 40.91 1.66 40.52 1.65 40.19 1.68 39.87 1.64 38.81 0.73 38.49 0.55 38.08 0.56 37.97 0.78 37.97 1.16 37.71 3.2 37.99 6.29 37.13 9.31 36.92 13.87 36.72 14.75 36.33 15.63 35.85 16.45 35.31 17.18 34.48 18.02 33.73 18.46 32.92 18.61 31.91 18.58 31.01 18.31 30.54 18.32 30.24 18.69 30.12 19.53 29.95 19.9 29.55 20.13 28.65 20.24 27.89 20.13 25.78 19.44 25.49 19.42 24.3 19.85 24 20.03 23.68 20.16 23.26 20.14 22.38 20.26 21.63 20.74 20.86 20.99 19.92 20.47 17.69 20.05 16.96 20.13 15.22 20.88 14.23 20.98 13.87 20.21 13.83 19.71 13.45 18.88 13.36 18.41 13.5 17.99 14.05 17.31 14.14 16.86 13.9 16.36 13.02 15.55 12.87 14.97 12.92 14.5 12.89 14.31 12.4 13.95 11.66 13.53 10.81 13.32 9.12 13.11 8.21 12.84 5.76 11.78 5.11 11.68 2.76 11.83 1.84 12.72 1.15 16.73 1.69 17.7 0.86 17.81 0.34 18.24 0.07 18.93 0 19.78 0.32 20.45 1.05 20.67 1.9 20.75 2.5 21.01 2.69 21.33 3.06 22.4 3.66 23.28 3.81 23.67 3.88 24.32 4.14 24.96 4.76 25.29 5.5 25.53 6.11 25.93 6.35 26.57 6.5 27.4 6.84 28.12 7.61 28.43 8.36 28.52 9.04 28.78 9.6 29.2 9.98 29.8 10.28 32.37 10.1 32.83 9.58 33.12 9.28 33.79 9.14 34.6 9.25 37.28 9.54 38.06 10.22 38.61 9.11 39.63 8.93 40.17 8.84 41.32 10.73 41.26 12.48 41.56 13.79 42.43 14.36 44.08 14.11 58.49 15.44 62.2 15.57 63.49 15.74 63.9 16.11 64.27 16.58 64.53 16.95 64.85 17.29 65.83 18.04 66.6 18.21 67.01 18.14 67.44 18 67.76 17.89 68.09 17.94 68.52 18.16 68.89 19.04 70.13 19.44 70.94 19.66 71.28 20.02 71.67 20.43 72.28 20.54 72.94 20.56 73.69 20.71 74.54 21.09 75.06 21.65 75.51 22.15 76.05 22.36 76.89 22.5 77.77 22.83 78.68 24.35 81.21 24.95 81.89 26.37 83.22 26.88 84.02 26.98 84.88 26.89 86.1 28.21 86.41 29.86 86.54 30.05 86.61 30.5 86.25 30.63 85.81 30.64 85.29 30.8 84.72 31.06 84.48 31.74 84.16 31.95 83.82 32.04 83.17 32.11 83.02 32.77 82.62 33.2 82.68 33.64 82.9 34.3 83.01 34.66 82.89 36.81 81.89 38.24 80.54 39.63 79.76 40.04 79.43 40.94 78.93 41.45 78.3 42.47 75.85 42.89 75.25 45.63 72.98 46.85 71.51 47.79 69.88 48.53 68.13 49.23 65.23 49.72 64.41 51.83 62.25 53.38 59.59 54.4 58.94 56.19 59.53 56.33 58.83 56.2 58.2 55.98 57.58 55.8 56.9 55.85 56.13 56.14 55.41 57.8 52.8 58.1 52.06 58.11 51.33 58.03 50.53 58.24 50.05 59.37 49.25 59.47 49.09 59.61 48.62 59.72 48.49 60.39 48.39 60.46 48.39 60.49 48.47 61.26 48.4 61.3 48.32 61.38 47.97 61.43 47.87 62.51 47.63 62.79 47.52 63.11 47.25 63.64 46.63 65.51 45.75 66.58 44.73 66.63 43.67 65.13 42.85 65.87 41.97 66.63 41.26 67.51 40.71 68.63 40.3 69.13 40.24 69.51 40.02 69.77 39.66 69.9 39.18 70.96 39.7 72.09 39.58 73.05 38.92 73.67 37.85 73.64 37.62 73.45 36.9 73.44 36.61 74 35.8 74.36 34.84 74.43 34.34 74.39 33.83 74.22 33.55"/></g></g></svg>