<svg xmlns="http://www.w3.org/2000/svg" viewBox="0 0 56.12 87.21"><defs><style>.a9c89ca3-9c0c-4b59-9e82-4d9afcafda99{fill:#fff;fill-rule:evenodd;}</style></defs><title>arabica_colombia</title><g id="d21011d4-8021-4266-80fa-625293182e00" data-name="Layer 2"><g id="a3e5df49-f04b-4388-93a4-59a24f33cf68" data-name="Banners"><path class="a9c89ca3-9c0c-4b59-9e82-4d9afcafda99" d="M4.18,51.87l.13-.12,0-.32-.08-.16L4,51.21l-.15.19.08.26ZM56,58.3l.06-.36-.21-.52-.12-.56-.1-.19,0-.42-.25-.75-.2-.61L55,54.59l.09-.27L55,54.06l-.15-.22-.22-.7.09-.3-.06-.3-.19-.21-.27-.22-.36-.46-.43-.44L53.21,51,53.05,51l-.12-.42-.1-.13-.22,0-.45-.17-.43.21v-.32l.13-.2,1.52-1.54.76-.71.08-.1.07-.16.06-.22-.16-.25-.66-1.19-.24-.22L53,45.33l-.26-.5-.29-1.16-.22-.58-.06-.45,0-.51-.08-.39L52,41.47l0-.83.23-1.39.08-1.06-.07-.72.19-.55.45-.38.26-.58.08-.79.28-.65L54,34l.18-.5L54,33l0-.32-.38-.32-.73-.23-.61,0-.38.25-1,.23-1.52.21H48.22l-.92-.22-.71.07-.5.36-.34.08-.19-.2-.21-.05L45,33,45,33l-.68-1-.63-.9L42.95,30l-.83-1.24L42,28.67h-.27l-.36,0-.55-.13-.38-.18-.29-.17L39.57,28l-.38,0-.34.07-1,.44-.53,0H37l-1.09-.22-.75,0-.88.14-.38.08-.52-.22L33,27.92l-.3-.8-.21-.63-.4-.13-.45-.11L31.42,26l-.12-.36v-.47l.08-.76.06-.27.1-.82.27-.43.17-.21V22.4l-.09-.7-.1-.5-.47-.56-.61-.72-.21-1.15-.25-1.36L30,17.26l-.24.07-.25-.07-.2-.55-.22-.1-.37.19-.27.15-.67.14L27.63,17l.06-.17.31-.5.37-.64.42-.58.39-.59.3-.63.26-1.26.18-.87.43-1.55L31,8.93l.26-.57.59-.74.28-.4.35-.32.94-.43,1.24-2.12L34.94,4l1.12-.32.86-.25.64-.26.22-.14L37.95,3l.18-.29L38.86,2l0-.62L38.4.52l-1-.51H36.9l-.54.08-1,.58L35.3.86,35.11,1h-.39l-.39.26L34.14,2l-.57.89-.82.46-1.3.47L28.57,6l-1.68.13-.54,0-.51-.17-.68-.17-.39.1-.28.29L24.34,7l-.43.8-.28.72-.25.25-.27-.11-.23-.39L23,7.85l.39-.17.27,0,.11-.12-.57,0-1.75-.63-.37.27-1,1-.61.46-.17.29-.8.61-.24.44-.35,1-.58.69-.19.28.31-.15.41-.34.08.16-.29.41,0,.7-.26.83-.23.55.18.38.11.62-.19.46-.55.18L16,15.71l-.58.34-.53.52L14.17,18l-2,1.54-.54.28-.4.11-.16.24.2.32.23.25.17.81.05,1.61-.22.37-.37.07L11,23.51l-.12-.18L11,23l.21-.15.09-.15-.17-.2-.2-.1-.23-.54-.59-.79-.58-.49-.34-.75L9,19.75l-.09.07-.28.41-.16.35L8.8,21l.08.4.16.43.27.43.28.8.06.32-.1.21-.32.13-.31.37-.1.46,0,.23-.9.73-.23.12-.14-.11-.17-.37-.21-.3-.11-.1H7L7,24.77l0,.16.08.69-.11.28-.3.21L6.2,27.23l.43.48.52.93.14.47.19.17L7.8,30h.4l.3.6,0,.37-.23,1.2-.19,0-.15-.07v.57l.54.95.39,1.13-.37.55-1,.72.59.63.11.48,0,.57-.06.73.08,1.25L8.4,40l.08.33L8.33,41l-.09.62-.13.4-.29.27-.15.24-.33.23,0,.23.52-.18v.25l-.15.37,0,.37.3.61.39-.6.13.09-.1.77.23.13.21,0,.19-.23.23,0-.82,1.72-.39.58-.17.66-.28,0-.27.57-.23.38L6.95,49l-.34.13-.29.06,0,.17.13.46V50l-.51.48-.15.21,0,.16-.28,0-.12.14-.15.36-.26.32-.2.14-.17.18L4.28,52l-.81-.12-.22.26-.34-.12-.2.07-.35.24-.27.35L2,53l-.08,1.31.35.69-.14.78-1-.39-.77.5L0,56.56l.62.52.13.36.14.11.42.4.25.39.43.24.35.2.91.8.6.41.66.37,1,.38.59-.07L6.2,61l.11.31.22.18.35.15.21,0,.06.08.2,1.11.12.16.48.18.59.07.24,0,.52.31.38.15.42.11.28,0,.13,0,0-.11.23,0,.35.14.5,0,.31-.13,0-.22,0-.39.12-.14.36-.23.19,0,.93.49.19.17.24.34.44.51.48.32.74.14.71.53.83.36.28-.34h.19l.21,0,.39.35.23.2.28.17.26.06.24,0,.17,0,.1.23.12.28.3.19.35.18.28.31.19.21.23.25.22.33.2.58.1.39.12.22,0,.22.24.4.18.22.3.14.59.16.32.36.28.14.3.37.26.11.33,0,.33.18.25.35.17.44.25.25.13.45-.13.53.14.28.26.23.42.24.38-.06.2.08.13.22.08.26.18.64.09.41-.15.39-.05.27.09.37.4.18.37.15.23.28.25.08.35,0,.45-.07.25-.16.16,0,.18.07.4.16.49.18.44-.1.38,0,.38-.1.38-.29h.32l.24-.2.29-.32.29-.32.23-.07.38.15.52.22.3.29.23.08.24.21h.45l.48-.11.38-.35.4-.1.27-.1.25.06,1,.65.27.33.33.07.28.18.46.2.25.2.32.12.24.28.37.17.32.1.15.23v.15l0,.1-.32.6-.63,1.17L40,82.25l-.89,1.65-.5.93.13,0,.83.41.2,0,.3-.1.19-.16.18,0,.19.16.27.2.21.59.15.29.34.22.37.37.25.39.08-.18L42.41,86l.23-1.76.21-1.6.24-1.77L43.34,79l.26-1.85.22-1.52.19-1.3.12-.8.19-1,.07-.92.08-.27-.05-.22-.18-.32v-.14l0-.18,0-.16L44,70.1l-.14-.1-.11-.15-.05-.21-.09-.21,0-.22L43.46,69l0-.22.09-.21,0-.22,0-.21-.05-.24-.1-.23-.16-.14-.37-.16L42.45,67,42,66.71l-.56-.63-.12-.3V65l0-.89,0-1.35,0-.69.32,0L42,62l.29,0,.25,0,.23-.1.18-.12.21-.08.16,0,.16-.11.18-.1.18-.08.25-.07.24.17.13.16.15.08.15,0h.1l.1.13h.13l.19,0,.18,0,.08,0V61.6l0-.15-.06-.14.05-.21v-.58l-.14-.18L45.25,60l-.16-.27-.24-.18-.23-.07-.19.11-.18,0-.13-.1h-.22l-.23,0-.25,0-.44.07-.16-.09h-.22l-.25.1,0-1.3,0-1.23,0-.86.22,0,.28-.16.41,0,.32-.16h.18l.33.08.35.17.34,0h5.28L50,55.77l-.19-.37.08-.29.1-.29.12-.15.29.16.24.5.2.38.2.19.25,0,.28-.06.28-.15.49-.69.48-.59.25-.2.26-.18L53.5,54l.26,0,.22.16.14.28.51,1,.39.74.13.46v1.12l0,1,.05.13.08,0,.88-.23Z"/></g></g></svg>