<svg xmlns="http://www.w3.org/2000/svg" viewBox="0 0 72.45 81"><defs><style>.e372f8ca-143b-4794-b9a5-97685479b04a{fill:#fff;fill-rule:evenodd;}</style></defs><title>arabica guatemala</title><g id="3dc1b7d2-2f31-4cb7-9939-26390363fdd9" data-name="Layer 2"><g id="fad9a73f-3a5a-43c8-83e2-69ae20062930" data-name="Banners"><polygon class="e372f8ca-143b-4794-b9a5-97685479b04a" points="66.66 37.05 66.53 37.51 66.92 38.03 67.41 39.05 66.03 40.74 64.31 39.9 62.89 38.79 62.19 38.66 61.3 38.23 60.55 38.25 57.52 38.03 55.42 38.27 55.36 38.16 56.17 33.23 57.44 25.6 58.39 20 59.32 14.53 60.03 10.43 61.01 4.85 61.85 0.03 58.22 0.03 52.04 0.02 44.18 0.01 36.6 0.01 30.25 0 29.67 3.88 29.16 7.32 28.59 11.2 25.08 11.16 21.38 11.13 21.63 11.51 22.79 12.24 24.19 13.98 25.76 16.68 27.81 18.83 30.36 20.43 31.97 22 32.64 23.54 32.9 24.84 32.76 25.92 33.66 26.77 35.4 27.34 36.2 28.3 36.1 29.09 35.28 30.87 34.86 32.84 34.84 34.62 33.54 34.65 30.4 34.65 25.6 34.66 21.2 34.66 17.72 34.66 12.48 34.67 10.68 37.41 7.69 41.95 4.99 46.08 2.72 49.55 2.31 50.46 2.21 51.2 4.06 54.44 3.53 55.38 2.68 55.88 2.33 56.64 2.23 57.88 1.5 59.52 1.53 60.66 1.65 62.05 1.03 63.26 0.51 64.43 0 64.94 6.5 71.24 9.34 73.49 13.64 75.96 17.52 77.25 26.9 77.18 29.07 77.74 35.39 81 35.3 80.08 35.43 79.05 36.57 77.67 38.6 75.82 39.93 74.86 40.52 74.68 41.31 74.78 42.14 74.24 42.95 72.96 43.73 72.14 45.58 71.31 46.02 70.98 45.96 70.27 45.74 68.88 45.89 68.03 46.52 67.63 47.21 67.56 48.68 67.21 49.29 67.28 49.62 67.51 50.13 66.62 51.2 65.25 53.37 63.72 53.68 62.48 53.44 60.11 53.09 58.58 53.46 57.89 54.41 55.12 54.97 54.48 58.02 53.08 58.31 52.89 60.83 50.93 63.62 48.76 66.54 46.36 69.8 43.69 71.61 42.12 72.44 41.44 66.66 37.05"/></g></g></svg>