<?xml version="1.0" encoding="utf-8"?>
<!-- Generator: Adobe Illustrator 18.0.0, SVG Export Plug-In . SVG Version: 6.00 Build 0)  -->
<!DOCTYPE svg PUBLIC "-//W3C//DTD SVG 1.1//EN" "http://www.w3.org/Graphics/SVG/1.1/DTD/svg11.dtd">
<svg version="1.1" id="Layer_1" xmlns="http://www.w3.org/2000/svg" xmlns:xlink="http://www.w3.org/1999/xlink" x="0px" y="0px"
	 viewBox="0 0 52 52" enable-background="new 0 0 52 52" xml:space="preserve">
<path fill="#E46119" d="M40.4,21.5c-1.7-2.4-4.8-3.9-8.3-3.9c-0.9,0-1.9,0.1-2.7,0.3c0.2-0.4,0.1-0.8-0.2-1.1
	c-0.3-0.4-0.8-0.4-1.2-0.1c0.3-0.4,0.3-0.9,0-1.2c-0.4-0.4-1-0.4-1.3,0s-0.4,1,0,1.3c0.3,0.4,0.8,0.4,1.2,0.1
	c-0.2,0.2-0.3,0.5-0.2,0.8c0-0.1-0.1-0.3-0.2-0.4c-0.4-0.4-1-0.4-1.3,0s-0.4,1,0,1.3c0.3,0.3,0.6,0.4,1,0.2
	c-0.7,0.4-1.4,0.8-1.9,1.3c0-0.2,0.1-0.3,0.1-0.5c1.4-5.2,3.2-9.1,3.3-9.2c0-0.1,0-0.2,0.1-0.2c0.4,0.1,0.7,0.1,1.1,0.1
	c1.7,0,3.5-0.6,5.1-1.9c2-1.6,3.1-4,3-6.2c0-0.2-0.2-0.4-0.4-0.4c-0.5-0.1-1.1-0.2-1.7-0.2c-1.7,0-3.5,0.6-5.1,1.9
	c-1.2,0.9-2,2.1-2.5,3.4c-0.1-1-0.4-2.1-1-3c-1.1-1.9-3-3.1-4.9-3.4c0,0,0,0,0,0c-0.2,0-0.4,0.1-0.4,0.3c-0.7,1.8-0.6,4,0.6,6
	c1,1.7,2.6,2.9,4.3,3.3c-0.2,0.5-0.8,1.9-1.5,3.9c0-0.3,0-0.6-0.2-0.8c-0.4-0.4-1-0.4-1.3,0c-0.2,0.2-0.3,0.5-0.3,0.7
	c0-0.1-0.1-0.2-0.2-0.4c-0.4-0.4-1-0.4-1.3,0c-0.1,0.1-0.2,0.3-0.3,0.5c-0.3-0.3-0.6-0.7-0.9-1c-2.1-2-4.7-3.1-7.2-3.1
	c-0.5,0-1,0-1.4,0.1c-0.2,0-0.4,0.2-0.4,0.4c-0.4,2.9,0.6,6.2,3.1,8.6c2.1,2,4.7,3.1,7.2,3.1c0.3,0,0.6,0,0.8,0
	c-0.4,2-0.8,3.8-0.9,5.6c0-0.5-0.4-0.8-0.9-0.8c-0.5,0-0.9,0.4-0.9,0.9c0,0.5,0.4,0.9,0.8,0.9c-0.5,0-0.9,0.4-0.9,0.9
	c0,0.5,0.4,0.9,0.9,0.9c0.4,0,0.8-0.3,0.9-0.7c0,0.7,0,1.4,0,2c-0.6-0.8-1.4-1.6-2.4-2.2c-0.1-0.1-0.3-0.2-0.4-0.2
	c0.1,0,0.2,0,0.3,0c0.5,0,0.9-0.4,0.9-0.9c0-0.5-0.4-0.9-0.9-0.9c-0.5,0-0.9,0.4-0.9,0.9c0,0.3,0.1,0.6,0.4,0.8
	c-1.2-0.6-2.5-0.9-3.7-0.9c-0.9,0-1.8,0.2-2.6,0.5c-0.2,0.1-0.3,0.3-0.3,0.5c0.2,2.3,1.5,4.5,3.8,5.9c1.4,0.9,2.9,1.3,4.4,1.3
	c0.7,0,1.4-0.1,2.1-0.3c0,0.2,0.1,0.4,0.2,0.6c3.3,10.6,9.7,14.6,10,14.8c0.2,0.1,0.3,0.1,0.5,0.1c0.3,0,0.6-0.2,0.8-0.4
	c0.3-0.4,0.1-1-0.3-1.3c0,0-1.5-1-3.4-3.1c-1.7-1.9-4-5.2-5.6-10.1c0.9,0.4,1.9,0.5,2.9,0.5c1,0,2.1-0.2,3.1-0.6
	c2.5-1,4.2-2.9,4.8-5.1c0-0.2,0-0.4-0.2-0.5c-1.1-0.7-2.5-1.1-3.9-1.1c-1,0-2.1,0.2-3.1,0.6c-0.4,0.1-0.7,0.3-1.1,0.5
	c0.1-0.3,0-0.6-0.2-0.9c-0.4-0.4-1-0.4-1.3,0c0,0-0.1,0.1-0.1,0.1c0.1-0.3,0.1-0.7-0.2-1c-0.4-0.4-1-0.4-1.3,0c-0.4,0.4-0.4,1,0,1.3
	c0.2,0.2,0.4,0.3,0.6,0.3c-0.2,0-0.4,0.1-0.5,0.3c-0.2,0.2-0.3,0.4-0.3,0.6c-0.1-2.6,0.2-5.6,0.9-9c1.8,1.9,4.5,3.2,7.6,3.2
	c3.5,0,6.5-1.6,8.2-3.9C40.5,21.9,40.5,21.7,40.4,21.5z M34.2,7.8c-1.3,1.1-2.9,1.6-4.5,1.6c-0.3,0-0.5,0-0.8,0L30.7,8l1.5,0.5
	c0,0,0,0,0.1,0c0.1,0,0.2-0.1,0.2-0.2c0-0.1,0-0.3-0.1-0.3l-1.2-0.4l1-0.8l1.5,0.5c0,0,0,0,0.1,0c0.1,0,0.2-0.1,0.2-0.2
	c0-0.1,0-0.3-0.1-0.3l-1.2-0.4l1-0.8l1.5,0.5c0,0,0,0,0.1,0c0.1,0,0.2-0.1,0.2-0.2c0-0.1,0-0.3-0.1-0.3l-1.2-0.4L37,2.9
	C36.7,4.8,35.8,6.5,34.2,7.8z M31.4,4.2c1.3-1.1,2.9-1.6,4.5-1.6c0.3,0,0.5,0,0.8,0.1L33.8,5l-0.1-1.2c0-0.1-0.1-0.2-0.3-0.2
	c-0.1,0-0.2,0.1-0.2,0.3l0.1,1.5l-1,0.8l-0.1-1.3c0-0.1-0.1-0.2-0.3-0.2c-0.1,0-0.2,0.1-0.2,0.3l0.1,1.6l-1,0.8l-0.1-1.3
	c0-0.1-0.1-0.2-0.3-0.2c-0.1,0-0.2,0.1-0.2,0.3l0.1,1.6L28.7,9C28.9,7.2,29.8,5.4,31.4,4.2z M26.5,4.3c0.8,1.4,1.1,3,0.8,4.5
	l-1.1-1.9l0.5-1.1c0-0.1,0-0.3-0.1-0.3c-0.1,0-0.3,0-0.3,0.1l-0.4,0.9l-0.5-0.8l0.5-1.1c0-0.1,0-0.3-0.1-0.3c-0.1,0-0.3,0-0.3,0.1
	L25,5.1l-0.5-0.8l0.5-1.1c0-0.1,0-0.3-0.1-0.3c-0.1,0-0.3,0-0.3,0.1l-0.4,0.8l-1.3-2.3C24.4,1.9,25.6,2.9,26.5,4.3z M23.3,6.2
	c-0.8-1.4-1.1-3.1-0.7-4.5L23.9,4l-0.9,0c-0.1,0-0.2,0.1-0.2,0.2c0,0.1,0.1,0.2,0.2,0.2l1.2,0l0.5,0.8l-0.8,0
	c-0.1,0-0.2,0.1-0.3,0.2c0,0.1,0.1,0.2,0.2,0.3l1.2,0.1l0.4,0.8l-0.8,0c-0.1,0-0.2,0.1-0.2,0.2s0.1,0.2,0.2,0.2l1.1,0l1.2,2
	C25.4,8.6,24.1,7.6,23.3,6.2z M27.5,18.6c0.2-0.2,0.3-0.5,0.3-0.8c0,0.1,0.1,0.3,0.2,0.4c0.1,0.1,0.2,0.1,0.2,0.2
	C27.9,18.5,27.6,18.6,27.5,18.6C27.4,18.7,27.4,18.6,27.5,18.6z M32.2,18.5c2.8,0,5.4,1.1,7.1,3h-3.6l0.7-1c0.1-0.1,0-0.3-0.1-0.3
	c-0.1-0.1-0.3,0-0.3,0.1l-0.9,1.3h-1.3l0.7-1.1c0.1-0.1,0-0.3-0.1-0.3c-0.1-0.1-0.3,0-0.3,0.1l-0.8,1.3h-1.3l0.7-1
	c0.1-0.1,0-0.3-0.1-0.3c-0.1-0.1-0.3,0-0.3,0.1l-0.9,1.3H30l0.7-1c0.1-0.1,0-0.3-0.1-0.3s-0.3,0-0.3,0.1l-0.9,1.3h-1.3l0.7-1
	c0.1-0.1,0-0.3-0.1-0.3s-0.3,0-0.3,0.1l-0.9,1.3h-2.5C26.8,19.6,29.4,18.5,32.2,18.5z M24.9,14.3c0.1-0.1,0.1-0.2,0.2-0.3
	c-0.2,0.5-0.3,1-0.5,1.5c0-0.3,0-0.6-0.2-0.8c-0.1-0.1-0.2-0.1-0.3-0.2C24.4,14.6,24.7,14.5,24.9,14.3z M23.6,14.3
	c0.1,0.1,0.2,0.1,0.3,0.2c-0.2,0-0.5,0-0.7,0.1c0.2-0.2,0.2-0.4,0.2-0.7C23.4,14.1,23.5,14.2,23.6,14.3z M23,14.8
	c-0.3,0.4-0.3,0.9,0,1.2c0.4,0.4,1,0.4,1.3,0c0.1-0.1,0.1-0.2,0.2-0.2c-0.3,0.8-0.5,1.7-0.8,2.6c-0.2-1.2-0.7-2.4-1.4-3.5
	C22.5,14.9,22.8,14.9,23,14.8z M13.5,10.7c2.3,0,4.7,1,6.6,2.8c2,2,3.1,4.6,2.9,7.2l-1.8-1.8l0.3-1.6c0-0.1-0.1-0.3-0.2-0.3
	S21,17.2,21,17.3l-0.2,1.3l-0.9-0.9l0.3-1.5c0-0.1,0-0.3-0.2-0.3c-0.1,0-0.3,0-0.3,0.2l-0.3,1.2l-0.9-0.9l0.3-1.5
	c0-0.1-0.1-0.3-0.2-0.3c-0.1,0-0.3,0.1-0.3,0.2L18,15.9L17.1,15l0.3-1.6c0-0.1-0.1-0.3-0.2-0.3c-0.1,0-0.3,0.1-0.3,0.2l-0.2,1.2
	l-0.9-0.9l0.3-1.5c0-0.1-0.1-0.3-0.2-0.3c-0.1,0-0.3,0.1-0.3,0.2l-0.2,1.2l-2.5-2.5C13,10.7,13.2,10.7,13.5,10.7z M15.4,18.2
	c-2-2-3.1-4.6-2.9-7.1l2.5,2.5l-1.2,0.3c-0.1,0-0.2,0.1-0.2,0.3c0,0.1,0.1,0.2,0.2,0.2c0,0,0,0,0,0l1.5-0.3l0.9,0.9l-1.2,0.3
	c-0.1,0-0.2,0.2-0.2,0.3c0,0.1,0.1,0.2,0.2,0.2c0,0,0,0,0,0l1.5-0.3l0.9,0.9l-1.2,0.3c-0.1,0-0.2,0.1-0.2,0.3c0,0.1,0.1,0.2,0.2,0.2
	c0,0,0,0,0,0l1.5-0.3l0.9,0.9l-1.2,0.2c-0.1,0-0.2,0.1-0.2,0.3c0,0.1,0.1,0.2,0.2,0.2c0,0,0,0,0,0l1.5-0.3l0.9,0.9l-1.2,0.3
	c-0.1,0-0.2,0.1-0.2,0.3c0,0.1,0.1,0.2,0.2,0.2c0,0,0,0,0,0l1.5-0.3l1.8,1.8c-0.2,0-0.4,0-0.6,0C19.6,21,17.3,20,15.4,18.2z
	 M21,28.6c0.4,0,0.7-0.3,0.8-0.7c0,0.4-0.1,0.9-0.1,1.3C21.7,28.9,21.4,28.6,21,28.6z M15,29.2c1.3,0,2.7,0.4,3.9,1.1
	c1.5,1,2.6,2.4,3.1,3.9c0,0.2,0.1,0.4,0.1,0.6l-1.8-1.1l0-1.6c0-0.1-0.1-0.2-0.2-0.2c-0.1,0-0.2,0.1-0.2,0.2l0,1.3l-1.1-0.7l0-1.6
	c0-0.1-0.1-0.2-0.2-0.2c-0.1,0-0.2,0.1-0.2,0.2l0,1.3l-1.1-0.7l0-1.6c0-0.1-0.1-0.2-0.2-0.2c-0.1,0-0.2,0.1-0.2,0.2l0,1.3l-3.3-2
	C13.9,29.3,14.5,29.2,15,29.2z M16.5,34.4c-1.7-1.1-2.9-2.7-3.3-4.5l3.2,2l-1.1,0.5c-0.1,0-0.2,0.2-0.1,0.3c0,0.1,0.1,0.1,0.2,0.1
	c0,0,0.1,0,0.1,0l1.4-0.6l1.1,0.7l-1.1,0.5c-0.1,0-0.2,0.2-0.1,0.3c0,0.1,0.1,0.1,0.2,0.1c0,0,0.1,0,0.1,0l1.4-0.6l1.1,0.7l-1.1,0.5
	c-0.1,0-0.2,0.2-0.1,0.3c0,0.1,0.1,0.1,0.2,0.1c0,0,0.1,0,0.1,0l1.4-0.6l1.9,1.1c-0.5,0.1-1,0.2-1.6,0.2
	C19,35.5,17.7,35.1,16.5,34.4z M30.2,35.8c-0.9,0.4-1.8,0.5-2.8,0.5c-1,0-1.9-0.2-2.7-0.6l2-0.8l1.2,0.9c0,0,0.1,0,0.1,0
	c0.1,0,0.1,0,0.2-0.1c0.1-0.1,0-0.3,0-0.3l-1-0.7l1.2-0.5l1.3,0.9c0,0,0.1,0,0.1,0c0.1,0,0.1,0,0.2-0.1c0.1-0.1,0-0.3,0-0.3L29,34.1
	l1.2-0.5l1.3,1c0,0,0.1,0,0.1,0c0.1,0,0.1,0,0.2-0.1c0.1-0.1,0-0.3,0-0.3l-1.1-0.8l3.6-1.4C33.6,33.7,32.1,35.1,30.2,35.8z
	 M28.5,31.5c0.9-0.4,1.8-0.5,2.8-0.5c1,0,2,0.2,2.8,0.6l-3.5,1.4l0.3-1.1c0-0.1,0-0.3-0.2-0.3c-0.1,0-0.3,0-0.3,0.2l-0.4,1.4
	l-1.2,0.5l0.3-1.2c0-0.1,0-0.3-0.2-0.3c-0.1,0-0.3,0-0.3,0.2l-0.4,1.5l-1.3,0.5l0.3-1.2c0-0.1,0-0.3-0.2-0.3s-0.3,0-0.3,0.2
	l-0.4,1.6l-2.1,0.8C25.1,33.7,26.6,32.2,28.5,31.5z M25.4,30.5c-0.1,0.3-0.1,0.5,0,0.8c0,0-0.1-0.1-0.1-0.1
	c-0.2-0.2-0.4-0.3-0.6-0.3c0.2,0,0.4-0.1,0.5-0.3C25.3,30.6,25.3,30.6,25.4,30.5z M23.9,32.5c0.4,0.4,1,0.4,1.3,0
	c0.3-0.3,0.4-0.8,0.2-1.1c0,0,0.1,0.1,0.1,0.1c0.1,0.2,0.3,0.2,0.5,0.3c-0.9,0.7-1.6,1.5-2.1,2.5c-0.1-0.7-0.2-1.5-0.3-2.3
	C23.7,32.2,23.8,32.3,23.9,32.5z M32.2,25.1c-2.8,0-5.4-1.1-7.1-3h2.5l0.9,1.3c0,0.1,0.1,0.1,0.2,0.1c0,0,0.1,0,0.1,0
	c0.1-0.1,0.1-0.2,0.1-0.3l-0.7-1h1.3l0.8,1.3c0,0.1,0.1,0.1,0.2,0.1c0,0,0.1,0,0.1,0c0.1-0.1,0.1-0.2,0.1-0.3L30,22h1.3l0.9,1.3
	c0,0.1,0.1,0.1,0.2,0.1c0,0,0.1,0,0.1,0c0.1-0.1,0.1-0.2,0.1-0.3l-0.7-1h1.3l0.9,1.3c0,0.1,0.1,0.1,0.2,0.1c0,0,0.1,0,0.1,0
	c0.1-0.1,0.1-0.2,0.1-0.3l-0.7-1h1.3l0.9,1.3c0,0.1,0.1,0.1,0.2,0.1c0,0,0.1,0,0.1,0c0.1-0.1,0.1-0.2,0.1-0.3l-0.7-1h3.6
	C37.6,23.9,35,25.1,32.2,25.1z"/>
</svg>
