<?xml version="1.0" encoding="utf-8"?>
<!-- Generator: Adobe Illustrator 18.1.1, SVG Export Plug-In . SVG Version: 6.00 Build 0)  -->
<svg version="1.1" id="Layer_1" xmlns="http://www.w3.org/2000/svg" xmlns:xlink="http://www.w3.org/1999/xlink" x="0px" y="0px"
	 viewBox="0 0 50 50" enable-background="new 0 0 50 50" xml:space="preserve">
<rect class="background" fill="none" width="50" height="50"/>
<g>
	<g opacity="0.5">
		<path class="border" fill="#ffffff" d="M48.3,1.7v46.7H1.7V1.7H48.3 M50,0H0v50h50V0L50,0z"/>
	</g>
	<g>
		<path class="logo" fill="#FFFFFF" d="M20,24c0,1,0,2.2,0,3.2c1.8,0,3.7,0,5.5,0c-0.8,4-6.3,5.3-9.2,2.7c-3-2.3-2.8-7.3,0.3-9.5
			c2.2-1.7,5.2-1.3,7.3,0.2c0.8-0.8,1.7-1.7,2.3-2.5c-1.8-1.5-4-2.5-6.3-2.3c-5,0-9.5,4.3-9.5,9.2c-0.3,4,2.3,8,6,9.3
			c3.7,1.5,8.5,0.5,10.8-2.8c1.5-2.2,1.8-4.8,1.7-7.3C26,24,23,24,20,24z"/>
		<path class="logo" fill="#FFFFFF" d="M37.7,24c0-0.8,0-1.8,0-2.7c-0.8,0-1.8,0-2.7,0c0,0.8,0,1.8,0,2.7c-0.8,0-1.8,0-2.7,0c0,0.8,0,1.8,0,2.7
			c0.8,0,1.8,0,2.7,0c0,0.8,0,1.8,0,2.7c0.8,0,1.8,0,2.7,0c0-0.8,0-1.8,0-2.7c0.8,0,1.8,0,2.7,0c0-0.8,0-1.8,0-2.7
			C39.5,24,38.7,24,37.7,24z"/>
	</g>
</g>
</svg>
