<?xml version="1.0" encoding="utf-8"?>
<!-- Generator: Adobe Illustrator 18.0.0, SVG Export Plug-In . SVG Version: 6.00 Build 0)  -->
<!DOCTYPE svg PUBLIC "-//W3C//DTD SVG 1.1//EN" "http://www.w3.org/Graphics/SVG/1.1/DTD/svg11.dtd">
<svg version="1.1" id="Layer_1" xmlns="http://www.w3.org/2000/svg" xmlns:xlink="http://www.w3.org/1999/xlink" x="0px" y="0px"
	 viewBox="0 0 30 30" enable-background="new 0 0 30 30" xml:space="preserve">
<g>
	<g opacity="0.5">
		<path fill="#FFFFFF" d="M29,1v28H1V1H29 M30,0H0v30h30V0L30,0z"/>
	</g>
	<g>
		<path fill="#FFFFFF" d="M12,14.4c0,0.6,0,1.3,0,1.9c1.1,0,2.2,0,3.3,0c-0.5,2.4-3.8,3.2-5.5,1.6c-1.8-1.4-1.7-4.4,0.2-5.7
			c1.3-1,3.1-0.8,4.4,0.1c0.5-0.5,1-1,1.4-1.5c-1.1-0.9-2.4-1.5-3.8-1.4C9,9.4,6.3,12,6.3,14.9c-0.2,2.4,1.4,4.8,3.6,5.6
			c2.2,0.9,5.1,0.3,6.5-1.7c0.9-1.3,1.1-2.9,1-4.4C15.6,14.4,13.8,14.4,12,14.4z"/>
		<path fill="#FFFFFF" d="M22.6,14.4c0-0.5,0-1.1,0-1.6c-0.5,0-1.1,0-1.6,0c0,0.5,0,1.1,0,1.6c-0.5,0-1.1,0-1.6,0c0,0.5,0,1.1,0,1.6
			c0.5,0,1.1,0,1.6,0c0,0.5,0,1.1,0,1.6c0.5,0,1.1,0,1.6,0c0-0.5,0-1.1,0-1.6c0.5,0,1.1,0,1.6,0c0-0.5,0-1.1,0-1.6
			C23.7,14.4,23.2,14.4,22.6,14.4z"/>
	</g>
</g>
</svg>
