<?xml version="1.0" encoding="utf-8"?>
<!-- Generator: Adobe Illustrator 18.0.0, SVG Export Plug-In . SVG Version: 6.00 Build 0)  -->
<!DOCTYPE svg PUBLIC "-//W3C//DTD SVG 1.1//EN" "http://www.w3.org/Graphics/SVG/1.1/DTD/svg11.dtd">
<svg version="1.1" id="Layer_1" xmlns="http://www.w3.org/2000/svg" xmlns:xlink="http://www.w3.org/1999/xlink" x="0px" y="0px"
	 viewBox="0 0 100 100" enable-background="new 0 0 100 100" xml:space="preserve">
<path fill-rule="evenodd" clip-rule="evenodd" fill="#FFFFFF" d="M26.1,58.3l0.1-0.1l0-0.3l-0.1-0.2L26,57.6l-0.2,0.2l0.1,0.3
	L26.1,58.3z M78,64.7l0.1-0.4l-0.2-0.5l-0.1-0.6l-0.1-0.2l0-0.4l-0.2-0.7l-0.2-0.6L76.9,61l0.1-0.3l-0.1-0.3l-0.2-0.2l-0.2-0.7
	l0.1-0.3l-0.1-0.3l-0.2-0.2l-0.3-0.2l-0.4-0.5l-0.4-0.4l-0.2-0.2L75,57.4L74.9,57l-0.1-0.1l-0.2,0l-0.5-0.2l-0.4,0.2l0-0.3l0.1-0.2
	l1.5-1.5l0.8-0.7l0.1-0.1l0.1-0.2l0.1-0.2l-0.2-0.3l-0.7-1.2l-0.2-0.2L75,51.7l-0.3-0.5l-0.3-1.2l-0.2-0.6L74.1,49l0-0.5l-0.1-0.4
	l-0.2-0.3l0-0.8l0.2-1.4l0.1-1.1l-0.1-0.7l0.2-0.5l0.4-0.4l0.3-0.6l0.1-0.8l0.3-0.6l0.5-0.5l0.2-0.5L76,39.4l0-0.3l-0.4-0.3
	l-0.7-0.2l-0.6,0l-0.4,0.3l-1,0.2l-1.5,0.2l-1.2,0L69.2,39l-0.7,0.1L68,39.5l-0.3,0.1l-0.2-0.2l-0.2-0.1L67,39.4l-0.1-0.1l-0.7-1
	l-0.6-0.9l-0.7-1.1l-0.8-1.2l-0.2-0.1l-0.3,0l-0.4,0L62.7,35l-0.4-0.2l-0.3-0.2l-0.5-0.2l-0.4,0l-0.3,0.1l-1,0.4l-0.5,0l-0.4,0
	l-1.1-0.2l-0.8,0l-0.9,0.1l-0.4,0.1l-0.5-0.2l-0.3-0.3l-0.3-0.8l-0.2-0.6L54,32.8l-0.4-0.1l-0.2-0.2l-0.1-0.4l0-0.5l0.1-0.8l0.1-0.3
	l0.1-0.8l0.3-0.4l0.2-0.2l0-0.3l-0.1-0.7l-0.1-0.5L53.2,27l-0.6-0.7l-0.2-1.2l-0.3-1.4l-0.2-0.1l-0.2,0.1l-0.3-0.1l-0.2-0.5L51,23
	l-0.4,0.2l-0.3,0.2l-0.7,0.1l-0.1-0.1l0.1-0.2l0.3-0.5l0.4-0.6l0.4-0.6l0.4-0.6l0.3-0.6l0.3-1.3l0.2-0.9l0.4-1.5l0.7-1.2l0.3-0.6
	l0.6-0.7l0.3-0.4l0.4-0.3l0.9-0.4l1.2-2.1l0.3-0.3l1.1-0.3l0.9-0.2l0.6-0.3l0.2-0.1l0.2-0.1l0.2-0.3l0.7-0.7l0-0.6l-0.4-0.9l-1-0.5
	l-0.5,0l-0.5,0.1l-1,0.6l-0.1,0.2L57,7.4l-0.4,0l-0.4,0.3l-0.2,0.7l-0.6,0.9l-0.8,0.5l-1.3,0.5l-2.9,2.2l-1.7,0.1l-0.5,0l-0.5-0.2
	l-0.7-0.2l-0.4,0.1l-0.3,0.3l-0.1,0.8l-0.4,0.8l-0.3,0.7l-0.3,0.3L45.1,15l-0.2-0.4l0.1-0.4l0.4-0.2l0.3,0l0.1-0.1l-0.6,0l-1.7-0.6
	L43,13.6l-1,1L41.4,15l-0.2,0.3l-0.8,0.6l-0.2,0.4l-0.3,1l-0.6,0.7l-0.2,0.3l0.3-0.2l0.4-0.3l0.1,0.2l-0.3,0.4l0,0.7L39.3,20
	l-0.2,0.5l0.2,0.4l0.1,0.6L39.2,22l-0.5,0.2L38,22.1l-0.6,0.3L36.8,23l-0.7,1.4l-2,1.5l-0.5,0.3l-0.4,0.1L33,26.6l0.2,0.3l0.2,0.3
	l0.2,0.8l0.1,1.6L33.5,30L33.1,30L33,29.9l-0.1-0.2l0.1-0.3l0.2-0.2l0.1-0.1L33,28.9l-0.2-0.1l-0.2-0.5L32,27.5L31.4,27l-0.3-0.7
	L31,26.1l-0.1,0.1l-0.3,0.4L30.4,27l0.3,0.4l0.1,0.4l0.2,0.4l0.3,0.4l0.3,0.8l0.1,0.3l-0.1,0.2l-0.3,0.1l-0.3,0.4l-0.1,0.5l0,0.2
	l-0.9,0.7L29.7,32l-0.1-0.1l-0.2-0.4l-0.2-0.3L29,31.1l-0.1,0l-0.1,0.1l0,0.2l0.1,0.7l-0.1,0.3l-0.3,0.2l-0.4,1.1l0.4,0.5l0.5,0.9
	l0.1,0.5l0.2,0.2l0.3,0.8l0.4,0l0.3,0.6l0,0.4l-0.2,1.2l-0.2,0l-0.1-0.1l0,0.6l0.5,0.9l0.4,1.1l-0.4,0.5l-1,0.7l0.6,0.6l0.1,0.5
	l0,0.6l-0.1,0.7l0.1,1.2l0.1,0.3l0.1,0.3l-0.2,0.7L30.2,48l-0.1,0.4l-0.3,0.3l-0.2,0.2l-0.3,0.2l0,0.2l0.5-0.2l0,0.2l-0.1,0.4l0,0.4
	l0.3,0.6l0.4-0.6l0.1,0.1l-0.1,0.8l0.2,0.1l0.2,0L31,51l0.2,0l-0.8,1.7L30,53.3l-0.2,0.7l-0.3,0l-0.3,0.6l-0.2,0.4l-0.2,0.4
	l-0.3,0.1l-0.3,0.1l0,0.2l0.1,0.5l0,0.2l-0.5,0.5l-0.2,0.2l0,0.2l-0.3,0l-0.1,0.1l-0.2,0.4L26.8,58l-0.2,0.1l-0.2,0.2l-0.2,0.1
	l-0.8-0.1l-0.2,0.3l-0.3-0.1l-0.2,0.1l-0.3,0.2L24,59.1l-0.1,0.3l-0.1,1.3l0.3,0.7L24,62.2l-1-0.4l-0.8,0.5L21.9,63l0.6,0.5l0.1,0.4
	l0.1,0.1l0.4,0.4l0.3,0.4l0.4,0.2l0.3,0.2l0.9,0.8l0.6,0.4l0.7,0.4l1,0.4l0.6-0.1l0.1,0.3l0.1,0.3l0.2,0.2l0.3,0.2l0.2,0l0.1,0.1
	l0.2,1.1l0.1,0.2l0.5,0.2l0.6,0.1l0.2,0l0.5,0.3l0.4,0.1l0.4,0.1l0.3,0l0.1,0l0-0.1l0.2,0l0.3,0.1l0.5,0l0.3-0.1l0-0.2l0-0.4
	l0.1-0.1l0.4-0.2l0.2,0l0.9,0.5l0.2,0.2l0.2,0.3l0.4,0.5l0.5,0.3l0.7,0.1l0.7,0.5l0.8,0.4l0.3-0.3h0.2l0.2,0l0.4,0.3l0.2,0.2
	l0.3,0.2l0.3,0.1l0.2,0l0.2,0l0.1,0.2l0.1,0.3l0.3,0.2l0.3,0.2l0.3,0.3l0.2,0.2l0.2,0.2l0.2,0.3l0.2,0.6l0.1,0.4l0.1,0.2l0,0.2
	l0.2,0.4l0.2,0.2l0.3,0.1l0.6,0.2l0.3,0.4l0.3,0.1l0.3,0.4l0.3,0.1l0.3,0l0.3,0.2l0.3,0.4l0.2,0.4l0.3,0.3l0.1,0.5L47.4,80l0.1,0.3
	l0.3,0.2l0.4,0.2l0.4-0.1l0.2,0.1l0.1,0.2l0.1,0.3l0.2,0.6l0.1,0.4l-0.1,0.4L49,83l0.1,0.4l0.4,0.2l0.4,0.1l0.2,0.3l0.3,0.1l0.4,0
	l0.4-0.1l0.2-0.2l0.2,0l0.2,0.1l0.4,0.2l0.5,0.2l0.4-0.1l0.4,0l0.4-0.1l0.4-0.3l0.3,0l0.2-0.2l0.3-0.3l0.3-0.3l0.2-0.1l0.4,0.2
	l0.5,0.2l0.3,0.3l0.2,0.1l0.2,0.2l0.4,0l0.5-0.1l0.4-0.4l0.4-0.1l0.3-0.1l0.3,0.1l1,0.6l0.3,0.3l0.3,0.1l0.3,0.2l0.5,0.2l0.3,0.2
	l0.3,0.1l0.2,0.3l0.4,0.2l0.3,0.1l0.1,0.2l0,0.2l0,0.1l-0.3,0.6l-0.6,1.2l-0.6,1.1L61,90.3l-0.5,0.9l0.1,0l0.8,0.4l0.2,0l0.3-0.1
	l0.2-0.2l0.2,0l0.2,0.2l0.3,0.2l0.2,0.6l0.2,0.3l0.3,0.2l0.4,0.4l0.2,0.4l0.1-0.2l0.1-1.1l0.2-1.8l0.2-1.6l0.2-1.8l0.3-1.8l0.3-1.8
	l0.2-1.5l0.2-1.3l0.1-0.8l0.2-1l0.1-0.9l0.1-0.3l-0.1-0.2l-0.2-0.3l0-0.1l0-0.2l0-0.2L66,76.5l-0.1-0.1l-0.1-0.1L65.7,76l-0.1-0.2
	l0-0.2l-0.1-0.2l0-0.2l0.1-0.2l0-0.2l0-0.2l-0.1-0.2l-0.1-0.2L65.1,74l-0.4-0.2l-0.4-0.4l-0.4-0.3l-0.6-0.6l-0.1-0.3l0-0.8l0-0.9
	l0-1.3l0-0.7l0.3,0l0.3,0l0.3,0l0.3,0l0.2-0.1l0.2-0.1l0.2-0.1l0.2,0l0.2-0.1l0.2-0.1l0.2-0.1l0.3-0.1l0.2,0.2l0.1,0.2l0.2,0.1
	l0.1,0l0.1,0l0.1,0.1l0.1,0l0.2,0l0.2,0l0.1,0l0-0.1l0-0.1l-0.1-0.1l0.1-0.2l0-0.3l0-0.3l-0.1-0.2l-0.1-0.3L67,66.1l-0.2-0.2
	l-0.2-0.1L66.4,66l-0.2,0l-0.1-0.1l-0.2,0l-0.2,0l-0.2,0l-0.4,0.1l-0.2-0.1l-0.2,0l-0.3,0.1l0-1.3l0-1.2l0-0.9l0.2,0l0.3-0.2l0.4,0
	l0.3-0.2l0.2,0l0.3,0.1l0.3,0.2l0.3,0l0.9,0l1,0l1.1,0l1.1,0l0.9,0l0.3,0l-0.2-0.3l-0.2-0.4l0.1-0.3l0.1-0.3L72,61l0.3,0.2l0.2,0.5
	l0.2,0.4l0.2,0.2l0.2,0l0.3-0.1l0.3-0.2l0.5-0.7l0.5-0.6l0.2-0.2l0.3-0.2l0.2-0.1l0.3,0l0.2,0.2l0.1,0.3l0.5,1l0.4,0.7l0.1,0.5
	l0,1.1l0,1l0.1,0.1l0.1,0l0.9-0.2L78,64.7z"/>
</svg>
