<?xml version="1.0" encoding="utf-8"?>
<!-- Generator: Adobe Illustrator 18.0.0, SVG Export Plug-In . SVG Version: 6.00 Build 0)  -->
<!DOCTYPE svg PUBLIC "-//W3C//DTD SVG 1.1//EN" "http://www.w3.org/Graphics/SVG/1.1/DTD/svg11.dtd">
<svg version="1.1" id="Layer_1" xmlns="http://www.w3.org/2000/svg" xmlns:xlink="http://www.w3.org/1999/xlink" x="0px" y="0px"
	 viewBox="0 0 52 52" enable-background="new 0 0 52 52" xml:space="preserve">
<g>
	<path fill="#E46119" d="M39.1,10.6H12.9c-0.4,0-0.8,0.3-0.8,0.8v23.8c0,0.8,0.7,1.5,1.5,1.5h1.8c0.7,0,1.3,0.5,1.3,1.2
		c0.6,4.5,4.5,8,9.2,8s8.6-3.5,9.2-8c0.1-0.7,0.7-1.2,1.3-1.2h1.8c0.8,0,1.5-0.7,1.5-1.5V11.4C39.8,11,39.5,10.6,39.1,10.6z
		 M38.3,35.2h-1.8c-1.4,0-2.7,1.1-2.9,2.5c-0.5,3.8-3.8,6.7-7.6,6.7s-7.1-2.9-7.6-6.7c-0.2-1.4-1.4-2.5-2.9-2.5h-1.8V12.2h24.6V35.2
		z"/>
	<path fill="#E46119" d="M19,9.8h1.8c0.4,0,0.7-0.3,0.7-0.7V6.7c0-0.4-0.3-0.7-0.7-0.7H19c-0.4,0-0.7,0.3-0.7,0.7v2.5
		C18.3,9.6,18.6,9.8,19,9.8z M19.1,6.8h1.5v2.3h-1.5V6.8z"/>
	<path fill="#E46119" d="M31.3,9.8H33c0.4,0,0.7-0.3,0.7-0.7V6.7C33.7,6.3,33.4,6,33,6h-1.8c-0.4,0-0.7,0.3-0.7,0.7v2.5
		C30.6,9.6,30.9,9.8,31.3,9.8z M31.4,6.8h1.5v2.3h-1.5V6.8z"/>
	<path fill="#E46119" d="M17.7,7.2H9.8c-0.4,0-0.8,0.3-0.8,0.8s0.3,0.8,0.8,0.8h7.9V7.2z"/>
	<rect x="22" y="7.2" fill="#E46119" width="7.9" height="1.5"/>
	<path fill="#E46119" d="M42.2,7.2h-8.1v1.5h8.1c0.4,0,0.8-0.3,0.8-0.8S42.6,7.2,42.2,7.2z"/>
	<path fill="#E46119" d="M29.7,33c0.1-0.5-0.3-0.9-0.8-0.9h-5.8c-0.5,0-0.8,0.4-0.8,0.9c0.2,1.7,1,5.3,3.7,5.3c1.2,0,2-0.8,2.6-1.7
		c0.3,0,1.3,0,1.8-0.5l1-1.5c0-0.6-0.7-1.2-1.5-1.2h-0.3C29.6,33.3,29.6,33.2,29.7,33z M29.9,34.3c0.3,0,0.6,0.1,0.7,0.3l-0.7,1
		c-0.2,0.1-0.5,0.2-0.8,0.2L29.9,34.3L29.9,34.3L29.9,34.3z M26,37.5c-0.9,0-1.5-0.5-2.1-1.6c-0.5-1-0.7-2.2-0.8-3h5.8l0,0
		c-0.2,0.8-0.3,2-0.8,3C27.5,37,26.9,37.5,26,37.5z"/>
	<path fill="#E46119" d="M24.3,28.1c-0.1,0.1-0.2,0.2-0.3,0.3c-0.1,0.2-0.2,0.4-0.3,0.6c0,0.1,0,0.1,0,0.2c0,0,0,0.1,0,0.1
		c0,0.1,0,0.2,0,0.3c0,0.2,0.1,0.3,0.1,0.4c0.1,0.2,0.2,0.4,0.3,0.5c0,0.1,0.1,0.1,0.1,0.1c0,0,0,0.1,0,0.1c0,0.1,0.1,0.1,0.2,0.1
		c0.1,0,0.2-0.1,0.2-0.2v0c0,0,0-0.1,0-0.2c0-0.1-0.1-0.3-0.1-0.5c0-0.1,0-0.2,0-0.3c0-0.1,0-0.1,0-0.2c0,0,0-0.1,0-0.1
		c0,0,0,0,0-0.1c0-0.1,0-0.1,0.1-0.2c0.1-0.1,0.2-0.2,0.3-0.3c0.1-0.1,0.3-0.3,0.3-0.6c0.1-0.3,0-0.4,0-0.6
		c-0.1-0.3-0.1-0.6-0.2-0.8c-0.1-0.2-0.2-0.4-0.2-0.5C24.7,26,24.7,26,24.7,26l0,0c0-0.1-0.1-0.1-0.2-0.1c-0.1,0-0.2,0.1-0.2,0.2
		c0,0,0,0.1,0,0.2c0,0.1,0,0.3,0.1,0.5c0,0.2,0.1,0.5,0.1,0.8c0,0.1,0,0.3,0,0.3C24.4,27.9,24.4,28,24.3,28.1z"/>
	<path fill="#E46119" d="M26.2,25.9c0-0.1-0.1-0.1-0.2-0.1c-0.1,0-0.2,0.1-0.2,0.2c0,0,0,0.1,0,0.2c0,0.1,0,0.3,0.1,0.5
		c0,0.2,0.1,0.5,0.1,0.8c0,0.1,0,0.3,0,0.3c0,0.1-0.1,0.1-0.2,0.2c-0.1,0.1-0.2,0.2-0.3,0.3s-0.2,0.4-0.3,0.6c0,0.1,0,0.1,0,0.2
		c0,0,0,0.1,0,0.1c0,0.1,0,0.2,0,0.3c0,0.2,0.1,0.3,0.1,0.4c0.1,0.2,0.2,0.4,0.3,0.5c0,0.1,0.1,0.1,0.1,0.1c0,0,0,0.1,0,0.1
		c0,0.1,0.1,0.1,0.2,0.1c0.1,0,0.2-0.1,0.2-0.2v0c0,0,0-0.1,0-0.2c0-0.1-0.1-0.3-0.1-0.5c0-0.1,0-0.2,0-0.3c0-0.1,0-0.1,0-0.2
		c0,0,0-0.1,0-0.1c0,0,0,0,0-0.1c0-0.1,0-0.1,0.1-0.2c0.1-0.1,0.2-0.2,0.3-0.3c0.1-0.1,0.3-0.3,0.3-0.6c0.1-0.3,0-0.4,0-0.6
		c-0.1-0.3-0.1-0.6-0.2-0.8c-0.1-0.2-0.2-0.4-0.2-0.5C26.2,26,26.2,25.9,26.2,25.9L26.2,25.9z"/>
	<path fill="#E46119" d="M27.4,28.1c-0.1,0.1-0.2,0.2-0.3,0.3s-0.2,0.4-0.3,0.6c0,0.1,0,0.1,0,0.2c0,0,0,0.1,0,0.1
		c0,0.1,0,0.2,0,0.3c0,0.2,0.1,0.3,0.1,0.4c0.1,0.2,0.2,0.4,0.3,0.5c0,0.1,0.1,0.1,0.1,0.1c0,0,0,0.1,0,0.1c0,0.1,0.1,0.1,0.2,0.1
		c0.1,0,0.2-0.1,0.2-0.2v0c0,0,0-0.1,0-0.2c0-0.1-0.1-0.3-0.1-0.5c0-0.1,0-0.2,0-0.3c0-0.1,0-0.1,0-0.2c0,0,0-0.1,0-0.1
		c0,0,0,0,0-0.1c0-0.1,0-0.1,0.1-0.2c0.1-0.1,0.2-0.2,0.3-0.3c0.1-0.1,0.3-0.3,0.3-0.6c0.1-0.3,0-0.4,0-0.6
		c-0.1-0.3-0.1-0.6-0.2-0.8c-0.1-0.2-0.2-0.4-0.2-0.5C27.8,26,27.8,26,27.8,26l0,0c0-0.1-0.1-0.1-0.2-0.1c-0.1,0-0.2,0.1-0.2,0.2
		c0,0,0,0.1,0,0.2c0,0.1,0,0.3,0.1,0.5c0,0.2,0.1,0.5,0.1,0.8c0,0.1,0,0.3,0,0.3C27.5,27.9,27.5,28,27.4,28.1z"/>
	<path fill="#E46119" d="M17,22.2c0.6,0,1.2-0.1,1.7-0.4l-0.3-0.6c-0.4,0.1-0.8,0.2-1.3,0.2c-0.3,0-0.5-0.1-0.7-0.4
		c-0.2-0.3-0.2-0.6-0.2-1.2c0-0.6,0.1-1,0.3-1.2c0.2-0.2,0.4-0.3,0.7-0.3c0.3,0,0.5,0,0.6,0.1c0,0.3,0.1,0.5,0.1,0.5h0.6
		c0.1,0,0.1-0.3,0.1-0.4c0-0.2,0.1-0.3,0.1-0.4s0-0.1,0-0.2c-0.4-0.3-0.9-0.4-1.5-0.4c-0.6,0-1.1,0.2-1.5,0.6
		c-0.3,0.4-0.5,1-0.5,1.8c0,0.8,0.1,1.4,0.4,1.7C15.9,22,16.4,22.2,17,22.2z"/>
	<path fill="#E46119" d="M20.8,22.2c0.6,0,1.1-0.2,1.5-0.6c0.3-0.4,0.5-1,0.5-1.8c0-0.8-0.2-1.4-0.5-1.7c-0.3-0.3-0.8-0.5-1.4-0.5
		c-0.6,0-1.1,0.2-1.5,0.6c-0.3,0.4-0.5,1-0.5,1.8s0.2,1.4,0.5,1.7C19.7,22,20.2,22.2,20.8,22.2z M20.2,18.6c0.2-0.2,0.4-0.3,0.7-0.3
		c0.6,0,1,0.5,1,1.6c0,0.6-0.1,1-0.3,1.2c-0.2,0.3-0.4,0.4-0.7,0.4s-0.5-0.1-0.7-0.4c-0.2-0.3-0.3-0.7-0.3-1.2
		C19.9,19.2,20,18.8,20.2,18.6z"/>
	<path fill="#E46119" d="M23.1,21.6l0.1,0.6H25l0.1-0.6c-0.1-0.1-0.4-0.2-0.6-0.3v-1.1h0.9c0.1,0.2,0.1,0.2,0.2,0.3l0.4-0.1v-1.2
		l-0.4-0.1c-0.1,0.1-0.1,0.1-0.2,0.3h-0.9v-1.2h1c0.1,0.2,0.1,0.4,0.2,0.5l0.5-0.1v-1.2h-3l-0.1,0.6c0.1,0.1,0.2,0.2,0.4,0.3v3
		C23.3,21.4,23.2,21.5,23.1,21.6z"/>
	<path fill="#E46119" d="M26.6,21.6l0.1,0.6h1.8l0.1-0.6c-0.1-0.1-0.4-0.2-0.6-0.3v-1.1h0.9c0.1,0.2,0.1,0.2,0.2,0.3l0.4-0.1v-1.2
		L29,19.2c-0.1,0.1-0.1,0.1-0.2,0.3h-0.9v-1.2h1c0.1,0.2,0.1,0.4,0.2,0.5l0.5-0.1v-1.2h-3l-0.1,0.6c0.1,0.1,0.2,0.2,0.4,0.3v3
		C26.8,21.4,26.6,21.5,26.6,21.6z"/>
	<path fill="#E46119" d="M30,21.6l0.1,0.6h3V21l-0.4-0.1c-0.1,0.1-0.1,0.3-0.2,0.5h-1.1v-1.2h0.9c0.1,0,0.1,0.2,0.2,0.2l0.4-0.1
		v-1.2l-0.4,0c-0.1,0.1-0.1,0.1-0.2,0.3h-0.9v-1.2h1c0.1,0.2,0.1,0.4,0.2,0.5l0.5-0.1v-1.2h-3L30,18.1c0.1,0.1,0.2,0.2,0.4,0.3v3
		C30.2,21.4,30.1,21.5,30,21.6z"/>
	<path fill="#E46119" d="M33.6,21.6l0.1,0.6h3.1V21l-0.5-0.1c-0.1,0.1-0.2,0.3-0.3,0.5h-1.2v-1.2h1c0.1,0,0.1,0.2,0.1,0.2l0.4-0.1
		v-1.2l-0.4,0c-0.1,0.1-0.1,0.1-0.1,0.3h-1v-1.2H36c0.1,0.2,0.2,0.4,0.3,0.5l0.5-0.1v-1.2h-3.1l-0.1,0.6c0.1,0.1,0.1,0.2,0.3,0.3v3
		C33.7,21.4,33.6,21.5,33.6,21.6z"/>
</g>
</svg>
