<?xml version="1.0" encoding="utf-8"?>
<!-- Generator: Adobe Illustrator 18.0.0, SVG Export Plug-In . SVG Version: 6.00 Build 0)  -->
<!DOCTYPE svg PUBLIC "-//W3C//DTD SVG 1.1//EN" "http://www.w3.org/Graphics/SVG/1.1/DTD/svg11.dtd">
<svg version="1.1" id="Layer_1" xmlns="http://www.w3.org/2000/svg" xmlns:xlink="http://www.w3.org/1999/xlink" x="0px" y="0px"
	 viewBox="0 0 100 100" enable-background="new 0 0 100 100" xml:space="preserve">
<polygon fill-rule="evenodd" clip-rule="evenodd" fill="#FFFFFF" points="80.4,46.5 80.3,47 80.7,47.5 81.2,48.5 79.8,50.2 
	78.1,49.4 76.7,48.3 76,48.2 75.1,47.7 74.3,47.7 71.3,47.5 69.2,47.8 69.1,47.7 69.9,42.7 71.2,35.1 72.2,29.5 73.1,24 73.8,19.9 
	74.8,14.3 75.6,9.5 72,9.5 65.8,9.5 58,9.5 50.4,9.5 44,9.5 43.4,13.4 42.9,16.8 42.4,20.7 38.9,20.7 35.2,20.6 35.4,21 36.6,21.7 
	38,23.5 39.5,26.2 41.6,28.3 44.1,29.9 45.7,31.5 46.4,33 46.7,34.3 46.5,35.4 47.4,36.3 49.2,36.8 50,37.8 49.9,38.6 49.1,40.4 
	48.6,42.3 48.6,44.1 47.3,44.1 44.2,44.2 39.4,44.2 35,44.2 31.5,44.2 26.3,44.2 24.5,46.9 21.5,51.5 18.8,55.6 16.5,59 16.1,60 
	16,60.7 17.8,63.9 17.3,64.9 16.5,65.4 16.1,66.1 16,67.4 15.3,69 15.3,70.2 15.4,71.6 14.8,72.8 14.3,73.9 13.8,74.4 20.3,80.7 
	23.1,83 27.4,85.5 31.3,86.7 40.7,86.7 42.8,87.2 49.2,90.5 49.1,89.6 49.2,88.5 50.3,87.2 52.4,85.3 53.7,84.4 54.3,84.2 
	55.1,84.3 55.9,83.7 56.7,82.5 57.5,81.6 59.4,80.8 59.8,80.5 59.7,79.8 59.5,78.4 59.7,77.5 60.3,77.1 61,77.1 62.5,76.7 
	63.1,76.8 63.4,77 63.9,76.1 65,74.7 67.1,73.2 67.5,72 67.2,69.6 66.9,68.1 67.2,67.4 68.2,64.6 68.7,64 71.8,62.6 72.1,62.4 
	74.6,60.4 77.4,58.3 80.3,55.9 83.6,53.2 85.4,51.6 86.2,50.9 "/>
</svg>
