<?xml version="1.0" encoding="utf-8"?>
<!-- Generator: Adobe Illustrator 18.1.1, SVG Export Plug-In . SVG Version: 6.00 Build 0)  -->
<svg version="1.1" id="Layer_1" xmlns="http://www.w3.org/2000/svg" xmlns:xlink="http://www.w3.org/1999/xlink" x="0px" y="0px"
	 viewBox="12.5 7.7 22 22" enable-background="new 12.5 7.7 22 22" xml:space="preserve">
<g>
	<path fill="#FFFFFF" d="M12.5,7.7v22h22v-22H12.5z M23.4,25.4c-0.5,0-0.7,0-1,0c-0.4,0-0.6-0.1-0.6-0.1s0.2,0,0.5-0.2h0
		c0.3-0.1,0.8-0.3,1.2-0.6c0.2-0.2,0.4-0.4,0.5-0.6c0,0,0-0.1,0-0.1c0.1-0.2,0.1-0.4,0.1-0.6c0-0.6-0.3-1.2-0.6-1.9
		c-0.1-0.2-0.2-0.3-0.3-0.5l-0.2-0.2l-0.2-0.2c-0.2-0.4-0.4-0.8-0.5-1.2c-0.2-0.8-0.2-1.7,0-2.4c0.1-0.4,0.3-0.6,0.5-0.8
		c0.2-0.2,0.4-0.4,0.5-0.5c0.2-0.1,0.3-0.2,0.4-0.2c0.2-0.1,0.2-0.1,0.2-0.1s-0.1,0.2-0.2,0.5c0,0.2-0.1,0.4-0.1,0.6
		c0,0.2,0,0.4,0,0.7c0,0.5,0.2,1,0.4,1.6c0.1,0.3,0.2,0.6,0.4,0.9l0.1,0.3l0.1,0.3c0.1,0.2,0.2,0.4,0.3,0.6c0.2,0.4,0.3,0.8,0.4,1.3
		c0.1,0.4,0.1,0.9,0,1.4l0,0c1.4-0.8,2.2-2.4,2.2-4.8c0-3.6-1.7-5.3-5.2-5.3h-1.8v7.3l0,0v4.9h-3.3v-1.4H19V13.4h-1.6v-1.4h4.9
		c4.8,0,7.1,2.2,7.1,6.7C29.5,22.8,27.5,25.2,23.4,25.4z"/>
</g>
</svg>
