<?xml version="1.0" encoding="utf-8"?>
<!-- Generator: Adobe Illustrator 18.0.0, SVG Export Plug-In . SVG Version: 6.00 Build 0)  -->
<!DOCTYPE svg PUBLIC "-//W3C//DTD SVG 1.1//EN" "http://www.w3.org/Graphics/SVG/1.1/DTD/svg11.dtd">
<svg version="1.1" id="Layer_1" xmlns="http://www.w3.org/2000/svg" xmlns:xlink="http://www.w3.org/1999/xlink" x="0px" y="0px"
	 viewBox="0 0 100 100" enable-background="new 0 0 100 100" xml:space="preserve">
<g>
	<path fill-rule="evenodd" clip-rule="evenodd" fill="#FFFFFF" d="M65.2,79.5l-0.1,0.1l0,0.2l0,0.5l0.1-0.1l0-0.1l0.1-0.3l0-0.3
		L65.2,79.5L65.2,79.5z M64.6,77.2L64.6,77.2L64.6,77.2l0.1-0.2l0-0.2l-0.1-0.1l-0.2,0.3L64.6,77.2z M70.4,71.2L70.4,71.2l-0.3,0.3
		l0.1,0.1l0.2,0l0.1,0.1l0-0.1l0-0.1l0-0.1L70.4,71.2L70.4,71.2z M72.3,69.8L72.3,69.8l-0.1-0.1l-0.1,0.1L72,69.9l0.1,0.1l0.2,0
		l0.1-0.1l0.1,0l-0.1-0.1L72.3,69.8z M80.8,48.2L80.8,48.2l0,0.2l0,0.1l0.1,0l0.1-0.1l0-0.2L80.8,48.2L80.8,48.2z M81.4,47l0,0.2
		l-0.2,0.2l0,0.1l0.1,0l0.3-0.2l0,0l0-0.1L81.4,47z M69.2,24.8l0-0.3l0,0l0-0.2l0,0l-0.1,0.1l0,0.1l0,0.2L69,25L69.2,24.8z
		 M68.3,21.3l0.1-0.1l0-0.1l-0.2,0L68.3,21.3l-0.1,0l0,0.1L68.3,21.3L68.3,21.3z M54.5,21.5l0.2,0l0.4-0.2l0.3-0.3l0.3-0.4l0.1,0
		l0.2-0.8l-0.2-0.3l-0.3,0.1l-0.2,0.2L55,20.1l0,0.5l-0.2,0.3L54.5,21.5z M59.2,18.7l-0.2,0l-1.2-0.3l-0.4,0.1l-0.4,0.3L57,19l0,0.2
		l0,0.1l0,0.1l-0.1,0.1l0,0.1l0,0.5l0,0.2l0.1,0.2l0.2,0l0,0.1l0,0.1l0,0l-0.1,0l-0.1,0L56.8,21l0.1,0.3l0.1,0.3l0.1,0.3l0,0.1
		l0.2,0.2l0.1,0l0.2-0.1l0.5,0l0.1-0.1l0.1,0l0.2,0.1l0.2,0.1l0.1-0.1l0.2,0l0.1-0.1l0.1-0.2l0-0.3l0.2,0.1l0.1,0.1l0.2,0l0.1-0.1
		l0-0.2l0-0.2l0.2,0.2l0.1,0l0.1,0l0.1,0l0.2-0.2l0.1-0.1l-0.1-0.1l0-0.1l0.1-0.1l0.1-0.1l0-0.1l0.2-0.3l0.1-0.2l0-0.1l0-0.1
		l-0.1-0.3l0.1,0l0.1-0.1l0.1-0.3l0.1-0.2l0.1-0.2l0-0.1l-0.1-0.1l-0.1-0.1l-0.1,0l-0.4,0l-0.7-0.1l-0.2,0l-0.2,0l-0.2,0.1
		L59.2,18.7z M56.3,18.8l0.2,0.1l0.5-0.4l0-0.1l0-0.1l-0.2,0l-0.2,0l-0.3,0.1l-0.1,0.1l0,0L56.3,18.8L56.3,18.8z M58.7,18.3
		L58.7,18.3l0.2,0.2l0.5-0.1l0.1-0.1l0-0.1l-0.1-0.1L59.3,18l-0.2,0l-0.2,0.1L58.7,18.3z M58.1,17.7l-0.3,0l-0.1,0.2l0,0.2l0.1,0
		l0.3,0l0.2,0.1l0.2,0l0.2-0.1l0.3-0.5l-0.1-0.1l-0.3-0.1L58.1,17.7z M57.5,17.9l0.2-0.3l0-0.3l0-0.4l0,0l0,0L57.5,17l0,0.3
		l-0.1,0.2l-0.1,0.2l-0.2,0.1l0,0.3l0.4,0.1L57.5,17.9z M58,17.3l0.2-0.3l0-0.2l0-0.1l-0.1,0l0,0l-0.3,0l-0.1,0.2l0,0.3l0,0.1
		L58,17.3z M57.6,14l0.2-0.1l0-0.1l-0.1-0.4l0,0l-0.1,0l-0.1,0.1l0,0.2l0.1,0.3L57.6,14z M88.5,34.7l0-0.2l-0.1-0.6l-0.1,0l0-0.2
		l-0.1-0.3l-0.1-0.9L87.9,32l-0.1-0.6l-0.2-0.8l-0.3-0.7l-0.2-0.2L87,29.7l-0.9-0.2l-0.4,0.1l-0.4,0l-0.4,0l-0.3-0.1l-0.2-0.2
		l-0.2-0.1l-0.4-0.1l-0.3-0.4l-0.6-0.3l-0.3-0.4L82,27.6L81.5,27l-0.2-0.2l-0.2-0.4l-0.4-0.1L80.3,26l-0.2-0.2l-0.7-0.4l-0.3-0.2
		L78.9,25l-0.3-0.2l-0.4-0.3l-0.5-0.1l-0.5,0l-0.8,0.2l-0.6,0l-0.2,0.1l-0.3,0l-0.3-0.1l-0.2-0.2l-0.3-0.1l-0.2,0.1l-0.5,0L73,24.2
		L72.8,24l-0.3-0.1l-0.2-0.1l-0.6-0.2l-0.3,0l-0.1,0.1l0,0.2l-0.5,0L70.5,24l-0.1,0l-0.2,0.1l-0.3,0.4l-0.1-0.1l0.1-0.1L70,24l0-0.1
		l0-0.1l-0.1,0l-0.1,0l-0.2,0.1l-0.1,0.5l-0.1,0.5L69,25.2l-0.2,0.1l0-0.1l0.1-0.8l0.1-0.2l0-0.2l0.1-0.1l0.1-0.1l0-0.2l0.3-0.1
		l0-0.2l-0.1-0.2l-0.2,0l-0.1,0.1l-0.2,0.3l-0.1-0.1l-0.1-0.1l0.1-0.1l0.1,0L69,23l0.1-0.1l0.1-0.1l0-0.2L69,22.3l-0.1-0.2l-0.1,0.1
		l-0.1,0l0.1-0.1l-0.1,0L68.5,22l-0.2-0.2l-0.2-0.2l-0.1-0.1l-0.2,0.1l-0.1,0.3L67.7,22l-0.1,0l-0.1-0.3l-0.2-0.5l-0.2-0.1l-0.2,0
		L66.7,21l-0.4-0.1l-0.1-0.2l-0.2,0l-0.1,0l0-0.2l-0.2,0l-0.2,0l-0.2-0.1L65,20.4L65,20.3l-0.2-0.2L64.6,20l-0.2,0l-0.1-0.1l-0.2,0
		l-0.2,0l-0.1-0.1l-0.1-0.1l-0.3,0l-0.1,0l0,0.1l0.1,0.1l0,0.1l-0.1,0l-0.2-0.2L63,19.8l-0.1,0l-0.1,0l-0.1-0.1l-0.1,0l-0.1,0.1
		l-0.2,0.2l-0.1-0.1l-0.1,0l-0.1,0.1l0,0.1l-0.1,0.1l-0.1,0.1l-0.1,0.1l0,0.2l-0.3,0.2l0.1,0.2l-0.1,0.2l0,0.2l0,0.1l0.2,0.1
		l-0.2,0.1l0,0.2l-0.1-0.1l-0.1-0.2l-0.2,0l-0.5,0.8L60,22.4l-0.1,0.1l-0.4,1l-0.1,0.4L59.3,24l-0.1,0.1l-0.1,0.1l0.1-0.2l0.1-0.1
		l0.1-0.5l0.1-0.2l0.1-0.5l0.2-0.5l-0.5,0.3l-0.3,0.1l-0.4-0.1l-0.2-0.1l-0.2,0.1L58,22.5l-0.2,0.1l-0.3,0.2l-0.4-0.4l-0.1-0.1
		L57,22.2l0-0.1l0-0.1l-0.2-0.3l-0.1-0.3l0-0.1l0-0.2l-0.1-0.1l0-0.1l0.2-0.2l0-0.1l-0.1-0.1l-0.2,0.1l-0.1,0.1L56,20.8L55.8,21
		l-0.5,0.3l-0.2,0.1l-0.6,0.4L54,21.9l-0.2-0.2l-0.7,0l0.2-0.1l0.6-0.3l0.4,0.1l0.1-0.1l0.1-0.1l0-0.3l0.2-0.1l0.2-0.2l0-0.4l0-0.2
		l0.3-0.5l0.1-0.1l0.2-0.3l0.2-0.5l0-0.2l0.4-0.1l0.3-0.4l0.1-0.1l0.2,0l0.1-0.1l0.3-0.4l0.2-0.5l0.2-0.3l0.1-0.2l0.4-0.4l0-0.1
		l0.2-0.2l0.1-0.1l0-0.2l0.1-0.3l-0.1-0.5l-0.2-0.2L58,14.2l-0.2,0l-0.3-0.1l-0.1-0.2l-0.1-0.2l-0.1-0.2l-0.1-0.1l-0.1,0l0.1-0.1
		l0-0.1l-0.1-0.4l-0.1-0.2l0-0.2l0-0.2l-0.3-1l-0.1-0.5l0-0.9L56,9.1l-0.2-0.3l-0.3-0.2l-0.2,0l0,0.2l-0.2,0.4l-0.1,0L55,9.3
		l-0.1,0.1l0,0.1l-0.1,0.1l-0.1,0.1l0,0.1L54.5,10l0,0.1l-0.2,0.4l-0.1,0.2L54,10.9L53.9,11l-0.1,0.1l-0.1,0.1l0,0.1l-0.1,0.2l0,0.2
		l-0.1,0.1l-0.2,0.5l0,0.2l0,0.1l-0.1,0.2L53,12.9L52.9,13l-0.2,0.1l-0.1,0.1l-0.1,0.1l-0.1,0l-0.1,0l-0.2,0l-0.1,0l0-0.1l-0.1-0.1
		L51.8,13l-0.1,0l-0.1,0.1l-0.2,0.1l-0.1,0l-0.2-0.1l-0.1,0l0-0.1l0,0l-0.1,0l-0.1,0.1l-0.1,0.1l-0.1,0.1l-0.3,0.2l-0.1,0.1l-0.1,0
		l-0.1,0l-0.1,0l-0.3-0.1l-0.2-0.1l-0.1-0.1l-0.1,0l0,0l-0.1,0L49.1,13l0-0.1l0-0.1l-0.1,0l-0.2,0l0,0l-0.1-0.1l-0.1-0.1l0-0.1
		l-0.1,0l-0.1,0.1l-0.1,0l-0.1,0l-0.1,0L48,12.6l-0.1,0l-0.1,0.1l-0.5,0l-0.1,0l-0.3-0.2l-0.1-0.1l0,0l0,0l0,0l-0.1,0.2l0,0.1
		L46.4,13l-0.1,0.1l0,0.1l0.1,0l0.1,0.2l0.1,0.1l0.1,0.1l0,0.1l0,0.2l-0.1,0.1l-0.1,0L46.1,14l-0.3-0.1l-0.1,0l-0.1,0l-0.1,0l-0.1,0
		l-0.1,0l-0.1,0L45,14l-0.1,0l-0.3-0.1l-0.1,0l-0.1,0l-0.1-0.2l-0.1,0l-0.1,0.1l-0.2,0l-0.1,0l-0.1,0.1L43.7,14l-0.2,0.3l-0.1,0.1
		l-0.1,0l-0.2,0l-0.2,0l-0.2,0.1l-0.1,0l-0.1,0l0,0.2l0,0.1l0,0l-0.1,0l-0.1,0l-0.1-0.1l-0.1,0l-0.1,0l-0.1,0l-0.1,0l0,0.1l0,0.1
		l0,0.1l-0.2,0L41.6,15l0,0.2l0,0.1l0,0.1l-0.2,0l-0.2,0l-0.1,0.1L41,15.5l-0.1,0l-0.1,0l-0.1-0.1l-0.1-0.1l-0.3-0.1l-0.3-0.1L40,15
		l0-0.1l-0.1,0l-0.2-0.2l-0.1-0.2l-0.1,0l-0.1-0.1l0-0.1l0-0.1l-0.1,0l-0.1,0l0-0.1l0-0.1l0-0.4l0-0.3L39,13l-0.1-0.1l-0.1-0.5
		l-0.1-0.2l0-0.2l0.1-0.5l0.1-0.2l0.2-0.4l0.1-0.1l0-0.1l0-0.1l0-0.3l0.2-0.2l0.1-0.1l0-0.1l0.1-0.1l0.1-0.1l0.1-0.1l0-0.1l-0.1,0
		l-0.1-0.1l-0.1-0.3l0-0.1l0-0.1l0-0.1l0.1-0.1l0-0.1l-0.1-0.1l-0.2-0.1l-0.1,0l-0.1,0l-0.2,0l-0.1,0l-0.1,0l0-0.1l0-0.1l0.1-0.2
		l0.1-0.2l0-0.2l0-0.2l0-0.2l0-0.2l-0.2-0.1l-0.1-0.1l-0.1-0.1h-0.1l-0.1,0l-0.2,0.1l-0.1,0l-0.1,0l-0.2,0l-0.1-0.1l-0.2,0l0.1,0
		l0.1,0.1l0.1,0.2l0.1,0.2l0,0.1l-0.1,0.1l-0.1,0.1l-0.1,0.1l-0.2,0.1L37,7.8L36.9,8l-0.1,0.1l-0.1,0l-0.1,0l-0.2,0l-0.1,0l-0.2,0.2
		l-0.2,0.1l-0.2,0.3l-0.5,0.2L34.6,9l-0.1,0.1L34,8.9l-0.1,0l-0.1,0.1l-0.1,0.1l-0.1,0l-0.1,0l-0.1,0.2L33.3,10l-0.2,0.2l-0.2,0
		L32.7,10l-0.2-0.2l-0.3-0.4l-0.1,0l-0.1,0l-0.3,0.1l-0.1,0l-0.1-0.1l-0.2,0l-0.3,0l-0.2,0l-0.1-0.1l-0.1-0.2l-0.1-0.1L30.5,9
		l-0.1,0l-0.5,0l-0.1,0l-0.1,0l-0.1-0.2l-0.1-0.1l-0.1,0l-0.1,0.1l0.2,0.3l0.1,0.2l0.2,0.3l0.6,0.5l0.1,0.2l0,0.2l0,0.3l0,0.3
		l0.1,0.4l0.2,0.5l0.1,0.3l0,0.2l0,0.1l0,0.1l0,0l0.2,0.1l0.4,0l0.3,0l0.4,0l0,0.2l0,0.3l-0.1,0.1l-0.1,0l-0.2,0l-0.2,0.2l-0.3,0.2
		l-0.2,0l-0.1,0l-0.1,0L30.7,14l-0.1,0.3l-0.1,0.3l-0.2,0.2L30.1,15l-0.2,0l-0.2,0l-0.1,0l-0.1,0.1l-0.2,0.2l-0.1,0.1l-0.2,0
		l-0.2,0.1l-0.2,0.1l-0.2,0.1l-0.1,0.2l-0.2,0.2L28,16.3l-0.1,0.2l-0.1,0.2l-0.2,0l0-0.1l0.1-0.2l-0.1-0.2l-0.2-0.1l-0.1,0l-0.1,0
		l-0.2,0.1l-0.2,0.2l-0.1,0.1l-0.1,0.1l-0.3,0l-0.2,0l-0.1,0l-0.2-0.1L25.6,16l-0.5-0.5l-0.4,0.1l0,0l0-0.1l0-0.4l0-0.5l-0.1-0.2
		l-0.2-0.3l-0.2-0.4l-0.1-0.1l-0.1-0.1l-0.1,0l-0.1,0l-0.1,0.1l-0.1,0.1l-0.2,0.3l-0.2,0.3l-0.1,0.1l-0.1,0l-0.1,0l-0.1-0.1
		l-0.1-0.2l-0.1-0.2l-0.1-0.1l0,0.1l0,0.1l0,0.1l0.1,0.2l0.1,0.1l-0.1,0l-0.4,0l-0.5,0l-0.5,0l-0.4,0l-0.4,0l-0.1,0L20,14.3l-0.1,0
		l-0.1,0l-0.1,0.1l-0.2,0l-0.1,0.1l-0.1,0l0,0.4l0,0.5l0,0.6l0.1,0l0.1,0l0.1,0l0.2,0l0.1,0l0.1,0l0.1,0l0.1,0l0.1,0l0.1,0l0.1,0
		l0.1,0.1l0.1,0.1l0.1,0.1l0.1,0.1l0,0.1l0,0.1l0,0.1l0,0.1l0,0.1l0,0l0,0l-0.1,0l-0.1,0l-0.1,0l0-0.1l0,0l-0.1,0l-0.1,0L20,16.7
		l-0.1-0.1l-0.1,0l-0.1,0l-0.1,0l-0.1,0l-0.1,0l-0.1,0l-0.1,0.1l-0.1,0l-0.1,0l-0.1,0l-0.1,0l-0.1,0l0,0.3l0,0.6l0,0.4l0,0.4
		l0.1,0.1l0.2,0.3l0.2,0.1l0.2,0.2l0.2,0.1l0.1,0.1l0,0.1l0,0.1l0,0.1l0,0.1l0,0.1l0,0.1l0.1,0.1l0,0.1l0,0.1l0,0.1l0,0.1l0.1,0
		l0.1,0.1l0,0.1l0,0.1l0,0.1l0.1,0.1l0,0.1l0,0.1l0,0.4l-0.1,0.4l0,0.3l-0.1,0.6l-0.1,0.6l-0.1,0.8L19.5,25l-0.1,0.8l-0.1,0.7
		l-0.1,0.8l-0.1,0.5l0,0.1l0,0.1l-0.1,0.1l-0.1,0l-0.2-0.1l-0.1,0l-0.1,0l-0.2-0.1l-0.1-0.1l-0.1-0.1l-0.2,0l-0.2,0l-0.2,0l-0.2,0
		l-0.1,0.1l-0.1,0.1l-0.1,0.1L16.8,28l-0.2,0l-0.2,0.1l-0.2,0l-0.2,0.1l-0.3,0l-0.3,0l-0.2,0.1l-0.1,0L15,28.6l-0.3,0.2l-0.2,0.1
		l-0.2,0.3L14,29.4l-0.2,0.1l-0.3,0.1l-0.1,0.1l0,0.1l0,0.1l0,0.2l-0.1,0.4l0,0.2l0,0.1l-0.2,0.3L13,31.5l-0.1,0.2l0,0.2l0.1,0.1
		l0.1,0.2l0.1,0.2l0,0.1l0,0.1L13,32.8l-0.1,0.1l-0.2,0l-0.3,0.2L12,33.5l-0.1,0.2l0,0.2l0,0.2l0,0.1l0.1,0.1l0.1,0.2l0,0.1
		l-0.1,0.1l-0.1,0l-0.1,0l-0.1,0.1l-0.1,0l-0.1,0l0,0.1l0,0.1l0,0.1l0,0.1l0,0l0,0.1l0.1,0.1l0.1,0.1l0.2,0.2l0.1,0l0.1,0.1l0,0.1
		l0,0.1l-0.1,0l0,0.1l0.1,0.1l0.1,0.1l0.1,0.1l0.1,0.2l0,0.1l0.1,0.1l0.1,0.1l0,0.1l0.1,0.1l0.1,0.1l0.1,0.1l0.1,0l0,0.1l0,0.1
		l0.1,0.2l0.2,0.1l0.2,0.2l0.1,0.2l0.2,0.2l0,0.3l-0.2,0.3l-0.2,0.3l0.4,0l0.4,0l0.4,0.1l0.3,0.1l0.2,0l0.1,0.1l0.1,0.2l0.1,0.1
		l0,0.2l0.2,0.2l0,0.1l0,0.2l0.1,0l0.5,0l0.5,0l0.5,0l0.2-0.1l0.2-0.3l0.1-0.1l0.1-0.1l0.2-0.2l0.1-0.1l0.1-0.1l0.2-0.1l0.1-0.1
		l0.1,0l0.1-0.1l-0.1,0.1l0,0.1l0,0.2l0.1,0.2l0,0.1l-0.1,0.1l0,0.3l0,0.5l0,0.4l0,0.5l0,0.6l0,0.4l0.1-0.1l0.1-0.1l0.2,0.2l0.1,0.1
		l0.1,0l0.1,0l0.1,0l0.3-0.1l0.2-0.1l0.2,0l0.3,0l0.2,0l0.2,0l0.5,0l0.5,0.1l0.3,0l0.1,0.1l0,0.1l0.1,0.1l0.1,0l0.1,0l0.2-0.1
		l0.2-0.1l0.2-0.1l0.1-0.1l0.2-0.3l0.2-0.2l0.2-0.1l0.3,0l0.1,0.1l0.1,0l0.1-0.2l0.2-0.2l0.3-0.3l0.2-0.1l0.1-0.1l0.2,0l0.1-0.1
		l0.7-0.7l0.3-0.2l0.2,0l0.2,0l0.3-0.1l0.7-0.1l0.4,0l0.1,0.1l0.2,0l0.1-0.1l0.1,0l0.1,0l0.1,0.2l0.1,0.2l0,0.1l0,0.2l0.1,0.3l0,0.2
		l-0.1,0.3l-0.1,0.1l0,0.1l0,0.2l0.1,0.3l0.2,0.4l0,0.3L28.9,43l0,0.2l0,0.1l0,0.1l0.1,0.1l0,0.1l0,0.2l0.1,0.2l0.2,0.2l0.1,0.1
		l0,0.1l0,0.1l0,0l0,0l0.1,0l0,0l0.1,0.2l0,0l0.1,0.2l0,0.1l0.2,0.1l0.2,0.1l0.1,0.1l0.2,0.2l0.2,0.1l0.2,0.1l0.1,0.2l0.1,0.3
		l0.3,0.1l0.4,0l0.2,0.1l0.3-0.1l0.2,0l0.2,0.1l0.1,0.1l0.2,0.1l0.2,0.2l0.2,0.1l0.1-0.1l0.1,0l0.1,0l0.1,0.2l0.1,0.1l0.1,0.1
		l0.3,0.2l0.1,0.1l0.2,0l0.3,0.2l0.3,0.2l0.2,0l0.2,0l0.1,0.1l0.1,0.2l0.3,0.4l0.1,0.1l0.2,0.1l0.4,0l0.1,0l0.2,0l0.6-0.1l0.1,0
		l0.3,0.2l0.4,0.2l0.3,0.2l0.2,0.1l0.1,0.2l0.1,0.2l0,0.2l0,0.2l-0.1,0.1l0,0.1l0,0.2l0.1,0.2l0.1,0.2l0.1,0.3l0.1,0.1l0.1,1l-0.3,0
		l-0.4,0L39,52l0.3,0.4l0.3,0.4l0.1,0.6l0.1,0.4l0.1,0.5l0.1,0.3l0.7,0l0.8,0l0.9,0l0.8,0l0.1,0l0.1,0l0.1-0.1l0.1,0l0,0.1l0,0.2
		l0,0.2l-0.2,0.4l0,0.1l0.1,0.5l0.1,0.4l0.1,0.3l0.1,0.1L44,57l0.4,0.3l0.2,0l0.1,0l0.1,0.1l0,0.2l0.3,0.6l0.2,0.4l0.1,0.1l0.1,0.1
		l0,0.1l-0.1,0l0,0.1l-0.1,0.4L45.2,60l-0.1,0.4l0.1,0l0,0.1l0,0.2l-0.1,0l0,0.1L45,61.1l-0.1,0.4L44.7,62l-0.1,0.3l0.2,0.2l0.4,0.3
		l0,0.1l-0.1,0l-0.1,0l-0.1,0.1l0,0.1l-0.1,0l0.1,0.2l0,0.1l0.1,0.1l0.1,0.1l0.1,0.1l0.1,0.1l0,0.1l0,0.2l0,0.1l0,0l0.1,0l0.1,0.1
		l0,0.1l0,0.1l0,0.1l0,0.1l0,0.1l0.1,0l0.1,0.2l0,0.3l0,0.2l0,0.1l0,0.1l0.1,0.1l0,0.1l-0.1,0.2l0,0.1l0,0.1l0,0.1l0,0.1l0,0.1
		l0,0.1l0,0.1l0,0.1l0,0.1l0,0.1l0,0.1l0.1,0.1l0.2,0.1l0.1,0l0.1-0.1l0.1,0l0.2,0.1l0.2,0.1l0.2,0l0.2,0l0.1,0l0.2,0l0.2,0l0.2,0.1
		l0.2,0.1l0.2,0l0.1,0l0.1-0.1l0.1,0l0.1-0.1l0-0.1l0-0.1l0.1-0.1l0.1,0l0.1,0.2l0.2,0.1l0.1,0.1l0.1,0l0.2,0l0.1,0l0.2,0.1h0.1
		l0.1,0.1l0.1,0.1l0,0.2l0.1,0.2l0.1,0.1l0.1,0.1l0,0.2l0,0.2l0,0.2l0.1,0.2l0,0.2l0.1,0.2l0.1,0.1l0,0.2l0,0.2l0.1,0.1l0,0.1l0,0.1
		l0,0.1l0,0.1l0,0.1l0.1,0.1l0.1,0.2l0,0.2l0.1,0.2l0.1,0.1l0.2,0l0.2,0l0.2,0l0.2-0.1l0.1-0.1l0.2-0.1l0.2-0.1l0.1-0.1l0.1,0
		l0.2,0.1l0.2,0.1l0.2,0.2l0.3,0.2l0,0l-0.1,0.1l0,0.2l0.1,0.2l0,0.5l-0.1,0.8l0,0.4l0,0.1l0,0.2L52.9,75l0,0.3l0.1,0l0.1,0.1l0.1,0
		l0.1-0.1l0.1,0l0.2,0l0.1-0.1l0.1,0l0.1,0l0.1,0.1l0.1,0l0.1,0.2l0.1,0l0.1,0.2l0.1,0.5l0.2,0.3l0.2,0.3l0,0.1L54.8,77l0,0.2l0,0.5
		l0,0.2l0.1,0.1l0,0.2l0,0.2l-0.1,0.3l-0.1,0.1l0,0L54.5,79l-0.1,0.1l-0.1,0l-0.1,0.1l-0.1,0.2L54,79.4l-0.2,0.1l-0.1,0l-0.1,0
		l-0.1,0.1l-0.1,0.1l-0.1,0l-0.1,0l-0.1,0L53,79.8l0,0.1l0,0.1l-0.1,0.1l-0.2,0l0,0.1l0,0.1l-0.1,0.1l-0.3,0.1l-0.2,0.1l-0.1,0.2
		l-0.1,0.1L51.9,81l-0.2,0.2l0,0.1l0.1,0.1l0.1,0.1l0,0.1l-0.1,0l-0.2-0.1l-0.1,0l-0.1,0l0,0.1l0,0.1l0,0.1l-0.1,0l-0.1,0.1l0,0.1
		l-0.1,0.2l-0.2,0.2l-0.1,0.3L50.6,83l-0.1,0.2l-0.2,0.1l-0.1,0.1l0,0.2l-0.1,0.3l-0.2,0.4l-0.2,0.3l-0.2,0.1l-0.1,0.2l0,0.2
		l-0.1,0.2l-0.3,0.2l-0.1,0.1l0.1,0.2l0.3,0l0.3,0l0,0l0.1-0.3l0.2-0.1l0.2,0l0.2,0l0.2,0.2l0.7,0.6l0.5,0.4l0.2,0.2l0.1,0.1
		l0.1,0.1l0,0.3l0,0.2l0,0l0.1,0l0.1,0l0.1-0.1l0.1-0.1l0.1-0.1l0.1,0l0-0.1l0-0.1l0,0l0.1,0.1l0.2,0.2l0.2,0.2l0.1,0.1l0.1,0.1
		l0.1,0.1l0.1,0.1l0.2,0.1l0.2,0.1l0.1-0.1l0.3,0.2l0.6,0.2l0.1,0.1l0.1,0.2l0.3,0.3l0.3,0.2l0.2,0.1l0.2,0.1l0.1,0.1l0.1,0.1
		l0.2,0.1l0.1,0l0,0.1L57,90l0.1,0.3l0.1,0.2l0.3,0.2l0.3,0.2l0.3,0.1l0.2,0.1l0.1,0.1l-0.1,0.2l-0.1,0.2L58,91.9L57.8,92l0,0.1
		l0,0.1l0.2,0.7l0,0.3l0,0.1l0,0l0.1,0.1l0.1,0.1l0.1,0l0.7-0.8l0.2-0.3l0.1-0.3l0.2-0.6l0.1-1l0.1-0.3l0.1-0.2L60,90l-0.1-0.2
		l-0.1-0.3l0-0.2l0.1-0.4l0.1-0.2l0-0.2l0-0.2l0.1-0.1l0.4-0.2l0.3-0.3l0.1-0.1l-0.1-0.2l0-0.1l0.1-0.1l0-0.4l0.1,0.1l0.1,0.1
		l-0.1-0.4l0-0.3l0.1-0.1l0-0.1l-0.3-0.3l-0.1-0.2l0-0.2l0.1,0.1l0.1,0.1l0.1,0.2l0.3,0.1l0.1,0.2l0.2,0l0.5-0.3l0.2,0l0.1,0.1
		l0,0.3l-0.1,0L62,86.1l-0.1,0l0.2,0.6L62,87l-0.3,0.2l0,0.2l0,0.1l0,0.1l-0.2,0l-0.1,0.1l0.1,0.3l0,0.2l-0.1,0.3L61,88.6l-0.4,0.5
		l-0.2,0l-0.1,0.1l-0.1,0.1l-0.2-0.1l-0.1,0l0,0.2l0.1,0.1l0,0.2l0.1,0.1l0.2-0.3l0.2-0.2L61,89l0.5-0.5l0.3-0.5l0.3-0.4l0.2-0.4
		l0.4-1l0.3-1.4l0.4-1l0.4-0.6l0.4-0.5l0.4-0.4l0.4-0.3l0-0.3l0.2-0.3l0.1-0.2l0-0.3l-0.1-0.6l-0.2-0.6l0.1-0.4l-0.1-0.2l0.1-0.2
		l0-0.2l-0.1-0.1l-0.1-0.4l-0.2-0.4l0-0.2l0-0.2l0-0.3L64.4,77l-0.1-0.2l0.1-0.1l0.1,0l0.1-0.1l0-0.5L64.5,76l-0.1,0l0-0.1l0.2-0.1
		l0.2-0.5l-0.1-0.1l-0.2-0.1l-0.4-0.1l-0.1-0.3l0.2,0.2l0.2,0l0.2,0l0.1-0.1l-0.1-0.2l0.1-0.1l0.3,0.1l0.2,0l-0.1,0.2l0.1,0l0.3-0.4
		l0.2-0.2l0-0.2l-0.1,0l-0.1-0.1l0.1-0.1l0.1,0l0.1-0.1l0.4-0.4l0.8-0.6l0.5-0.6l0.4-0.3l1.2-0.7l0.2-0.1l0.3,0l0.3,0.1l0.1,0l0-0.1
		l0-0.2l0.2-0.2l0.2-0.1l0.5-0.4l0.5-0.1l0.1,0l0.1-0.1l-0.1-0.1l-0.1,0l0-0.2l0.1-0.1l0.5-0.1l0.4,0l0.2-0.1l0.3-0.1l0.3,0.1
		l0.1,0.1l-0.2,0.1l-0.2,0l-0.1,0l0.2,0.1l0.3-0.1l0.4,0l0.3-0.1l0.3,0l0-0.1l0-0.1l-0.1-0.1l0-0.1l0-0.1l0.1-0.1l0.1,0l0,0.1
		l-0.1,0.2l0,0.1l0.1,0.1l0.1,0.1l0.2,0l0.5-0.1l0.9,0l0.2,0l0.1-0.2l0.1-0.1L76.5,69l0-0.2l0-0.1L77,68l0.2-0.1l0.9-0.4l0.2-0.2
		l0-0.2l-0.1-0.7l0,0l-0.1-0.2l0.1-0.6l0.2-0.5l0.1-0.3l0.1-0.1l0.2-0.1l0.4-0.5l0.1-0.3l0-0.3l0.2-0.2l0.1-0.5l0.2-0.5l0.3-0.2
		l0.1-0.2l0.1-0.3l0-0.4l-0.2-1l0-0.5l0.1-0.9l0.3-0.6l0.1-0.2l0.2-0.2l0.2-0.3l0-0.1l-0.1-0.7l0-0.3l0.1-0.3l0-0.6l0.1-0.6l0.2-0.7
		l0.1-0.7l0,0L81.2,53l-0.1-0.7L81,51.6l-0.1-0.6l0.2-1.4l-0.1-0.1l-0.1,0.2l-0.1-0.1l0-0.1l0-0.5l0.1-0.2l0-0.1l0-0.1l-0.1-0.1
		l-0.1,0.1l0-0.2l0.1-0.3l0.1-0.2l0.2-0.3l0-0.3l0.1-0.3l0-0.1L81,46.8l0.1,0l0.1-0.1l0.1-0.3l0.1,0l0.3,0.3l0.1,0.4l0.1,0l0.1,0
		l0.3-0.3l0.4-0.6l0.1-0.3l0.5-0.8l0.4-1l0.1-0.3l-0.1-0.2l0.1-0.3l0.1-0.1l0,0.1l0,0.1l0,0.1l0,0.1l0.1-0.1l0.2-0.4l0-0.3l0.1,0
		l0.1-0.1l0.3-0.5l0.3-0.3l0.3-0.2l0.4-0.2l0,0l0.3-0.6l0.3-0.3l0.3-0.5l0.1-0.2l-0.1-0.2l0.1,0.1l0.1,0l0.3-0.4l0.5-0.7l0.3-0.7
		l0.3-1.2l0.1-0.7l0.1-0.3l0-0.2l-0.1-0.3l0-0.1l0-0.1l0-0.1l0-0.1L88.5,34.7z"/>
</g>
</svg>
