<?xml version="1.0" encoding="utf-8"?>
<!-- Generator: Adobe Illustrator 18.0.0, SVG Export Plug-In . SVG Version: 6.00 Build 0)  -->
<!DOCTYPE svg PUBLIC "-//W3C//DTD SVG 1.1//EN" "http://www.w3.org/Graphics/SVG/1.1/DTD/svg11.dtd">
<svg version="1.1" id="Layer_1" xmlns="http://www.w3.org/2000/svg" xmlns:xlink="http://www.w3.org/1999/xlink" x="0px" y="0px"
	 viewBox="0 0 100 100" enable-background="new 0 0 100 100" xml:space="preserve">
<polygon fill-rule="evenodd" clip-rule="evenodd" fill="#FFFFFF" points="84.3,56.9 84,56.8 82.5,56.2 80.7,55.5 78.4,54.6 76.7,54 
	75,53.4 73.2,52.7 71.8,52.2 70.1,51.6 68.6,51 68.4,50.9 67.5,50 66.4,48.9 66.2,48.9 65.7,48.6 65.2,48 64.7,47.3 64.2,46.3 
	64,45.6 63.4,45.4 63.1,44.8 62.5,44.1 62.2,43.7 62,43.4 61.8,42.7 61.5,42 61.2,41.5 61.1,41.3 61.1,41.2 61.7,40.2 61.9,39.8 
	62.2,39.5 62.4,39.2 62.5,38.9 62.1,38.9 61.7,38.9 61.5,38.7 61,38.4 60.5,38.4 60,38.6 59.2,38.9 58.5,39 57.9,39.1 57.4,39.3 
	56.9,39.2 56.5,39 56.4,37.8 56.3,36.4 56.3,35.4 56.4,34.8 56.5,34.6 57.2,33.8 57.4,33.4 58.2,32.1 58.9,31 59.4,30.1 58.9,29.5 
	58.5,28.9 58,28.3 57.5,28 57,27.6 56.5,26.7 56,25.8 55.2,25 53.8,23.9 52.5,22.5 51.5,21 50.8,20.2 50.6,20 49.3,19.5 48.3,18.9 
	47.6,18.3 47.2,18.2 46.8,18.1 45.9,18.3 45.2,17.9 44.9,17.9 44.4,17.8 44,17.7 43.5,17.8 42.6,18.1 42.2,18 42,17.7 41.9,17.4 
	41.6,17.1 41.3,17.1 41.2,17.4 40.2,18 38.6,18.4 38.2,18.3 37.9,18.1 37.1,17 36.8,16.8 36.7,16.8 36.3,16.7 35.9,16.5 35.6,16 
	35.3,15.8 35,16.6 34.4,18.2 34.1,19 33.7,20 33.6,20 33.4,20 32.6,18.7 32,18.2 31.7,18.2 31.4,18.5 31.2,18.9 31.1,19.2 
	30.9,19.3 30.4,19.2 29.7,19 29,19.1 28.3,19.3 28.2,19.4 27.8,21 27.9,21.8 27.6,23.1 27.4,23.7 27.2,24.1 27,24.5 26.7,25.3 
	26.5,26.3 26.4,27.4 26.4,28.1 26.4,28.4 26.3,28.5 25.6,28.7 24.8,28.8 24.3,28.9 24,29.2 23.6,29.7 22.9,31.1 22.5,32 21.9,33.2 
	21.2,34 21,34.4 20.9,35.2 20.7,36.4 20.4,37.3 20.5,37.9 20.3,39.1 20.3,39.7 20.1,40.1 19.7,40.4 19.5,40.4 19,40.1 18.6,39.7 
	18.4,39.6 18.1,39.9 17.7,40.2 17.2,41 16.9,41.7 17.1,43.4 17.1,43.8 17,44.2 16.5,45.4 16.3,45.8 16.2,46.5 16,47.8 16,48.2 
	16,48.4 16,49.6 16.1,50.7 16.1,52.4 16.2,52.9 16.1,53.4 16,53.7 15.7,54 15.4,54.3 14.5,54.3 13.8,54.3 13.2,54.3 12.5,54.2 
	11.8,54.3 11.6,54.6 11.2,55.4 10.7,56.7 10.5,57.2 10.4,57.5 10.5,57.7 10.8,58 11.6,58.4 12.5,58.6 13.1,58.7 13.6,58.8 
	13.9,58.9 15.2,59.9 15.6,60.3 15.8,60.7 15.9,61.2 16.1,61.6 16.8,62.4 17.2,62.9 18.3,63.5 18.7,64.3 19.2,64.6 19.5,65 
	19.7,65.5 20.2,67.1 20.6,68 20.9,68.7 21,69.8 21.3,70.3 21.6,70.9 22,71.5 22.5,71.9 22.6,72 22.5,72.2 22.6,72.5 22.7,72.6 
	22.9,72.8 23.2,72.6 23.4,72.5 23.6,72.4 25.1,72.9 25.4,73.3 25.3,73.7 25.4,74 25.3,74.3 25.2,75.2 25.2,76.1 25.7,76.7 
	26.1,77.2 26.4,77.9 26.6,78.1 26.9,78.3 28,78.3 29.4,78.3 30.9,78.4 31,78.4 31.3,78.5 32.6,79.4 33.9,80.3 34.9,81 35.9,81.8 
	36.9,82.5 37.6,83.1 38.4,83.2 39.6,83.3 40.4,83.4 41.2,83.6 42.3,83.8 43.2,83.9 43.7,84.1 45.1,84.2 45.3,84.1 46,83.5 
	46.6,82.4 46.9,81.8 47.8,81.3 49.4,80.5 50.5,79.9 51.8,79.3 52.4,79.8 53.2,80.6 53.5,81 53.8,81.2 54.2,81.3 54.7,81.3 55,81.3 
	55.6,81.2 57,81.1 57.7,81.1 57.9,80.8 58.5,80.1 59.5,79.7 60.2,79.7 62.5,79.2 62.9,79 63.1,78.8 63.2,78.3 63.7,77.6 64.3,77.1 
	65.4,76.4 66.4,75.9 66.7,75.8 68,75.5 68.3,75.4 68.8,75.2 69,75.2 70.8,75.4 72.2,75.5 73.7,75.5 73.9,75.5 74.9,74.2 76.5,72.2 
	77.5,70.9 79,69 80.2,67.5 81.6,66 82.9,64.5 84.4,62.8 85.4,61.7 86.9,60 88.3,58.4 89.6,56.9 "/>
</svg>
