<?xml version="1.0" encoding="utf-8"?>
<!-- Generator: Adobe Illustrator 18.0.0, SVG Export Plug-In . SVG Version: 6.00 Build 0)  -->
<!DOCTYPE svg PUBLIC "-//W3C//DTD SVG 1.1//EN" "http://www.w3.org/Graphics/SVG/1.1/DTD/svg11.dtd">
<svg version="1.1" id="Layer_1" xmlns="http://www.w3.org/2000/svg" xmlns:xlink="http://www.w3.org/1999/xlink" x="0px" y="0px"
	 viewBox="0 0 100 100" enable-background="new 0 0 100 100" xml:space="preserve">
<path fill="#FFFFFF" d="M80.9,79.3l-0.1-0.1l0,0.2l-0.1,0.1l0.1,0.1l0.1-0.1l0-0.1L80.9,79.3z M80.7,75.1l0-0.3l-0.1,0l0,0l0,0.1
	l0,0.4L80.7,75.1z M81.5,76.1l-0.1-0.9l-0.2-0.3l0.1-0.1l0.1-0.3l0.1-0.1l0.1-0.2l0-0.2l0-0.1l-0.2-0.3l0.1-0.2l0-0.1l0-0.3l-0.1,0
	l-0.3,0.2l-0.1,0.4l0,0.4l-0.1,0.6l0.1,0.1l0,0.4l-0.1,0.2l0,0.1l0.1,0.3l-0.1,0.2l0,0.2l0,0.6l0,0.1l0.1,0.1l0,0.2l0,0l-0.2,0
	l0,0.1l-0.1,0.2l0,0.3l0,0.2l-0.1,0.1l-0.1,0.2l0.1,0.1l0.1,0.3l0.3,0.5l0.1,0.1l0.1-0.1l0.1-0.3l0-0.4l0.1-0.3l0-0.1L81,77.9
	L81,77.7l0.1-0.1l0-0.1l0.2-0.3l0-0.1l-0.1-0.6l0.2-0.1L81.5,76.1z M80.6,81l-0.2,0.1l-0.2,0.2l0,0.1l0.1,0.3l0,0.3l0.3,0.1l0.1-0.1
	l0.2-0.4l-0.1-0.3L80.6,81z M81.5,86L81.5,86l-0.1,0.1l0,0.1l0.1,0.1l0.1,0l0.1-0.1L81.5,86L81.5,86z M29.5,88.8L29.5,88.8l-0.1,0.1
	l0,0l0,0l0,0l0,0l0,0l0,0L29.5,88.8L29.5,88.8L29.5,88.8L29.5,88.8z M28.4,80L28.4,80l0,0.1l0,0L28.4,80L28.4,80L28.4,80L28.4,80
	L28.4,80z M84.3,91.5L84.3,91.5l-0.2,0.2l0,0.1l0.1,0.2l0.2-0.3L84.3,91.5z M81.6,77.6l-0.1,0.1l0.1,0.1l0.2,0.2L81.6,77.6
	L81.6,77.6z M85.9,30.5l0.2-0.2l0.2-0.2l0.1-0.2l0.2-0.1l0.1-0.1l0-0.1l0-0.1l-0.1-0.2l0-0.2l0-0.2l-0.1-0.1L86,28.5l-0.2-0.1
	l-0.2,0.1l-0.4-0.1l-0.1,0l-0.4-0.2l-0.1,0l-0.4,0.2L84,28.5l-0.1,0l-0.1-0.1l-0.1-0.1l0,0l0.1-0.1l0-0.1l0-0.1l0.1-0.2l0.4-0.5
	l-0.1-0.2l-0.3-0.4l-0.1-0.2l-0.1-0.1l-0.2,0.1l-0.4,0.4l-0.1,0l0-0.1l-0.1-0.4l0.1-0.1l0.2-0.1l0.1-0.1l0-0.1l-0.1,0l-0.3,0
	L83,25.7l-0.2-0.3l-0.2-0.1l-0.1-0.1l-0.3,0.2l-0.4,0.2l-0.4,0.3l0,0.2l-0.1,0l-0.1,0.1l-0.1,0.1L81,26.4l-0.1,0l-0.2,0l-0.4-0.2
	L80,26.1l-0.1,0L79.4,26l0-0.1l-0.1-0.2l-0.2-0.1l-0.1,0l-0.3,0.3l-0.4,0.2L78,26.4l-0.2,0.3l-0.2,0l0,0.2L77.5,27l-0.1,0.2
	l-0.3,0.2l-0.2,0.1l-0.8,0.1l-0.3,0.1l-0.1,0.1l-0.1,0.3l0,0.3l-0.2,0.2l-0.3,0.3l-0.4,0.2l-0.1,0.2l0,0.1l0.1,0l0.1,0.1l0,0.1
	l0,0.1l-0.3,0.2L74.3,30l-0.2,0.1l-0.2,0l-0.2,0l-0.1,0l-0.1,0l-0.2,0l-0.1,0l-0.3,0.2l-0.2,0l-0.2-0.1l-0.3,0l-0.2,0l0,0.1l0,0.2
	l0,0.2l0.1,0.2l0.2,0.2l0.2,0.2l0.3,0l0.2-0.1l0.1,0l0.2,0.3l0.1,0.2l-0.1,0.2l0,0.2l0,0.1l0,0.1l0.1,0.1l0.1,0.2l0,0.2l0,0.1
	L73.6,33l-0.1,0l-0.1,0l-0.1,0L73,33.1l-0.2,0.1l-0.4,0L72.2,33l-0.1,0l-0.3,0.2l-0.4,0l-0.7,0.1l-0.3,0l-0.3,0l-0.2,0L69.6,33
	l-0.3-0.1L69.1,33L69,33l-0.2,0.3l-0.4,0.1L68,33.5l-0.1,0l-0.3,0l0-0.1l0-0.1l-0.1-0.1l-0.1-0.1l-0.2,0l-0.2-0.1L66.8,33l-0.5,0.1
	L66,33l-0.3-0.2l-0.2-0.1l-0.1-0.3l-0.1-0.1l-0.1-0.1L65.1,32l0-0.1l0.3-0.2l0-0.1l-0.2-0.1L65,31.3L64.9,31l0.1-0.7l0-0.3l-0.1-0.1
	l-0.1-0.3l-0.1-0.1l-0.4-0.2l-0.1,0l-0.1,0.1L64,29.5l-0.1,0.1l-0.4,0.1l-0.3,0.1l-0.1,0l0,0.1l0,0.1l0.1,0.1l0,0.1l0,0.1l0,0.3
	l-0.1,0.2l0,0.5l0,0.8l0,0.1l0.4,0.5l0.2,0.4l0.1,0.2l-0.1,0.4l-0.1,0.5l-0.1,0.1l-0.1,0l-0.4-0.2l-0.3,0l-0.3,0.1l-0.3,0L62,34.3
	l-0.3,0.2l-0.3-0.1l-0.2-0.1L61,34l-0.1,0l-0.6,0.3l-0.2,0l-0.4-0.2l-0.4-0.2l-0.1-0.1l-0.3-0.1l-0.3,0l-0.3-0.1l-0.4,0.1l-0.2,0
	l-0.2-0.1l-0.1-0.2l-0.1-0.2l-0.2-0.1l-0.2,0l-0.3,0.1l-0.4,0.2l-0.1,0l-0.1,0l-0.1,0L56,33l-0.1,0l-0.1,0l-0.2,0l-0.2-0.1l-0.7-0.3
	l-0.1-0.2L54.5,32l-0.1-0.1l-0.1-0.1L54,31.5l-0.7-0.2L53,31.1l-0.2,0.1l-0.3,0.1l-0.1,0.2l-0.2-0.1l-0.5-0.2l-0.3,0l-0.2,0.1l0,0.1
	L51,31.5l-0.2-0.1l-0.4-0.1L50,31.2L49.5,31l-0.1-0.2l-0.1-0.2l-0.1,0l-0.5,0l-0.5-0.3L47.7,30l-0.2-0.1l-0.1,0l-0.1,0l-0.1,0.1
	L47,30l-0.3-0.1l-0.3-0.2L46,29.4L45.5,29l-0.2-0.2l-0.1-0.1L45,28.6l-0.4-0.2l-0.3-0.2l-0.4-0.2l-0.1,0l-0.2-0.1l-0.2-0.2l-0.2,0
	l0,0.1l0,0.1l-0.2,0l-0.3-0.2l-0.3-0.2l-0.2-0.2L42,27.1L41.9,27l0-0.4l0.1-0.3l0.1-0.1l0.1-0.2l0-0.4l-0.1-0.3l0.1-0.4l0.1-0.5
	l0.3-0.5l0.1-0.2l0.2-0.1l0.3-0.4l0.1-0.1l0.1-0.1l0.1,0l0.1,0l-0.1-0.2l-0.3-0.2l-0.4-0.2l-0.2-0.2l-0.2-0.1l-0.2,0L41.9,22
	l-0.4-0.2l-0.2,0l0-0.1l0-0.2l-0.1-0.2l-0.1-0.1l-0.2,0l-0.5-0.3h0l0,0l0,0l-0.1-0.1l-0.2-0.1l-0.3,0l-0.2,0l-0.2-0.1L39,20.4
	l-0.1,0l0,0l-0.1-0.1l-0.4-0.4l-0.4-0.5l-0.2-0.1l-0.1,0l0,0.3l-0.1,0l-0.1,0l-0.1,0.1l-0.1,0l-0.1,0l0-0.1l0-0.3L37,19.2l0-0.2
	l0.1-0.2L37,18.6l-0.2-0.2l-0.1-0.2l0-0.2l-0.2-0.2l0.2,0.2l0,0l0-0.2l0-0.1l-0.1-0.1L36,16.9l0-0.1l-0.1-0.2l-0.1-0.3l-0.1-0.2
	L35.6,16l0-0.1l0,0l0.3,0l0.3,0l0.2-0.1l0.1,0.1l0.1,0.2l0.1,0.1l0.2,0.2l0.2,0.2l0.2,0l0.2-0.1l0.1-0.3l0.1-0.1l0.1,0l0-0.2l0-0.4
	l-0.1-0.2l-0.1-0.2l0-0.2l-0.1-0.2l-0.2-0.2l-0.1-0.1l0-0.1l0-0.2l0-0.2l-0.1-0.2l-0.1-0.1l-0.2-0.1l-0.2-0.2l-0.1-0.1l-0.2-0.1
	L36,13.1l-0.1-0.5l-0.1-0.5l-0.1-0.2l-0.2-0.4l0-0.1l0-0.1l0.4-0.3l0.1-0.1l0-0.1l0-0.1l-0.1-0.1l-0.2-0.1l-0.3-0.2L35,10l-0.4-0.1
	L34,9.7l-0.1-0.1l-0.2-0.4l-0.3-0.5l-0.3-0.6l-0.2-0.4l0-0.2l0-0.4l0-0.1l-0.1,0l-0.1,0.1l-0.1,0.1l-0.1,0L32.1,7l0,0l-0.2,0l-0.4,0
	l-0.1,0l-0.2,0L30.8,7l-0.5-0.1l-0.6-0.2l-0.3-0.1l0.2,0.3l0.3,0.4L30,7.5l0.2,0.3l0.1,0.2l0.2,0.3l0,0.1l0,0.2l-0.2,0.2L30,8.8
	l0,0.1l0,0.1l-0.1,0.2l-0.2,0.2l-0.2,0l-0.1,0l-0.7,0.3l-0.3,0L28,9.7l-0.2,0.2L27.5,10l-0.3,0l-0.4-0.1l-0.5-0.2l-0.2-0.1l-0.2,0
	l-0.4,0l-0.4-0.1l-0.5-0.1l-0.3,0l-0.5-0.1l-0.3,0.1l-0.3,0.1l-0.2,0.1L22.9,10l-0.1,0.1l-0.1,0.2l0,0.1l0.1,0.2l0.3,0.1l0.2,0.2
	l0,0.1l-0.1,0.1l-0.1,0.1l0,0.1l0.1,0.1l0.1,0.1l0.4,0l0.2,0l0.1,0l0,0.1l-0.1,0.2L23.9,12l-0.2,0.2l0,0.2l0,0.2l0.1,0.1l0.2,0.1
	l0.2,0.1l0.1,0.1l0,0.2l0,0.2l-0.1,0.2L24,13.8l0,0.1l0.1,0.1l0.1,0.1l0.2,0.2l0.3,0.2l0.2,0l0.1,0l0.1,0.2l0.1,0.2l0,0.2l0.1,0.1
	l0.3,0l0.3,0.1l0.1-0.1l0.1,0l0,0.5l0.1,0.3l0.1,0.1l0.3,0.1l0.5,0l0.3,0.1l0.4,0.1l0.2,0.2l0.1,0.1l0,0.2l-0.1,0.2l-0.3,0.1l-0.2,0
	l-0.8,0.4l-0.2,0.2l-0.2,0.2l0,0.2l0,0.2l0.3,0.6l0.1,0.2l0,0.6l0,0.2l0.1,0.2l0.2,0.1l0.1,0.1l0,0.1l-0.3,0.2l-0.3,0.2l-0.1,0
	L26,21.3L25.6,22l-0.2,0.3l0,0.1l0,0.1l0.1,0.2l0.1,0.2l-0.1,0.2l-0.2,0.2l-0.4,0.2l-0.5,0.2l-0.2,0.1l-0.1,0.5l-0.1,0.5l0,0.2
	l-0.2,0.6l-0.3,0.8l-0.1,0.2l-0.6,0.4l-0.7,0.4l-0.1,0.2L22,27.9l-0.1,0.4l-0.1,0.2L21.4,29l-0.1,0.4l0,0.3L21,29.8L20.5,30l-0.6,0
	l-0.3,0.1l-0.7,0.4l-0.2,0l-0.2-0.1l-0.1-0.1l-0.1-0.2l-0.1-0.3L18,29.6l-0.2-0.1l-0.2,0l-0.2,0.1l-0.2,0.1l-0.1,0.1L17,30l-0.2,0.5
	l-0.3,0.7l-0.4,0.5L16,31.8l-0.1,0.1l-0.1,0.2l-0.1,0.2l0,0.5l0,0.5l0,0.1l0.1,0.1l0.3,0.1l0.4,0.2l0.5,0.1l0.4,0l0.2,0.1l0.1,0.1
	l0,0.1l0,0.4l0,0.4l-0.1,0.4l0,0.2l0.1,0.2l0.5,0.6l0.2,0.1l0.3,0l0.1,0l0.2-0.1l0.1,0l0.1,0.1l0,0.1l0.1,0.6l0.2,0.3l0.3,0.4
	l0.2,0.4l0.2,0.5l0.2,0.4l0.1,0.2l-0.1,0.1l-0.1,0.1l0,0.1l0,0.1l0,0.1l0.1,0.1l0.1,0l0,0.1l-0.1,0.1l-0.1,0l-0.1,0.1L20,40.8
	l-0.1,0l-0.1,0l-0.1,0l-0.2-0.1l-0.1-0.2l0-0.2l-0.1-0.1l-0.1,0l-0.5,0.2l-0.5,0.2l-0.1,0.1L18,41l-0.2,0.1l-0.3,0l-0.2,0L17,40.9
	l-0.2-0.1l-0.3,0l-0.5,0l-0.3,0l-0.2-0.1l-0.2,0L15,40.7L15,40.8l-0.1,0l-0.1-0.1l-0.1,0l-0.1,0l0,0l0,0.1l0.1,0.9l-0.4,0l-0.3,0
	l-0.3,0l-0.2,0.1l-0.1,0.1L13.3,42l0.1,0.4l0.2,0.4l0.3-0.1l0.2-0.3l0.2-0.1l0.4-0.2l0.3-0.1l-0.4,0.3l-0.4,0.4L14,42.9l0.4,0.6
	l0.3,0.5l0.5,0.4l1.1,0.6l1.1,0.3l0.2,0l0.3-0.2l0.7-0.3l0.2-0.1l0.2,0l0.2,0.1l0.1-0.1l0.1-0.2l0.1-0.1l0.1,0l0.1,0.1l0,0.1
	l-0.2,0.1l-0.2,0.5l-0.3,0.7L18.6,46l-0.2,0L18,46.3l-0.2,0l-0.2,0.2l-0.3,0l-0.7,0.4l-0.1,0l-0.1-0.1l-0.2-0.2L16,46.3l-0.2,0.2
	l0,0.3l0.1,0.3l0.5,0.6l0.5,0.5l0.5,0.5l0.6,0.5l0.8,1l0.3,0.3l1,0.8l0.6,0.3l0.4,0.1l0.4-0.1l0.9-0.4l0.4-0.3l1.1-0.6l0.1-0.2
	l0.4-0.9l0-0.4l-0.1-0.2l-0.1-0.1l-0.2-0.1l-0.2-0.1L24,48l0-0.2l0.2-0.2l0.2-0.1l0.1-0.2l0.1-0.3l-0.2-0.2l-0.2-0.1l0.4,0l0.3,0.1
	l0.3-0.1l0.3,0l0.3,0.1L25.6,47l-0.2,0l-0.2,0.1l0,0.6l0.3,0l0.2,0l-0.1,0.1L25.3,48l-0.1,0.5l0.8,0l0.4-0.1l0.3-0.1l-0.2,0.2
	L26,48.8L25.8,49l-0.2,0.3l0.1,0l0.2,0l-0.1,0.1l-0.1,0.2l0.2,0.6l0.2,0.1l0.2,0l0,0.1l0.1,0.4l0.1,0.4l0.1,0.5l0,0.3l-0.3,1.5
	l0,0.7l0,0.1l0.1,0.1l0.1,0.5l0.2,0.2l-0.1,0.2l0,0.1l0.1,0.2l0.5,0.3l-0.5-0.1l0,0.1l0,0.1l0,0.4l0.1,0.3l0.2-0.1l0.1-0.4l0.1,0.4
	l0,0.3L27,57.3l0,0.3l0,0.1l0.1,0.2l0.1,0.6l0.1,0.3l0.1,0.5l0.2,0.6l0.4,0.9l0,0.3l0.3,1l0.4,2.2l0.4,0.9l0.1,0.3l0.4,0.6l0.2,0.5
	l0.2,0.2l0.3,0L30.1,67l0.1,0.1l0.1,0.2l0.2,0.3h-0.3l0.2,0.3l0.2,0.7l0.3,0.4l0.1,0.1l0.4,0.6l0.2,0.2l0.2,0.2l0.1,0.2l0.1,0.3
	l0.2,0.6l0,0.1l0.1,0.4l0.3,0.6l0.2,0.5l0,0.3l0,0.2l0.3,1.3l0.1,0.3l0.2,0.4l0.3,0.8l0.8,1.5l0.1,0.1l0.2,0.2l0.3,0.4l0.3,0.3
	l0.4,0.7l0.2,0.3l0.4,0.9l0.2,0.8l0.5,1.1l0.1,0.2l0.2,0.4l0,0.1l0,0.2l0.1,0.2l0.1,0L38,84l0.4,1.2l-0.1,0l-0.1-0.1l0-0.5L38,84.2
	L37.8,84l-0.1-0.1l0.2,0.8l0.1,0.7l0.2,0.6l0,0.1l0.1,0.1l0.1,0.1l0,0.2l0.2,0.6l0.2,0.2l1,1.3l0.3,0.3l0.6,0.5l0.6,0.2l0.2-0.2
	l0.5-0.2l0.7-0.6l0.2-0.4l0-0.5l0.1-0.7l0.2-0.3l0.4-0.3l1.5-0.5l0.6,0l0.5,0.2L46,86l-0.2-0.1l-0.4-0.1l-0.2-0.1l-0.2-0.2l-0.1-0.2
	l0-0.3l0.1-0.4l0.6-1.1l0-0.4l0.1-0.2l0.2-0.1l0.4-0.1l0.2,0.1l0.2,0l0.2,0l0.2-0.1l0-1.3L47,80.1l0-0.2l-0.1-0.2l-0.3,0.1l0.1-0.2
	l0.1-0.2L46.7,79l0-0.3l0.2-0.9l0.3-0.7l0.1-0.2l0.2-0.5l0.2-0.7l0.2-2l-0.2-0.2l-0.5-0.3l-0.2-0.2l0.2-0.3l0.2,0.3l0.1,0.3l0.1,0.1
	l-0.2-0.6l0-0.3l-0.1-0.3l-0.3-0.6L47.1,71l0-0.2l0.1-0.2l0-0.4l-0.1-0.3L47,69.3l-0.2-0.8l0.1-0.8l0.4-1.2l0.2-0.2l0.7-0.3l0.2,0
	l0.2,0.1l0.1,0.3l0.1,0l0.1,0.1l0.2,0l0-0.2l0.1-0.2l0.2-0.2l0.2-0.9l0.1-0.2l0.3-0.1l0.8,0.1l0.1,0l1-0.5l0.3-0.2l0.1-0.3l0-0.1
	l0-0.2l0-0.1L52.2,63l-0.1-0.2l0-0.1l0.2-0.4l0.6-0.5l0.9-0.6l0.5-0.4l0.4-0.5l0.4-0.7l0.2-0.2l1.1-0.7l0.2-0.3l0.6-0.9l0.3-0.6
	l0.2-0.2l0.1-0.3l0-0.2l1.1-1.2l0.5-0.4l0-0.1l-0.2-0.1L59,54.8l-0.1,0l-0.1-0.1l0.2-0.4l0.5-0.4l0.1,0l0.1,0.1l0,0.3l-0.1,0.1
	l0,0.1l0.2,0l0.7-0.3l0.9-0.3l0.2-0.1l0.1-0.1l0-0.1l-0.2-0.2l0.1,0l0.2,0.1l0.2-0.2l0.1-0.2l0.6-0.4l0-0.1l0-0.2l0.2-0.3l0.2-0.3
	l0.1-0.2l-0.1-0.1l-0.2-0.7l-0.2-0.4l0-0.4l0.2-0.4l0.3-0.4l0.2-0.1l1.2-0.3l0.4-0.2l0.3-0.3l0.2-0.5l0.1-0.1l0.1-0.2l-0.2-0.2
	L65.3,47l-0.1-0.1l-0.1-0.4l0.2,0.3l0.3,0.1l0.3,0.2l0,0.3l-0.1,0.7l-0.1,0.3l0.2,0.2l0.3,0l0-0.2l0-0.2l0.1,0.1l0.4,0.3l0.3-0.1
	l0-0.2l-0.1-0.4l0.1-0.9l0.1,0.2l0.1,0l0.1,0.1l0,0.1l0,0.8l0,0.2l0.1,0.1l0.1,0.1l0.2-0.2l0-0.3l0.2,0.3l0.2,0l0.2,0l-0.1-0.3
	l-0.1-0.2l-0.2-0.3l0.2,0l0-0.5l0-0.3l0-0.3l-0.3-0.7l-0.2-0.4l0-0.1l0,0l-0.1-0.5l-0.1-0.3l-0.1-0.3l0.1-0.4L67.3,44L67,43.9
	l-0.2-0.1l-0.1-0.1l0-0.4l-0.1-0.2L66.5,43l-0.1-0.1l-0.1-0.1l-0.1-0.2l0.1-0.5l0.1-0.5l0-0.2l0-0.4l0-0.1l0-0.1l-0.2-0.2l-0.4-0.1
	l-0.3-0.1l-0.2-0.2l-0.1-0.1L65,40.2l-0.2-0.1L64.6,40l-0.2-0.2l0-0.1l0-0.1l0.2-0.6l0.1,0L65,39l0.1,0l0.1-0.2l0.1-0.7l0.3,0l0.3,0
	l0.2,0l0.2,0l0.2-0.1l0.1-0.1l0-0.1l0-0.1l-0.3-0.1l-0.1-0.1l-0.1-0.3L66,37.1l-0.5,0L65.3,37l-0.1-0.1l-0.3-0.4l-0.3-0.3l-0.3-0.1
	l-0.1-0.1L64,35.9l0-0.2l0.1-0.2l0-0.2l0.2-0.3l0.2-0.2l0.1-0.2l0.1-0.2l0-0.1l0-0.1l-0.1-0.1l-0.1,0l0-0.1l0-0.2l0.1,0l0.3,0.2
	l0.3,0.3l0.2,0.2l0,0.2l0.1,0l0.1,0l0.2,0.1l0.2,0l0.1,0l0.1,0l0-0.1L66,34.6L66,34.5l0.1-0.1l0.1,0l0.1,0l0.1,0.1l0.1,0.2l0.1,0.3
	l0.2,0.3l0.3,0.2l0.2,0.1l0.3,0.1l0.2-0.1l0.1-0.2l-0.1-0.2l0-0.2l0.1-0.1l0.1,0l0.1,0.1l0.4,0.7l0,0.3l0.2,0.8l0,0.6l0,0.1l0,0.1
	l0.1,0l0.1,0l0.4,0.1l0.3,0.1l0.4,0.1l0.5,0.1l0.3,0l0.1,0l0.3,0l0.8,0l0.7,0l0.3,0.1l0.2,0l0.7-0.1l0.7,0l0.4,0.2l0.5,0.3l0.3,0.2
	l0.1,0.1l0,0.1l-0.1,0.1l-0.2,0l-0.4-0.1l-0.1,0l0,0.3l0,0l0,0.3l-0.1,0.6l0,0.3l0,0.1l0,0l-0.2,0l-0.1,0l0,0.1l-0.1,0.2l0,0.2
	l-0.1,0.1L74.3,41l-0.1,0l-0.1,0l-0.1,0.1l-0.1,0.1l-0.1,0l-0.4,0l-0.1,0l0,0.1l0,0.1L73,41.8l0,0.5l0,0.3l0,0.2l0.3,0.6l0.3,0.8
	l0.1,0.1l0.1,0l0,0l0-0.2l0-0.2l0.1,0l0.1,0l0.1,0.2l0.1,0.3l0.1,0.1l0.2,0l0.2-0.1l0.1-0.1l0-0.2L74.7,44l0-0.2l0.1-0.2l0.3-0.3
	l0-0.1L75,42.8l0-0.3l0.1,0l0.2,0l0.2-0.1l0.1,0l0.1,0.1l0.1,0l0.2,0.6l0.2,0.5l0,0.2l0.1,0.5l0.1,0.4l0.1,0.1l0.1,0.2l0.1,0.3
	l0.1,0.1l0.1,0.5l0.1,0.3l0.2,1.1l0.1,0.2l0.1-0.1l0-0.1l0-0.2l0-0.1l0.1,0l0.1,0.1l0.3,0.3l0.2,0.1l0.1,0l0.1-0.4l0-0.1l0.1-0.1
	l0.1,0l0.1-0.1l0-0.2l0-0.2L78.5,46l-0.1-0.3l-0.1-0.3l0.1-0.3l0.1-0.3l-0.1-0.3l0-0.1l0.1,0l0.1,0.1l0.1,0l0.1-0.2l0-0.1l0-0.6
	l0-0.6l0-0.5l-0.1-0.3l-0.3-0.7l0-0.1l0.1,0l0.3,0.3l0.1,0l0.2,0l0.2-0.1l0.1,0l0.2,0.1l0.3,0.1l0.4,0.1l0.2,0.1l0.1,0l0.1-0.3
	l0.1-0.4l0.1-0.6l0.1-0.5l0-0.1l0.2-0.4l0.2-0.4l0.1-0.5l0.1-0.4l0-0.1l-0.1-0.1l-0.2-0.1L81.1,38l0-0.1l0-0.1l0-0.2l0.1-0.3
	l0.1-0.1l0.3-0.2l0.2-0.2l0.2-0.3l0.1-0.2l0-0.4l0.1-0.1l0.1-0.1l0.1-0.2l0-0.1L82,35.3L81.9,35l-0.1-0.5l0-0.4l0-0.2l0.1-0.2
	l0.2-0.1l0.2-0.1l0.4-0.3l0.6-0.6l0.2-0.2l0.2-0.1l0.1-0.2l0.2-0.3l0.3-0.1l0.2-0.1l1-0.2l0.2,0l0.2,0.1L86,32l0.2,0.1l0.2,0.1
	l0.2,0l0-0.1l-0.7-0.8L85.8,31l-0.1-0.2l0-0.2L85.9,30.5z M84.6,92l-0.4,0.2l-0.1,0.1l0,0.4l0.1,0l0.3,0.8l0.2-0.2l0.1-0.4l-0.2-0.7
	L84.6,92z M83.7,89.1l-0.1,0l-0.1,0.2l0,0.2l0,0.1l0,0.1l0,0.1l0,0l0.1-0.1l-0.1-0.3L83.7,89.1z M82.6,88.7L82.6,88.7l-0.1,0.2
	l0.1,0.2l0.1,0L82.7,89L82.6,88.7z M83.3,89.7l-0.1,0l-0.1,0.1l0.1,0.1l0.1,0.1l0.2,0l0-0.1l0-0.1L83.3,89.7z"/>
</svg>
