<?xml version="1.0" encoding="utf-8"?>
<!-- Generator: Adobe Illustrator 18.0.0, SVG Export Plug-In . SVG Version: 6.00 Build 0)  -->
<!DOCTYPE svg PUBLIC "-//W3C//DTD SVG 1.1//EN" "http://www.w3.org/Graphics/SVG/1.1/DTD/svg11.dtd">
<svg version="1.1" id="Layer_1" xmlns="http://www.w3.org/2000/svg" xmlns:xlink="http://www.w3.org/1999/xlink" x="0px" y="0px"
	 viewBox="0 0 30 30" enable-background="new 0 0 30 30" xml:space="preserve">
<g>
	<g opacity="0.5">
		<path fill="#FFFFFF" d="M29,1v28H1V1H29 M30,0H0v30h30V0L30,0z"/>
	</g>
	<path fill="#FFFFFF" d="M16.7,9.6c-1.2,0.4-2,1.6-1.9,2.8l0,0.5l-0.5-0.1c-1.7-0.2-3.3-1-4.6-2.3L9.2,10L9,10.4
		c-0.3,1-0.1,2.1,0.6,2.9c0.4,0.4,0.3,0.5-0.4,0.2c-0.2-0.1-0.4-0.1-0.5-0.1c-0.1,0.1,0.2,1,0.3,1.3c0.2,0.5,0.8,1,1.3,1.2l0.5,0.2
		l-0.6,0c-0.5,0-0.6,0-0.5,0.2c0.2,0.6,1,1.3,1.8,1.6l0.6,0.2l-0.5,0.3c-0.8,0.4-1.7,0.7-2.6,0.7c-0.4,0-0.8,0-0.8,0.1
		c0,0.1,1.2,0.6,1.9,0.9c2,0.6,4.5,0.4,6.3-0.7c1.3-0.8,2.6-2.3,3.2-3.8c0.3-0.8,0.7-2.2,0.7-2.9c0-0.4,0-0.5,0.6-1
		c0.3-0.3,0.6-0.7,0.7-0.7c0.1-0.2,0.1-0.2-0.4,0c-0.8,0.3-0.9,0.3-0.5-0.2c0.3-0.3,0.7-0.9,0.7-1c0,0-0.1,0-0.3,0.1
		c-0.2,0.1-0.6,0.2-0.8,0.3l-0.5,0.2L19.2,10c-0.3-0.2-0.6-0.4-0.8-0.4C17.9,9.5,17.1,9.5,16.7,9.6z"/>
</g>
</svg>
