<?xml version="1.0" encoding="utf-8"?>
<!-- Generator: Adobe Illustrator 18.1.1, SVG Export Plug-In . SVG Version: 6.00 Build 0)  -->
<svg version="1.1" id="Layer_1" xmlns="http://www.w3.org/2000/svg" xmlns:xlink="http://www.w3.org/1999/xlink" x="0px" y="0px"
	 viewBox="0 0 50 50" enable-background="new 0 0 50 50" xml:space="preserve">
<rect class="background" fill="none" width="50" height="50"/>
<g>
	<g opacity="0.5">
		<path class="border" fill="#ffffff" d="M48.3,1.7v46.7H1.7V1.7H48.3 M50,0H0v50h50V0L50,0z"/>
	</g>
	<path class="logo" fill="#FFFFFF" d="M27.8,16c-2,0.7-3.3,2.7-3.2,4.7v0.8l-0.8-0.2c-2.8-0.3-5.5-1.7-7.7-3.8l-0.8-0.8L15,17.3
		c-0.5,1.7-0.2,3.5,1,4.8c0.7,0.7,0.5,0.8-0.7,0.3c-0.3-0.2-0.7-0.2-0.8-0.2c-0.2,0.2,0.3,1.7,0.5,2.2c0.3,0.8,1.3,1.7,2.2,2
		l0.8,0.3h-1c-0.8,0-1,0-0.8,0.3c0.3,1,1.7,2.2,3,2.7l1,0.3l-0.8,0.5c-1.3,0.7-2.8,1.2-4.3,1.2c-0.7,0-1.3,0-1.3,0.2
		c0,0.2,2,1,3.2,1.5c3.3,1,7.5,0.7,10.5-1.2c2.2-1.3,4.3-3.8,5.3-6.3c0.5-1.3,1.2-3.7,1.2-4.8c0-0.7,0-0.8,1-1.7
		c0.5-0.5,1-1.2,1.2-1.2c0.2-0.3,0.2-0.3-0.7,0c-1.3,0.5-1.5,0.5-0.8-0.3c0.5-0.5,1.2-1.5,1.2-1.7c0,0-0.2,0-0.5,0.2
		c-0.3,0.2-1,0.3-1.3,0.5L33,17.3l-1-0.7c-0.5-0.3-1-0.7-1.3-0.7C29.8,15.8,28.5,15.8,27.8,16z"/>
</g>
</svg>
