<?xml version="1.0" encoding="utf-8"?>
<!-- Generator: Adobe Illustrator 18.0.0, SVG Export Plug-In . SVG Version: 6.00 Build 0)  -->
<!DOCTYPE svg PUBLIC "-//W3C//DTD SVG 1.1//EN" "http://www.w3.org/Graphics/SVG/1.1/DTD/svg11.dtd">
<svg version="1.1" id="Layer_1" xmlns="http://www.w3.org/2000/svg" xmlns:xlink="http://www.w3.org/1999/xlink" x="0px" y="0px"
	 viewBox="0 0 127 90" enable-background="new 0 0 127 90" xml:space="preserve">
<g>
	<g>
		<g>
			<path fill="#FFFFFF" d="M6.2,73.8c5.4,0,7.9,2.5,7.9,7.5c0,4.9-2.5,7.7-7.6,7.7H0.7v-1.6h1.8V75.3H0.7v-1.6H6.2z M6.3,75.3h-2
				v12.1h2.1c3.7,0,5.7-2,5.7-6.1C12.2,77.3,10.3,75.3,6.3,75.3z"/>
		</g>
		<g>
			<path fill="#FFFFFF" d="M21.8,75.3v5.5h6.1v1.6h-6.1v5h6.3v-1.5h1.6V89H18.1v-1.6h1.8V75.3h-1.8v-1.6h11.3v3.3h-1.7v-1.8H21.8z
				 M26.7,69.7l-3.9,2.5l0.6,0.9l4.2-1.8L26.7,69.7z"/>
		</g>
		<g>
			<path fill="#FFFFFF" d="M39.2,73.8v1.6h-1.9v12.1h4.8l0-1.4h1.6v3H33.5v-1.6h1.9V75.3h-1.9v-1.6H39.2z"/>
		</g>
		<g>
			<path fill="#FFFFFF" d="M52.9,73.8v1.6H51v12.1h4.8l0-1.4h1.6v3H47.2v-1.6h1.9V75.3h-1.9v-1.6H52.9z"/>
		</g>
		<g>
			<path fill="#FFFFFF" d="M75.4,87.4V89H70v-1.6h1.8l-1-2.5h-6.8l-1,2.5h1.9V89h-5.2v-1.6h1.6l5.2-13.7h2l5.2,13.7H75.4z
				 M70.3,83.4l-2.8-7.2l-2.8,7.2H70.3z"/>
		</g>
		<g>
			<path fill="#FFFFFF" d="M92.8,73.8v1.6h-1.9L85.8,89h-2.5l-5.1-13.7h-1.8v-1.6h5.8v1.6h-2l4.4,11.7l4.3-11.7h-2v-1.6H92.8z"/>
		</g>
		<g>
			<path fill="#FFFFFF" d="M101.2,73.8v1.6h-1.9v12.1h1.9V89h-5.6v-1.6h1.9V75.3h-1.9v-1.6H101.2z"/>
		</g>
		<g>
			<path fill="#FFFFFF" d="M109,75.3v5.5h6.1v1.6H109v5h6.3v-1.5h1.6V89h-11.6v-1.6h1.8V75.3h-1.8v-1.6h11.3v3.3h-1.7v-1.8H109z"/>
		</g>
	</g>
	<g>
		<path fill-rule="evenodd" clip-rule="evenodd" fill="#FFFFFF" d="M31.8,1v55.3h55.3V1H31.8z M59.2,45.6c-1.2,0.1-1.7,0-2.4,0
			c-0.9-0.1-1.4-0.3-1.4-0.3s0.5-0.1,1.3-0.4c0,0,0.1,0,0.1,0c0.8-0.3,1.9-0.7,3-1.4c0.5-0.4,1-0.9,1.3-1.4c0.1-0.1,0.1-0.2,0.1-0.3
			c0.2-0.5,0.3-1,0.2-1.5c-0.1-1.4-0.7-3.1-1.6-4.7c-0.2-0.4-0.4-0.8-0.7-1.2l-0.4-0.6l-0.4-0.6c-0.5-1-1-2-1.3-3
			c-0.6-2.1-0.6-4.3,0-6c0.3-0.9,0.7-1.6,1.2-2.1c0.5-0.5,0.9-1,1.3-1.2c0.4-0.3,0.8-0.5,1-0.6C60.9,20,61,20,61,20
			s-0.2,0.5-0.5,1.3c-0.1,0.4-0.2,0.9-0.3,1.5c-0.1,0.5-0.1,1.1-0.1,1.8c0.1,1.3,0.4,2.6,1,4.1c0.3,0.8,0.6,1.5,1,2.3l0.3,0.7
			l0.3,0.7c0.3,0.5,0.5,1,0.7,1.5c0.4,1,0.8,2.1,1,3.2c0.2,1.1,0.3,2.3,0.1,3.5c0,0,0,0,0,0c3.6-2.1,5.5-6.1,5.5-12
			c0-9-4.2-13.3-13.1-13.3h-4.4v18.3h0v12.3h-8.3v-3.6h4v-27h-4v-3.6h12.4c12,0,17.8,5.6,17.8,16.8C74.5,38.9,69.5,45,59.2,45.6z"/>
	</g>
	<g>
		<path fill="#FFFFFF" d="M123.9,73c1.4,0,2.4,1.1,2.4,2.4c0,1.4-1.1,2.5-2.5,2.5c-1.4,0-2.5-1.1-2.5-2.5
			C121.4,74.1,122.5,73,123.9,73L123.9,73z M123.9,73.4c-1.1,0-1.9,0.9-1.9,2c0,1.1,0.8,2,2,2c1.1,0,1.9-0.9,1.9-2
			C125.8,74.3,125,73.4,123.9,73.4L123.9,73.4z M123.4,76.8H123v-2.5c0.3,0,0.5-0.1,0.9-0.1c0.4,0,0.6,0.1,0.8,0.2
			c0.2,0.1,0.3,0.3,0.3,0.5c0,0.3-0.2,0.5-0.5,0.6v0c0.2,0.1,0.3,0.3,0.4,0.6c0.1,0.4,0.1,0.5,0.2,0.6h-0.5
			c-0.1-0.1-0.1-0.3-0.2-0.7c-0.1-0.3-0.2-0.4-0.6-0.4h-0.3V76.8z M123.4,75.3h0.3c0.3,0,0.7-0.1,0.7-0.4c0-0.2-0.2-0.4-0.6-0.4
			c-0.2,0-0.3,0-0.4,0V75.3z"/>
	</g>
</g>
</svg>
