<?xml version="1.0" encoding="utf-8"?>
<!-- Generator: Adobe Illustrator 18.0.0, SVG Export Plug-In . SVG Version: 6.00 Build 0)  -->
<!DOCTYPE svg PUBLIC "-//W3C//DTD SVG 1.1//EN" "http://www.w3.org/Graphics/SVG/1.1/DTD/svg11.dtd">
<svg version="1.1" id="Layer_1" xmlns="http://www.w3.org/2000/svg" xmlns:xlink="http://www.w3.org/1999/xlink" x="0px" y="0px"
	 viewBox="0 0 52 52" enable-background="new 0 0 52 52" xml:space="preserve">
<g>
	<path fill="#E46119" d="M42.8,19.6H41c0-0.6,0.1-1.1,0.1-1.5c0.1-0.9-0.7-1.7-1.6-1.7H7.6c-0.9,0-1.6,0.8-1.6,1.7
		C6.3,24,8.6,43.6,23.6,43.6c8.5,0,12.9-6.3,15.2-12.8h2.5l0,0c0.1,0,2.4,0,3.2-1.6c0.8-1.6,1.6-4.8,1.6-6.4S44.4,19.6,42.8,19.6z
		 M31.6,39.2c-2.2,1.8-4.9,2.8-8,2.8s-5.8-0.9-8-2.8c-1.9-1.6-3.5-3.9-4.8-6.8c-2.3-5.3-3-11.3-3.1-14.4h31.9l0,0
		c-0.2,3.1-0.8,9.1-3.1,14.5C35.1,35.3,33.5,37.6,31.6,39.2z M43,28.5c-0.3,0.5-1.3,0.7-1.8,0.7l0,0h-1.4l1.9-8h1.1
		c0.7,0,1.6,0.9,1.6,1.6C44.4,24.1,43.6,27.1,43,28.5z"/>
	<path fill="#E46119" d="M23.1,32.4c0,0,0.1,0,0.1,0c0.1,0,0.1,0,0.2-0.1l2.8-4.4c0.1-0.1,0-0.2-0.1-0.3c-0.1-0.1-0.2,0-0.3,0.1
		L23,32.1C22.9,32.2,23,32.3,23.1,32.4z"/>
	<path fill="#E46119" d="M24.1,32.4c0,0,0.1,0,0.1,0c0.1,0,0.1,0,0.2-0.1l2.8-4.4c0.1-0.1,0-0.2-0.1-0.3c-0.1-0.1-0.2,0-0.3,0.1
		L24,32.1C23.9,32.2,24,32.3,24.1,32.4z"/>
	<path fill="#E46119" d="M21.1,32.4c0,0,0.1,0,0.1,0c0.1,0,0.1,0,0.2-0.1l2.8-4.4c0.1-0.1,0-0.2-0.1-0.3c-0.1-0.1-0.2,0-0.3,0.1
		L21,32.1C20.9,32.2,21,32.3,21.1,32.4z"/>
	<path fill="#E46119" d="M22.1,32.4c0,0,0.1,0,0.1,0c0.1,0,0.1,0,0.2-0.1l2.8-4.4c0.1-0.1,0-0.2-0.1-0.3c-0.1-0.1-0.2,0-0.3,0.1
		L22,32.1C21.9,32.2,22,32.3,22.1,32.4z"/>
	<path fill="#E46119" d="M19.1,32.4c0,0,0.1,0,0.1,0c0.1,0,0.1,0,0.2-0.1l2.8-4.4c0.1-0.1,0-0.2-0.1-0.3c-0.1-0.1-0.2,0-0.3,0.1
		L19,32.1C18.9,32.2,19,32.3,19.1,32.4z"/>
	<path fill="#E46119" d="M20.1,32.4c0,0,0.1,0,0.1,0c0.1,0,0.1,0,0.2-0.1l2.8-4.4c0.1-0.1,0-0.2-0.1-0.3c-0.1-0.1-0.2,0-0.3,0.1
		L20,32.1C19.9,32.2,20,32.3,20.1,32.4z"/>
	<path fill="#E46119" d="M17.1,32.4c0,0,0.1,0,0.1,0c0.1,0,0.1,0,0.2-0.1l2.8-4.4c0.1-0.1,0-0.2-0.1-0.3c-0.1-0.1-0.2,0-0.3,0.1
		L17,32.1C16.9,32.2,17,32.3,17.1,32.4z"/>
	<path fill="#E46119" d="M18.1,32.4c0,0,0.1,0,0.1,0c0.1,0,0.1,0,0.2-0.1l2.8-4.4c0.1-0.1,0-0.2-0.1-0.3c-0.1-0.1-0.2,0-0.3,0.1
		L18,32.1C17.9,32.2,18,32.3,18.1,32.4z"/>
	<path fill="#E46119" d="M16.1,32.4c0,0,0.1,0,0.1,0c0.1,0,0.1,0,0.2-0.1l2.8-4.4c0.1-0.1,0-0.2-0.1-0.3c-0.1-0.1-0.2,0-0.3,0.1
		L16,32.1C15.9,32.2,16,32.3,16.1,32.4z"/>
	<path fill="#E46119" d="M14.3,32.4C14.3,32.3,14.3,32.3,14.3,32.4l2.9-4.5c0.1-0.1,0-0.2-0.1-0.3c-0.1-0.1-0.2,0-0.3,0.1l-2.7,4.3
		C14.1,32.1,14.2,32.2,14.3,32.4z"/>
	<path fill="#E46119" d="M15.1,32.4c0,0,0.1,0,0.1,0c0.1,0,0.1,0,0.2-0.1l2.8-4.4c0.1-0.1,0-0.2-0.1-0.3c-0.1-0.1-0.2,0-0.3,0.1
		L15,32.1C14.9,32.2,15,32.3,15.1,32.4z"/>
	<path fill="#E46119" d="M13.7,31.1c0.1,0.1,0.1,0.2,0.2,0.3l2.3-3.6c0.1-0.1,0-0.2-0.1-0.3c-0.1-0.1-0.2,0-0.3,0.1L13.7,31
		C13.7,31.1,13.7,31.1,13.7,31.1z"/>
	<path fill="#E46119" d="M13.1,29.6l1.1-1.7c0.1-0.1,0-0.2-0.1-0.3c-0.1-0.1-0.2,0-0.3,0.1l-0.9,1.4C13,29.3,13,29.4,13.1,29.6z"/>
	<path fill="#E46119" d="M12.7,28.6l0.4-0.6c0.1-0.1,0-0.2-0.1-0.3c-0.1-0.1-0.2,0-0.3,0.1l-0.2,0.4C12.6,28.2,12.7,28.4,12.7,28.6z
		"/>
	<path fill="#E46119" d="M13.4,30.5l1.7-2.6c0.1-0.1,0-0.2-0.1-0.3c-0.1-0.1-0.2,0-0.3,0.1l-1.5,2.4C13.3,30.2,13.4,30.4,13.4,30.5z
		"/>
	<path fill="#E46119" d="M25.1,32.4c0,0,0.1,0,0.1,0c0.1,0,0.1,0,0.2-0.1l2.8-4.4c0.1-0.1,0-0.2-0.1-0.3c-0.1-0.1-0.2,0-0.3,0.1
		L25,32.1C24.9,32.2,25,32.3,25.1,32.4z"/>
	<path fill="#E46119" d="M26.1,32.4c0,0,0.1,0,0.1,0c0.1,0,0.1,0,0.2-0.1l2.8-4.4c0.1-0.1,0-0.2-0.1-0.3c-0.1-0.1-0.2,0-0.3,0.1
		L26,32.1C26,32.2,26,32.3,26.1,32.4z"/>
	<path fill="#E46119" d="M27.1,32.4c0,0,0.1,0,0.1,0c0.1,0,0.1,0,0.2-0.1l2.8-4.4c0.1-0.1,0-0.2-0.1-0.3c-0.1-0.1-0.2,0-0.3,0.1
		L27,32.1C27,32.2,27,32.3,27.1,32.4z"/>
	<path fill="#E46119" d="M28.1,32.4c0,0,0.1,0,0.1,0c0.1,0,0.1,0,0.2-0.1l2.8-4.4c0.1-0.1,0-0.2-0.1-0.3c-0.1-0.1-0.2,0-0.3,0.1
		L28,32.1C28,32.2,28,32.3,28.1,32.4z"/>
	<path fill="#E46119" d="M29.1,32.4c0,0,0.1,0,0.1,0c0.1,0,0.1,0,0.2-0.1l2.8-4.4c0.1-0.1,0-0.2-0.1-0.3c-0.1-0.1-0.2,0-0.3,0.1
		L29,32.1C29,32.2,29,32.3,29.1,32.4z"/>
	<path fill="#E46119" d="M30.1,32.4c0,0,0.1,0,0.1,0c0.1,0,0.1,0,0.2-0.1l2.8-4.4c0.1-0.1,0-0.2-0.1-0.3c-0.1-0.1-0.2,0-0.3,0.1
		L30,32.1C30,32.2,30,32.3,30.1,32.4z"/>
	<path fill="#E46119" d="M31.1,32.4c0,0,0.1,0,0.1,0c0.1,0,0.1,0,0.2-0.1l2.8-4.4c0.1-0.1,0-0.2-0.1-0.3c-0.1-0.1-0.2,0-0.3,0.1
		L31,32.1C31,32.2,31,32.3,31.1,32.4z"/>
	<path fill="#E46119" d="M32.1,32.4c0,0,0.1,0,0.1,0c0.1,0,0.1,0,0.2-0.1l2.8-4.4c0.1-0.1,0-0.2-0.1-0.3c-0.1-0.1-0.2,0-0.3,0.1
		L32,32.1C32,32.2,32,32.3,32.1,32.4z"/>
	<path fill="#E46119" d="M36.9,19.6H10.2c-0.5,0-0.8,0.4-0.8,0.9c0.2,1.6,0.5,3.5,0.9,5.5l0,0c0,0.1,0.1,0.2,0.1,0.3c0,0,0,0,0,0.1
		l0,0c0.4,1.8,1,3.6,1.8,5.4c0.3,0.8,0.7,1.5,1.1,2.2c2.5,4.3,5.8,6.4,10.2,6.4s7.8-2.1,10.2-6.4c0.4-0.7,0.8-1.4,1.1-2.2
		c0.8-1.8,1.3-3.6,1.8-5.4l0,0c0,0,0,0,0-0.1c0-0.1,0.1-0.2,0.1-0.3l0,0c0.5-2,0.8-4,0.9-5.5C37.8,20,37.4,19.6,36.9,19.6z
		 M34.5,31.6c-0.3,0.7-0.6,1.4-1,2h-20c-0.3-0.6-0.7-1.3-1-2c-0.7-1.5-1.3-3.3-1.7-5.2h25.4C35.8,28.3,35.2,30.1,34.5,31.6z
		 M37.3,20.4c-0.2,1.9-0.5,3.8-1,5.6H10.8c-0.4-1.8-0.7-3.6-0.9-5.6c0-0.1,0-0.2,0.1-0.3C10,20,10.1,20,10.2,20H37
		c0.1,0,0.2,0,0.3,0.1C37.3,20.2,37.3,20.3,37.3,20.4z"/>
	<path fill="#E46119" d="M14,22.2c0.4,0,0.8-0.4,0.8-0.8s-0.4-0.8-0.8-0.8c-0.4,0-0.8,0.4-0.8,0.8S13.5,22.2,14,22.2z M14,21
		c0.2,0,0.4,0.2,0.4,0.4c0,0.2-0.2,0.4-0.4,0.4s-0.4-0.2-0.4-0.4C13.6,21.2,13.7,21,14,21z"/>
	<circle fill="#E46119" cx="33.2" cy="22.8" r="0.4"/>
	<circle fill="#E46119" cx="26.8" cy="22.8" r="0.4"/>
	<circle fill="#E46119" cx="30" cy="22.8" r="0.4"/>
	<circle fill="#E46119" cx="20.4" cy="22.8" r="0.4"/>
	<circle fill="#E46119" cx="23.6" cy="22.8" r="0.4"/>
	<circle fill="#E46119" cx="14" cy="22.8" r="0.4"/>
	<circle fill="#E46119" cx="17.2" cy="22.8" r="0.4"/>
	<path fill="#E46119" d="M17.2,22.2c0.4,0,0.8-0.4,0.8-0.8s-0.4-0.8-0.8-0.8s-0.8,0.4-0.8,0.8S16.7,22.2,17.2,22.2z M17.2,21
		c0.2,0,0.4,0.2,0.4,0.4c0,0.2-0.2,0.4-0.4,0.4s-0.4-0.2-0.4-0.4C16.8,21.2,16.9,21,17.2,21z"/>
	<path fill="#E46119" d="M20.4,22.2c0.4,0,0.8-0.4,0.8-0.8s-0.4-0.8-0.8-0.8s-0.8,0.4-0.8,0.8S19.9,22.2,20.4,22.2z M20.4,21
		c0.2,0,0.4,0.2,0.4,0.4c0,0.2-0.2,0.4-0.4,0.4S20,21.6,20,21.4C20,21.2,20.1,21,20.4,21z"/>
	<path fill="#E46119" d="M23.6,22.2c0.4,0,0.8-0.4,0.8-0.8s-0.4-0.8-0.8-0.8c-0.4,0-0.8,0.4-0.8,0.8S23.1,22.2,23.6,22.2z M23.6,21
		c0.2,0,0.4,0.2,0.4,0.4c0,0.2-0.2,0.4-0.4,0.4c-0.2,0-0.4-0.2-0.4-0.4C23.2,21.2,23.3,21,23.6,21z"/>
	<path fill="#E46119" d="M26.8,22.2c0.4,0,0.8-0.4,0.8-0.8s-0.4-0.8-0.8-0.8c-0.4,0-0.8,0.4-0.8,0.8S26.3,22.2,26.8,22.2z M26.8,21
		c0.2,0,0.4,0.2,0.4,0.4c0,0.2-0.2,0.4-0.4,0.4c-0.2,0-0.4-0.2-0.4-0.4C26.4,21.2,26.6,21,26.8,21z"/>
	<path fill="#E46119" d="M30,22.2c0.4,0,0.8-0.4,0.8-0.8s-0.4-0.8-0.8-0.8c-0.4,0-0.8,0.4-0.8,0.8S29.5,22.2,30,22.2z M30,21
		c0.2,0,0.4,0.2,0.4,0.4c0,0.2-0.2,0.4-0.4,0.4c-0.2,0-0.4-0.2-0.4-0.4C29.6,21.2,29.8,21,30,21z"/>
	<path fill="#E46119" d="M33.2,22.2c0.4,0,0.8-0.4,0.8-0.8s-0.4-0.8-0.8-0.8s-0.8,0.4-0.8,0.8S32.7,22.2,33.2,22.2z M33.2,21
		c0.2,0,0.4,0.2,0.4,0.4c0,0.2-0.2,0.4-0.4,0.4c-0.2,0-0.4-0.2-0.4-0.4C32.8,21.2,33,21,33.2,21z"/>
	<path fill="#E46119" d="M12.4,21.8c-0.4,0-0.8,0.4-0.8,0.8s0.4,0.8,0.8,0.8c0.4,0,0.8-0.4,0.8-0.8S12.8,21.8,12.4,21.8z M12.4,23
		c-0.2,0-0.4-0.2-0.4-0.4s0.2-0.4,0.4-0.4s0.4,0.2,0.4,0.4S12.6,23,12.4,23z"/>
	<path fill="#E46119" d="M15.6,21.8c-0.4,0-0.8,0.4-0.8,0.8s0.4,0.8,0.8,0.8c0.4,0,0.8-0.4,0.8-0.8S16,21.8,15.6,21.8z M15.6,23
		c-0.2,0-0.4-0.2-0.4-0.4s0.2-0.4,0.4-0.4s0.4,0.2,0.4,0.4S15.8,23,15.6,23z"/>
	<path fill="#E46119" d="M18.8,21.8c-0.4,0-0.8,0.4-0.8,0.8s0.4,0.8,0.8,0.8c0.4,0,0.8-0.4,0.8-0.8S19.2,21.8,18.8,21.8z M18.8,23
		c-0.2,0-0.4-0.2-0.4-0.4s0.2-0.4,0.4-0.4s0.4,0.2,0.4,0.4S19,23,18.8,23z"/>
	<path fill="#E46119" d="M22,21.8c-0.4,0-0.8,0.4-0.8,0.8s0.4,0.8,0.8,0.8s0.8-0.4,0.8-0.8S22.4,21.8,22,21.8z M22,23
		c-0.2,0-0.4-0.2-0.4-0.4s0.2-0.4,0.4-0.4s0.4,0.2,0.4,0.4S22.2,23,22,23z"/>
	<path fill="#E46119" d="M25.2,21.8c-0.4,0-0.8,0.4-0.8,0.8s0.4,0.8,0.8,0.8S26,23,26,22.6S25.6,21.8,25.2,21.8z M25.2,23
		c-0.2,0-0.4-0.2-0.4-0.4s0.2-0.4,0.4-0.4s0.4,0.2,0.4,0.4S25.4,23,25.2,23z"/>
	<path fill="#E46119" d="M28.4,21.8c-0.4,0-0.8,0.4-0.8,0.8s0.4,0.8,0.8,0.8s0.8-0.4,0.8-0.8S28.8,21.8,28.4,21.8z M28.4,23
		c-0.2,0-0.4-0.2-0.4-0.4s0.2-0.4,0.4-0.4s0.4,0.2,0.4,0.4S28.6,23,28.4,23z"/>
	<path fill="#E46119" d="M31.6,21.8c-0.4,0-0.8,0.4-0.8,0.8s0.4,0.8,0.8,0.8s0.8-0.4,0.8-0.8S32,21.8,31.6,21.8z M31.6,23
		c-0.2,0-0.4-0.2-0.4-0.4s0.2-0.4,0.4-0.4s0.4,0.2,0.4,0.4S31.8,23,31.6,23z"/>
	<path fill="#E46119" d="M34.8,21.8c-0.4,0-0.8,0.4-0.8,0.8s0.4,0.8,0.8,0.8c0.4,0,0.8-0.4,0.8-0.8S35.2,21.8,34.8,21.8z M34.8,23
		c-0.2,0-0.4-0.2-0.4-0.4s0.2-0.4,0.4-0.4c0.2,0,0.4,0.2,0.4,0.4S35,23,34.8,23z"/>
	<path fill="#E46119" d="M14,23.6c-0.4,0-0.8,0.4-0.8,0.8c0,0.4,0.4,0.8,0.8,0.8c0.4,0,0.8-0.4,0.8-0.8C14.8,23.9,14.4,23.6,14,23.6
		z M14,24.8c-0.2,0-0.4-0.2-0.4-0.4c0-0.2,0.2-0.4,0.4-0.4s0.4,0.2,0.4,0.4C14.4,24.6,14.2,24.8,14,24.8z"/>
	<circle fill="#E46119" cx="12.4" cy="24" r="0.4"/>
	<circle fill="#E46119" cx="15.6" cy="24" r="0.4"/>
	<circle fill="#E46119" cx="18.8" cy="24" r="0.4"/>
	<circle fill="#E46119" cx="22" cy="24" r="0.4"/>
	<circle fill="#E46119" cx="25.2" cy="24" r="0.4"/>
	<circle fill="#E46119" cx="28.4" cy="24" r="0.4"/>
	<circle fill="#E46119" cx="31.6" cy="24" r="0.4"/>
	<circle fill="#E46119" cx="34.8" cy="24" r="0.4"/>
	<circle fill="#E46119" cx="12.4" cy="21.2" r="0.4"/>
	<circle fill="#E46119" cx="15.6" cy="21.2" r="0.4"/>
	<circle fill="#E46119" cx="18.8" cy="21.2" r="0.4"/>
	<circle fill="#E46119" cx="22" cy="21.2" r="0.4"/>
	<circle fill="#E46119" cx="25.2" cy="21.2" r="0.4"/>
	<circle fill="#E46119" cx="28.4" cy="21.2" r="0.4"/>
	<circle fill="#E46119" cx="31.6" cy="21.2" r="0.4"/>
	<circle fill="#E46119" cx="34.8" cy="21.2" r="0.4"/>
	<path fill="#E46119" d="M17.2,23.6c-0.4,0-0.8,0.4-0.8,0.8c0,0.4,0.4,0.8,0.8,0.8s0.8-0.4,0.8-0.8C18,23.9,17.6,23.6,17.2,23.6z
		 M17.2,24.8c-0.2,0-0.4-0.2-0.4-0.4c0-0.2,0.2-0.4,0.4-0.4s0.4,0.2,0.4,0.4C17.6,24.6,17.4,24.8,17.2,24.8z"/>
	<path fill="#E46119" d="M20.4,23.6c-0.4,0-0.8,0.4-0.8,0.8c0,0.4,0.4,0.8,0.8,0.8s0.8-0.4,0.8-0.8C21.2,23.9,20.8,23.6,20.4,23.6z
		 M20.4,24.8c-0.2,0-0.4-0.2-0.4-0.4c0-0.2,0.2-0.4,0.4-0.4s0.4,0.2,0.4,0.4C20.8,24.6,20.6,24.8,20.4,24.8z"/>
	<path fill="#E46119" d="M23.6,23.6c-0.4,0-0.8,0.4-0.8,0.8c0,0.4,0.4,0.8,0.8,0.8c0.4,0,0.8-0.4,0.8-0.8
		C24.4,23.9,24,23.6,23.6,23.6z M23.6,24.8c-0.2,0-0.4-0.2-0.4-0.4c0-0.2,0.2-0.4,0.4-0.4c0.2,0,0.4,0.2,0.4,0.4
		C24,24.6,23.8,24.8,23.6,24.8z"/>
	<path fill="#E46119" d="M26.8,23.6c-0.4,0-0.8,0.4-0.8,0.8c0,0.4,0.4,0.8,0.8,0.8c0.4,0,0.8-0.4,0.8-0.8
		C27.6,23.9,27.2,23.6,26.8,23.6z M26.8,24.8c-0.2,0-0.4-0.2-0.4-0.4c0-0.2,0.2-0.4,0.4-0.4c0.2,0,0.4,0.2,0.4,0.4
		C27.2,24.6,27,24.8,26.8,24.8z"/>
	<path fill="#E46119" d="M30,23.6c-0.4,0-0.8,0.4-0.8,0.8c0,0.4,0.4,0.8,0.8,0.8c0.4,0,0.8-0.4,0.8-0.8C30.8,23.9,30.4,23.6,30,23.6
		z M30,24.8c-0.2,0-0.4-0.2-0.4-0.4c0-0.2,0.2-0.4,0.4-0.4c0.2,0,0.4,0.2,0.4,0.4C30.4,24.6,30.2,24.8,30,24.8z"/>
	<path fill="#E46119" d="M33.2,23.6c-0.4,0-0.8,0.4-0.8,0.8c0,0.4,0.4,0.8,0.8,0.8s0.8-0.4,0.8-0.8C34,23.9,33.6,23.6,33.2,23.6z
		 M33.2,24.8c-0.2,0-0.4-0.2-0.4-0.4c0-0.2,0.2-0.4,0.4-0.4c0.2,0,0.4,0.2,0.4,0.4C33.6,24.6,33.4,24.8,33.2,24.8z"/>
	<path fill="#E46119" d="M21.2,12.8c0,0,0,0.1,0,0.1c0,0.1,0,0.2,0,0.3c0,0.2,0.1,0.3,0.1,0.5c0.1,0.3,0.2,0.5,0.3,0.7
		c0,0.1,0.1,0.1,0.1,0.2c0,0,0,0.1,0,0.1c0,0.1,0.1,0.1,0.2,0.1c0.1,0,0.2-0.1,0.2-0.2v0c0,0,0-0.1,0-0.3S22,13.8,22,13.6
		c0-0.1,0-0.3,0-0.4c0-0.1,0-0.2,0-0.2c0,0,0-0.1,0-0.1v0v0v0c0-0.1,0.1-0.2,0.1-0.3c0.1-0.1,0.2-0.2,0.3-0.4
		c0.1-0.1,0.1-0.2,0.2-0.3c0-0.1,0-0.1,0.1-0.2c0-0.1,0-0.1,0-0.2c0,0,0-0.1,0-0.1v-0.1v-0.1v0l0,0l0,0v0v0c0-0.1,0-0.2,0-0.3
		c-0.1-0.4-0.1-0.7-0.2-1c-0.1-0.3-0.2-0.5-0.2-0.7c-0.1-0.2-0.1-0.3-0.1-0.3l0,0c0-0.1-0.1-0.1-0.2-0.1c-0.1,0-0.2,0.1-0.2,0.2
		c0,0,0,0.1,0,0.3s0,0.4,0.1,0.7c0,0.3,0.1,0.6,0.1,1c0,0.1,0,0.2,0,0.3c0,0,0,0.2,0,0.2c0,0,0,0.1-0.1,0.2c0,0.1-0.1,0.1-0.1,0.2
		c-0.1,0.1-0.2,0.3-0.4,0.5c-0.1,0.2-0.2,0.5-0.2,0.7v0.1C21.2,12.7,21.2,12.7,21.2,12.8L21.2,12.8z"/>
	<path fill="#E46119" d="M22.8,12.7L22.8,12.7c0,0.1,0,0.1,0,0.2c0,0.1,0,0.2,0,0.3c0,0.2,0.1,0.3,0.1,0.5c0.1,0.3,0.2,0.5,0.3,0.7
		c0,0.1,0.1,0.1,0.1,0.2c0,0,0,0.1,0,0.1c0,0.1,0.1,0.1,0.2,0.1c0.1,0,0.2-0.1,0.2-0.2v0c0,0,0-0.1,0-0.3c0-0.2-0.1-0.4-0.1-0.7
		c0-0.1,0-0.3,0-0.4c0-0.1,0-0.2,0-0.2c0,0,0-0.1,0-0.1v0v0v0c0-0.1,0.1-0.2,0.1-0.3s0.2-0.2,0.3-0.4c0.1-0.1,0.1-0.2,0.2-0.3
		c0-0.1,0-0.1,0.1-0.2c0-0.1,0-0.1,0-0.2c0,0,0-0.1,0-0.1v-0.1v-0.1v0l0,0l0,0v0v0c0-0.1,0-0.2,0-0.3c-0.1-0.4-0.1-0.7-0.2-1
		c-0.1-0.3-0.2-0.5-0.2-0.7c-0.1-0.2-0.1-0.3-0.1-0.3l0,0c0-0.1-0.1-0.1-0.2-0.1c-0.1,0-0.2,0.1-0.2,0.2c0,0,0,0.1,0,0.3
		c0,0.2,0,0.4,0.1,0.7c0,0.3,0.1,0.6,0.1,1c0,0.1,0,0.2,0,0.3c0,0,0,0.2,0,0.2c0,0,0,0.1-0.1,0.2c0,0.1-0.1,0.1-0.1,0.2
		c-0.1,0.1-0.2,0.3-0.4,0.5c-0.1,0.2-0.2,0.5-0.2,0.7L22.8,12.7C22.8,12.7,22.8,12.7,22.8,12.7z"/>
	<path fill="#E46119" d="M24.4,12.7L24.4,12.7c0,0.1,0,0.1,0,0.2c0,0.1,0,0.2,0,0.3c0,0.2,0.1,0.3,0.1,0.5c0.1,0.3,0.2,0.5,0.3,0.7
		c0,0.1,0.1,0.1,0.1,0.2c0,0,0,0.1,0,0.1c0,0.1,0.1,0.1,0.2,0.1c0.1,0,0.2-0.1,0.2-0.2v0c0,0,0-0.1,0-0.3c0-0.2-0.1-0.4-0.1-0.7
		c0-0.1,0-0.3,0-0.4c0-0.1,0-0.2,0-0.2c0,0,0-0.1,0-0.1v0v0v0c0-0.1,0.1-0.2,0.1-0.3s0.2-0.2,0.3-0.4c0.1-0.1,0.1-0.2,0.2-0.3
		c0-0.1,0-0.1,0.1-0.2c0-0.1,0-0.1,0-0.2c0,0,0-0.1,0-0.1v-0.1v-0.1v0l0,0l0,0v0v0c0-0.1,0-0.2,0-0.3c-0.1-0.4-0.1-0.7-0.2-1
		c-0.1-0.3-0.2-0.5-0.2-0.7c-0.1-0.2-0.1-0.3-0.1-0.3l0,0c0-0.1-0.1-0.1-0.2-0.1C25,8.4,25,8.5,25,8.6c0,0,0,0.1,0,0.3
		c0,0.2,0,0.4,0.1,0.7c0,0.3,0.1,0.6,0.1,1c0,0.1,0,0.2,0,0.3c0,0,0,0.2,0,0.2c0,0,0,0.1-0.1,0.2c0,0.1-0.1,0.1-0.1,0.2
		c-0.1,0.1-0.2,0.3-0.4,0.5c-0.1,0.2-0.2,0.5-0.2,0.7L24.4,12.7C24.4,12.7,24.4,12.7,24.4,12.7z"/>
</g>
</svg>
