<?xml version="1.0" encoding="utf-8"?>
<!-- Generator: Adobe Illustrator 18.0.0, SVG Export Plug-In . SVG Version: 6.00 Build 0)  -->
<!DOCTYPE svg PUBLIC "-//W3C//DTD SVG 1.1//EN" "http://www.w3.org/Graphics/SVG/1.1/DTD/svg11.dtd">
<svg version="1.1" id="Layer_1" xmlns="http://www.w3.org/2000/svg" xmlns:xlink="http://www.w3.org/1999/xlink" x="0px" y="0px"
	 viewBox="0 0 832 864" enable-background="new 0 0 832 864" xml:space="preserve">
<path fill-rule="evenodd" clip-rule="evenodd" fill="#FFFFFF" fill-opacity="0.4" d="M402.1,538.1l0.2-0.1L196.5,191.5l83.1-49.4
	C447.7,42.3,575.6,76.3,677,247c67.2,113.1,75.7,210.2,30.4,290c0-0.1,0-0.1,0-0.2c-9.8-24.4-24.9-45.3-41.6-63.7
	c-16.8-18.5-35.3-34.6-54.7-48.6c-9.6-7.1-19.3-14.2-29.3-20.1l-14-8.9l-13.6-9c-15.5-10.4-30.7-21.2-44.5-32.4
	c-27.5-21.9-49.3-44.5-64.5-67.7c-7.6-11.6-14.1-23.3-18.7-34.5c-5.3-11.2-8-21.7-10.8-31c-4.6-18.5-5.8-30.9-5.8-30.9
	s-2.4,2-5.8,6.7c-3.6,4.5-8.3,11.6-12.7,21.6c-4.9,9.9-8.1,22.8-10.8,38.3c-2,15.5-1.8,33.6,2.1,53.1c7.3,39,31.6,81,66.2,113.3
	c17.2,16.3,36.8,30.5,58.2,42.9l14.4,7.7l14.2,7.9c9,4.9,17.9,9.9,26.4,15.2c34.3,20.8,65.7,44.9,82.8,70.6
	c6.8,10.4,11,20.8,12.9,31.5c0.5,2.6,0.9,5.1,1.1,7.8c1.3,13.6-2.4,27.9-7.7,41.3c-10.8,25.5-27.6,46-40.2,60
	c-0.5,0.6-1.2,1.5-1.8,2.1c-12.8,14.5-21.4,22-21.4,22s11.6-1.6,29.6-10.6c12.8-6.3,22.5-11,45.4-26.1
	C851.4,567.8,878,396.1,759.6,196.7C633-16.4,461.7-57,234.4,78L0,217.3l39.9,67.2l76.1-45.2l303.7,511.2l-76.1,45.2l39.9,67.2
	L539.9,770L402.1,538.1z"/>
</svg>
