<?xml version="1.0" encoding="utf-8"?>
<!-- Generator: Adobe Illustrator 18.0.0, SVG Export Plug-In . SVG Version: 6.00 Build 0)  -->
<!DOCTYPE svg PUBLIC "-//W3C//DTD SVG 1.1//EN" "http://www.w3.org/Graphics/SVG/1.1/DTD/svg11.dtd">
<svg version="1.1" id="Layer_1" xmlns="http://www.w3.org/2000/svg" xmlns:xlink="http://www.w3.org/1999/xlink" x="0px" y="0px"
	 viewBox="0 0 52 52" enable-background="new 0 0 52 52" xml:space="preserve">
<g>
	<path fill="#E46119" d="M45.3,45.3c0,0,0-0.1,0-0.1V6.7C45.3,6.3,45,6,44.6,6c0,0-0.1,0-0.1,0L33.2,7.3H14.5
		c-0.4,0-0.8,0.4-0.7,0.8c0.4,2.8,3.3,12.1,5.7,12.1c3.2,0,5.4,0,8.6,0c1.2,0,2.5-2.3,3.6-4.9c7.9,6.6,7,19.6,5.9,26.4H13.3
		c0,0-0.1,0-0.1,0c0,0-0.1,0-0.1,0c-0.4,0-0.7,0.3-0.7,0.7v2.9c0,0.4,0.3,0.7,0.7,0.7c0,0,0.1,0,0.1,0c0,0,0.1,0,0.1,0h24.4h6.8h0.2
		c0.3,0,0.6-0.2,0.7-0.4C45.3,45.5,45.3,45.4,45.3,45.3z M28.1,18.8h-8.4c-0.3-0.2-1.3-1.3-2.6-4.5c-0.8-2-1.4-4.1-1.7-5.5h17
		c-0.3,1.3-0.9,3.4-1.7,5.5C29.4,17.5,28.4,18.6,28.1,18.8z M37.1,44.6H13.8v-1.4h23.6C37.3,43.7,37.2,44.2,37.1,44.6z M38.5,44.6
		c0.6-2.6,1.5-7.8,1.2-13.3c-0.2-3.6-0.8-6.8-1.9-9.5c-1.3-3.2-3.1-5.8-5.6-7.8l1.8-5.3l9.8-1.1v37.1H38.5z"/>
	<path fill="#E46119" d="M14.6,23c0,0,0.1,0,0.1,0c-1.1,1.5-2.3,4.1-2.3,8.6c0,5.8,0.7,7.7,1.1,8.3c0.1,0.2,0.4,0.3,0.6,0.3h19.4
		c0.3,0,0.6-0.2,0.7-0.5c0.3-0.8,0.4-2.8,0.4-8.1c0-4.3-1.1-6.9-2.3-8.4l1.5-1.4c0.2-0.2,0.1-0.6-0.3-0.6H33h-1h-2.2H17.6
		c0,0-2-0.4-3.8-1.1c-0.8-0.3-1.2-0.6-1.3-0.9c-0.2-0.3-0.6-0.4-0.9-0.3c-1.6,0.6-5,2.6-5,6.9c0,4.1,1.5,7.8,2.3,9.4
		c0.2,0.5,0.9,0.5,1.2,0.1l0.6-0.6c0.2-0.2,0.2-0.6,0.1-0.8c-0.6-1-2-3.7-2-8.1C8.8,20.7,13.7,22.7,14.6,23z M32.9,38.8H14.5
		c-0.3-0.7-0.7-2.5-0.7-7.2c0-4.7,1.4-7.1,2.4-8.2h14.3c1.1,1.1,2.6,3.5,2.6,8.2C33.2,35.3,33.1,37.7,32.9,38.8z"/>
	<path fill="#E46119" d="M30.1,30l-2.3,0.3c-0.1,0-0.3,0-0.4,0l-3.9-0.5l-3.9-0.5c-0.1,0-0.3,0-0.4,0l-2.8,0.3
		c-0.7,0.1-1.1,0.5-1.1,1c0,0,0,1.8,0,1.8c0,2.5,0.2,4,0.4,4.9h16c0.1-0.9,0.1-2.5,0.1-5v-1.4C31.7,30.4,31,29.9,30.1,30z"/>
	<path fill="#E46119" d="M42.8,31.7c0-0.1-0.1-0.2-0.2-0.2h-1.1c0-0.1,0-0.2,0-0.3c0-0.7-0.1-1.5-0.2-2.2h1.1c0.1,0,0.2-0.1,0.2-0.2
		c0-0.1-0.1-0.2-0.2-0.2h-1.1c-0.1-0.9-0.2-1.7-0.4-2.5h1.1c0.1,0,0.2-0.1,0.2-0.2s-0.1-0.2-0.2-0.2h-1.2c-0.2-0.9-0.4-1.7-0.6-2.5
		h1.1c0.1,0,0.2-0.1,0.2-0.2c0-0.1-0.1-0.2-0.2-0.2h-1.2c-0.3-0.9-0.6-1.7-0.9-2.5h1c0.1,0,0.2-0.1,0.2-0.2c0-0.1-0.1-0.2-0.2-0.2
		h-1.2c-0.4-0.9-0.8-1.7-1.3-2.5h1.1c0.1,0,0.2-0.1,0.2-0.2s-0.1-0.2-0.2-0.2h-1.3c-0.6-0.9-1.2-1.7-1.9-2.5h1
		c0.1,0,0.2-0.1,0.2-0.2s-0.1-0.2-0.2-0.2h-1.4c-0.4-0.4-0.7-0.7-1.1-1.1c-0.1-0.1-0.4-0.1-0.5,0c-0.1,0.1-0.1,0.4,0,0.5
		c4.3,3.8,6.7,9.7,7.1,17.4c0.2,4.6-0.4,9-0.9,11.9c0,0.2,0.1,0.4,0.3,0.4c0,0,0,0,0.1,0c0.2,0,0.3-0.1,0.4-0.3
		c0.1-0.8,0.3-1.7,0.4-2.8h1c0.1,0,0.2-0.1,0.2-0.2c0-0.1-0.1-0.2-0.2-0.2h-1c0.1-0.8,0.2-1.6,0.3-2.5h1.1c0.1,0,0.2-0.1,0.2-0.2
		c0-0.1-0.1-0.2-0.2-0.2h-1c0.1-0.8,0.1-1.6,0.1-2.5h1.1c0.1,0,0.2-0.1,0.2-0.2c0-0.1-0.1-0.2-0.2-0.2h-1.1c0-0.8,0-1.7,0-2.5h1.1
		C42.8,31.9,42.8,31.8,42.8,31.7z"/>
</g>
</svg>
