<?xml version="1.0" encoding="utf-8"?>
<!-- Generator: Adobe Illustrator 18.0.0, SVG Export Plug-In . SVG Version: 6.00 Build 0)  -->
<!DOCTYPE svg PUBLIC "-//W3C//DTD SVG 1.1//EN" "http://www.w3.org/Graphics/SVG/1.1/DTD/svg11.dtd">
<svg version="1.1" id="Layer_1" xmlns="http://www.w3.org/2000/svg" xmlns:xlink="http://www.w3.org/1999/xlink" x="0px" y="0px"
	 viewBox="0 0 26 26" enable-background="new 0 0 26 26" xml:space="preserve">
<g>
	<path fill="#8E8F90" d="M22.9,3.1C21.5,1.7,19.5,1,17.4,1v1c2,0,3.6,0.6,4.8,1.8c1.6,1.6,2.1,4,1.6,6.8c-0.6,3-2.2,6-4.8,8.5
		C16,22.2,12.1,24,8.6,24c-2,0-3.7-0.6-4.8-1.8c-1.6-1.6-2.1-4-1.6-6.8c0.6-3,2.2-6,4.8-8.5c3.1-3.1,7-5,10.4-5V1l0,0
		C13.8,1,9.6,2.8,6.2,6.2c-5.5,5.5-6.9,12.9-3.1,16.7C4.5,24.3,6.5,25,8.6,25c3.6,0,7.7-1.8,11.1-5.2C25.2,14.3,26.6,6.8,22.9,3.1z"
		/>
	<path fill="#8E8F90" d="M16.4,7.2c-0.6,0.4-1.1,0.8-1.7,1.3c-0.1,0.1-0.1,0.1-0.2,0.2l-0.1,0.1l-0.1,0.1l0,0h0c0,0,0,0,0,0l0,0
		C14.2,9,14.1,9.1,14,9.1c-0.1,0.1-0.2,0.2-0.2,0.2c-0.3,0.3-0.6,0.7-0.8,1c-0.2,0.4-0.4,0.8-0.6,1.1c-0.2,0.4-0.3,0.8-0.4,1.1
		c-0.1,0.4-0.3,0.7-0.4,1c-0.1,0.3-0.3,0.6-0.4,0.9c-0.2,0.3-0.3,0.5-0.5,0.8c-0.1,0.1-0.1,0.1-0.2,0.2l-0.1,0.1l0,0.1l0,0l0,0l0,0
		c0,0,0,0,0,0c-0.1,0.1-0.3,0.3-0.4,0.4c-0.1,0.1-0.2,0.2-0.4,0.4c-0.1,0.1-0.1,0.1-0.2,0.2c-0.1,0.1-0.1,0.1-0.2,0.2
		C9,17,8.8,17.2,8.6,17.5c-0.2,0.2-0.5,0.4-0.7,0.6c-0.2,0.2-0.4,0.4-0.7,0.6c-1.7,1.6-2.9,2.6-2.9,2.6c-0.1,0.1-0.1,0.2-0.1,0.3
		c0.1,0.1,0.2,0.2,0.3,0.1l0,0c0,0,0.1,0,0.3-0.1c0.2-0.1,0.4-0.2,0.7-0.4s0.7-0.4,1.1-0.6c0.4-0.2,0.9-0.5,1.4-0.8
		c0.3-0.2,0.5-0.3,0.8-0.5c0.3-0.2,0.5-0.4,0.8-0.6c0.3-0.2,0.6-0.4,0.8-0.6c0.1-0.1,0.1-0.1,0.2-0.2c0.1-0.1,0.2-0.1,0.2-0.2
		c0.1-0.1,0.3-0.2,0.4-0.4c0.1-0.1,0.3-0.2,0.4-0.4c0.1-0.1,0.2-0.2,0.2-0.2c0.1-0.1,0.2-0.2,0.2-0.2c0.3-0.3,0.6-0.6,0.8-1
		c0.5-0.7,0.8-1.6,1.1-2.3c0.1-0.4,0.3-0.7,0.4-1c0.1-0.3,0.3-0.6,0.4-0.9c0.2-0.3,0.3-0.5,0.5-0.8l0.1-0.2c0.1-0.1,0.1-0.1,0.2-0.2
		l0,0c0,0,0,0,0,0l0,0l0,0l0.1-0.1l0.1-0.1C15.9,10.1,16,10,16,10c0.5-0.5,1-1,1.4-1.4c0.2-0.2,0.5-0.4,0.7-0.6
		c0.2-0.2,0.4-0.4,0.7-0.6c0.9-0.8,1.6-1.4,2.1-1.9c0.5-0.5,0.8-0.7,0.8-0.7c0.1-0.1,0.1-0.2,0.1-0.3c-0.1-0.1-0.2-0.2-0.3-0.1l0,0
		c0,0-0.4,0.2-1,0.5c-0.3,0.2-0.7,0.4-1.1,0.6c-0.4,0.2-0.9,0.5-1.4,0.8c-0.3,0.2-0.5,0.3-0.8,0.5C16.9,6.9,16.7,7,16.4,7.2z"/>
</g>
</svg>
