<?xml version="1.0" encoding="utf-8"?>
<!-- Generator: Adobe Illustrator 18.0.0, SVG Export Plug-In . SVG Version: 6.00 Build 0)  -->
<!DOCTYPE svg PUBLIC "-//W3C//DTD SVG 1.1//EN" "http://www.w3.org/Graphics/SVG/1.1/DTD/svg11.dtd">
<svg version="1.1" id="Layer_1" xmlns="http://www.w3.org/2000/svg" xmlns:xlink="http://www.w3.org/1999/xlink" x="0px" y="0px"
	 viewBox="0 0 117.6 20.9" enable-background="new 0 0 117.6 20.9" xml:space="preserve">
<g>
	<g>
		<path fill="#FFFFFF" d="M6.5,5.1c5.4,0,7.9,2.5,7.9,7.5c0,4.9-2.5,7.7-7.6,7.7H1v-1.6h1.8V6.7H1V5.1H6.5z M6.7,6.7h-2v12.1h2.1
			c3.7,0,5.7-2,5.7-6.1C12.5,8.6,10.6,6.7,6.7,6.7z"/>
	</g>
	<g>
		<path fill="#FFFFFF" d="M22.1,6.7v5.5h6.1v1.6h-6.1v5h6.3v-1.5H30v3.1H18.4v-1.6h1.8V6.7h-1.8V5.1h11.3v3.3H28V6.7H22.1z M27,1
			l-3.9,2.5l0.6,0.9l4.2-1.8L27,1z"/>
	</g>
	<g>
		<path fill="#FFFFFF" d="M39.6,5.1v1.6h-1.9v12.1h4.8l0-1.4h1.6v3H33.9v-1.6h1.9V6.7h-1.9V5.1H39.6z"/>
	</g>
	<g>
		<path fill="#FFFFFF" d="M53.3,5.1v1.6h-1.9v12.1h4.8l0-1.4h1.6v3H47.6v-1.6h1.9V6.7h-1.9V5.1H53.3z"/>
	</g>
	<g>
		<path fill="#FFFFFF" d="M75.7,18.7v1.6h-5.4v-1.6h1.8l-1-2.5h-6.8l-1,2.5h1.9v1.6h-5.2v-1.6h1.6l5.2-13.7h2l5.2,13.7H75.7z
			 M70.6,14.7l-2.8-7.2l-2.8,7.2H70.6z"/>
	</g>
	<g>
		<path fill="#FFFFFF" d="M93.1,5.1v1.6h-1.9l-5.1,13.7h-2.5L78.5,6.7h-1.8V5.1h5.8v1.6h-2l4.4,11.7l4.3-11.7h-2V5.1H93.1z"/>
	</g>
	<g>
		<path fill="#FFFFFF" d="M101.5,5.1v1.6h-1.9v12.1h1.9v1.6h-5.6v-1.6h1.9V6.7h-1.9V5.1H101.5z"/>
	</g>
	<g>
		<path fill="#FFFFFF" d="M109.3,6.7v5.5h6.1v1.6h-6.1v5h6.3v-1.5h1.6v3.1h-11.6v-1.6h1.8V6.7h-1.8V5.1h11.3v3.3h-1.7V6.7H109.3z"/>
	</g>
</g>
</svg>
