<svg xmlns="http://www.w3.org/2000/svg" viewBox="0 0 149.04 89"><defs><style>.e0615217-e834-46fa-99dc-c0591bc932a4{fill:#fff;}</style></defs><title>robusta mexico</title><g id="c1fce1a3-2163-4914-9ae4-e2ca58a62c46" data-name="Layer 2"><g id="6d250550-e853-4a61-8919-2d2081f04889" data-name="Banners"><path class="e0615217-e834-46fa-99dc-c0591bc932a4" d="M9.55,21.94l0-.11v-.26l-.07-.09-.12-.18-.06,0-.1,0L9,21.46l0,.18.07.18,0,.15-.09.2-.31.28-.11.2.14,0h.13l.11.05.16.15.11.08.1.05,0,0,0,0h0l0,0,0,0,0-.27v-.15l.06-.16v-.06l0-.11Zm11.59-2-.23-.12-.16-.06.06.08,0,0v0l0,0,.1,0,0,0,.19.16.11.06h.08l0-.1Zm1.18-.42h-.15l0,.06,0,.19,0,.06h.1l.09,0,0-.09v-.1l0-.1Zm-5-3.7-.05.1,0,.1V16l.22.26.17.26v.12h.12l.09,0,.07,0,.07.06.05.07,0,.09.06.1.44.32.43.43.25.15.13.06.12,0,.05,0v0l0-.05v-.06h-.05l0,0-.08,0,0,0-.06-.17v0l0-.15v-.66l-.06,0-.35,0h-.11l-.09,0,0,0-.07,0-.08,0h-.08l-.05,0V16.5l0-.14.06-.1v-.08l0-.07,0-.12-.05-.08-.33-.31-.11-.08-.16-.09,0,0h-.1l0,0h0l-.07,0,0-.07,0,0-.06,0,.07.27v.1Zm18.55,26-.18-.24-.18-.3L35.47,41l-.13-.12,0-.05,0,.13,0,.15.06.15.07.29.08.16.11.13.11.1,0,0,0,0,.05,0h.06l0,0v0l-.07-.12Zm-8.47-.9-.08,0-.09,0-.07-.07-.12,0-.13,0-.12,0,0,0h0l0,0v.06h.1l.32,0h.11l.11,0,.2.09,0,0-.08,0Zm-1.2-.45-.06,0-.16,0-.05-.06,0-.07,0-.05h.07v0l0,0,0,0,0,0v.07l-.14,0-.66,0,0,.05.28.09.07.07,0,.06.11.06.22.09.08.06.09.09.1.08.23.08.11.09.09.1,0,.07,0-.08,0-.09v-.19l-.27-.22Zm7.21,0,0-.07,0,0,0-.05,0,0,0,0-.1-.07L33,39.81l-.1,0,0,.06.07.19,0,.17,0,0,0,0,0,.05v.12l0,0,.07,0,0,.06v.06l0,0,.08,0,0,0,0,0,0,0,0-.07,0-.06ZM6.71,38h0Zm24.76-.68h0Zm-.07.09v.09l0,.07.12.15.14.28,0,.05h.06l.06,0,0,0,.12.13.06,0,.08,0h.07l0-.08-.22-.66-.17,0-.15-.07-.26-.18h0Zm.05-.1h0Zm-6.67,2.52-.06-.1-.07-.08-.08,0-.13,0,0-.1,0-.32v-.06l0,0L24.33,39l-.08-.25,0,0,0,0,0,0,0,0v-.1l.08-.67,0,0,0,0,0,0V37.6l0,0,0,0v-.06l.22-.72,0-.2,0-.16-.08,0v.06l.05.16v.08l-.05.15,0,.13-.14.45,0,.24-.24.74-.08.14-.1.13-.1.09.15.07,0,0v0l0,0,0,0H24l.05,0,0,0h0l.07.07,0,0,0,0v.26l0,0H24.2v.11h0l.08.11.13.07,0,0,0,.09.09.26,0,.05.17,0,0,0,0-.13Zm6.15-5.48-.07.1,0,.17,0,.16.09.07,0-.07v-.16l0-.17ZM29.51,33l.06,0,.08,0,0-.05-.12-.11v-.08l.1-.19v-.08h-.06l-.17.05h-.07l-.05,0-.08.09,0,0h-.06l0,0v.15l0,.09v0l0,0-.07.07-.09.44,0,.1v.07l0,.06.09.08.13-.47.2-.44,0,0v-.08l.09,0Zm-10-3.48-.08-.1-.06-.08h-.06l0,0,0,0,0,0v0l0,0,0,0h0l-.08,0-.06,0,0,0,0,0,.06,0,.12,0,.15,0,.13,0,.05,0,0,0h0v0Zm21.21,6.19-.06,0-.25-.08-.09,0h-.55l0,.07.07,0h.38l0,0h0l.13.05.18.1.16.07.09-.05-.06,0ZM35,27.6l-.13-.08h-.12l.1.08.11.06.09.07.06.13h0l0-.14Zm-2.66-1.14h-.09l.09,0Zm-.17,0-.07-.1,0-.13,0-.27L32,26l0,.11v.12l0,.08.09.07Zm-8.29-7.54.24-.54,0-.23-.06-.2-.23-.44v-.12l0,0v0l0-.06,0-.1,0-.09V17h-.13l0,0,0,0h-.28l-.05,0-.06.13-.09,0h-.21l-.07,0-.06.06,0,.07,0,.07-.06.18,0,.21,0,.21,0,.2.05,0,0,0,0,.06,0,0,0,0,0,0,0,0-.1,0-.08.07,0,.09v.08l.07.06.11.07.12.05.09,0,0,0,.12.09.05,0,.17,0,.17.12,0,0,.11,0,.05,0,.09,0,.1,0,.21-.1v0l0,0,0,0v-.08ZM11.59,4.48l-.15,0-.06.23.17.2.23.1.11-.07,0,0,0,0L12,5h.07L12,4.86l-.2-.21ZM94.58,49l0,0-.07.08,0,.05.12,0,.11-.14.06-.16,0-.09,0,.06ZM51.31,54h0v0ZM124,68.9l.15,0,.15-.06.26-.15-.1.17.17,0,.14-.11.19-.26H125l.17-.07h.1l0,0,0,0,0,0,0,0h.07l.06,0,.11-.07,0,0,0,0v-.12l0,0,0,0h-.08l-.22.1-.23.07-.07,0-.38.24-.14,0-.22.09-.05,0-.07.07,0,0H124ZM95.39,53.52l0-.1,0-.11,0-.1-.07-.07,0,.19.08.22.12.16.15,0,0-.06-.06-.06Zm47.88,17.54h0v0h0l0,0v.06l.08,0h0v-.07Zm2.65-1.32,0,.12,0,0,0,.06-.08.1,0,0h0l.19-.25.06-.17,0-.21Zm0-.27h0Zm0-.08,0,0v0l.1-.17,0,0Zm.27-.92.05.4,0,.14.06-.11v-.12l0-.24Zm2.58-9.1h0v0l0,.07-.08.06-.09,0h-.06l-.11.06h-.11l-.12,0h-.07l0,0H148l0,0-.08.07h0l-.15.2-.2.34-.06.19,0,.21,0,.11.07.21,0,.1,0,0,.08,0,.26-.23,0-.05,0,0,0,0,0,0,0,0,0,0,0-.08.12-.22.06-.08.15-.12.08-.08.06-.16.17-.28.06-.07v0Zm.07-3.17-.05-.12,0-.1,0,.07,0,.15.1.15.1.07Zm-.72,1.9V58l.12-.26.09-.26v-.2l0,0,0,0,.08,0,0,0h.06v-.07l0,0v0l.06-.13,0,0,.1-.22,0,0,0,0v0l-.24,0-.12-.23,0-.32v-.3l0-.12v-.14l-.08-.25-.05,0h-.12l-.1,0h0l0,.06-.05,0,0,0,0,0,0-.1,0,0,0,0,0,0-.26-.36-.14-.13-.08,0-.33-.1-.11,0-.54.25-.14,0-.1,0,0,0-.15,0h-.15l0,0,0,.05-.15.12v.06l0,0h0l.05,0h0v0l.1,0,.13-.1.08,0v0l0,.07,0,0,.1,0,.12,0h.12l.09,0,.08-.07.11-.06.12,0h.11l.07,0,0,0v.11l0,0v0l0,0,0,0-.06.1-.05,0-.35.15h-.09l-.08,0-.08,0h-.3l-.28-.09h-.11l-.22,0h-.09l0-.06h0l0,0h.05l0,0h-.06l0,0,0,0,0,0h-.3l-.27-.09-.33,0,0,0,.08,0,.1,0h.21l-.08,0h-.08l-.16,0h-.34l-.16,0-.16-.05-.15-.08-.12-.09.1,0,.34.06.07,0,0,0H144l0,0,0,0,0,0-.29-.08-.43-.06-.21-.05-.3-.12h-.53l-.22-.05H142l-.11,0-.13,0-.11,0-.1.05,0,0h0l.2,0,.17-.09H142l.12,0,.1,0h-.32l-.07,0-.06,0-.09,0-.27,0-.16,0h-.09l-.09,0-.17-.07-.08,0h-.39l-.1,0-.18.08-.1,0-.31,0-.1,0-.3.26-.17.11-.59.13-.17.07-.09,0-.22,0-.32.09-.42.07h0l-.1,0h-.1l-.12,0-.19,0-.4.11-.93.09-.68.11h-.39l-.53.09-.49.17-.09,0-.08,0-.3.2-.26.09-.15,0-.06,0-.11,0-.17.13-.32.11-.1.08-.55.32-.08.08-.05.08-.23.66h0l-.07.21-.1.12v0l.12,0,.1-.12.06-.14v-.07h0V58l.09-.18.07-.27h0v.16l-.12.28,0,.12,0,.14v0l-.06.1-.27.3,0,.13,0,.47-.11.42v.21l.07.4v.2l-.06.28v.38l0,.25V62l.15.26,0,.09v.09l0,.07,0,.07-.2.26-.44.31-.28.26-.09.14-.09.21,0,.12v.08l0,.08v.21l0,.2-.08,1-.06.16-.13.17-.17.13-.16.05-.1.07-.39.47-.38.24-.22.08-.1,0-.4.35-1.24.51-.09.07-.2.21,0,.07-.11.13v0h.19l.06,0,.11-.07,0,0,0,0v-.12l.12-.1.32-.16.32-.24.12,0-.08.1-.13.12-.15.1-.23.07-.11.08L126,68l-.07.12.09,0,.14.17.1,0,0,0,0,0,0,0h.11l0,0,.08.07.1.15v.15l-.16.37.07,0,.23-.06.12-.06H127l.08,0-.07,0-.19.05,0,.05,0,0h-.25l0,0-.08.15,0,.05-.06,0-.08,0-.09,0-.08,0-.14.08-.28.1-.12.06,0,0-.11.12,0,0,0,0,.13-.05h.05v0l0,0v0h0v.07l0,.15v.06l0,0,0,0,0,0v-.07l-.08,0-.11,0-.24,0h-.12l-.22-.05-.09,0-.14-.06-.3-.08-.12-.06,0,.08,0,.06.07.06.05.07h-.11l0,0,0,0,0,.09,0,.08,0,.07,0,.08H124l-.1-.07L123.8,70l0-.06,0-.07.12-.14v-.07l-.05-.06-.2-.05-.09-.05h0l.07,0,0-.06,0,0-.07,0-.07,0,.06-.1-.12,0-.06,0-.05,0-.1,0,0,.15.1.1.14.08.13.1-.09,0-.1,0-.08-.06,0-.06,0,0h-.07l-.11,0h-.06l0,0-.09-.07-.08,0,0,0v-.05l0,0,0,0,0,0,0,0v-.07l.05,0,.06,0h.06l.06,0v0H123l0,0,0,0h.16l.1-.08h.07l0,0,0,.06v.05l0,0h.19l.06,0v0l0,0h.06l0,0,0-.06V69l0,0-.26-.17-.18-.28-.15-.06H123l-.85.2-.52,0H121l-.31.07-.08,0-.43.17-.11,0h-.34l-.07,0v.06l.12.23,0,.1,0,.2v.1l0,.08,0,.14-.06-.13,0-.48-.06-.15,0,0h0l0,0,0,.05,0,.06-.09.08-.48.33-.2.09-.21.06-.8,0-.1,0-.08,0v0l.1,0,.11,0,0,.08,0,.07-.1,0,0,0,0,0-.07.1h0v-.07l.05-.09v-.07l0,0-.07,0-.08,0h0l0,0v-.11l0,0,0,0,0,0,0-.07v0l-.73,0-.68,0-.53.06-.22,0-.91.33-.06,0,0,.05-.09,0-.09,0,0,.09.05,0h.11l.05,0,.17-.12.22,0,0,0,0-.06,0,0,.35-.11.05,0,0,0,.06,0,.07,0h0l0,0,0,.11-.07.16-.06.05-.32.06-.1,0,0-.09-.06,0-.07,0h-.07l-.07,0,0,0-.06,0,0,0,0,0,0,0,0,0v0l0,.05-.07,0-.08,0-.39.05-.05,0,0-.07,0-.05,0,0,0-.05-.54.17-.09,0-.08.07-.38.08-.13.06-.11.06h0l-.34.09-.72.1-.17.06h-.11l-.14,0H111l-.16-.07h-.15l-.06,0-.16-.11h0l-.23-.47-.12-.14-.32-.3-.1-.16-.15-.37-.09-.14-.1-.06-.23,0-.08,0-.64-.1-.11,0,0-.06,0-.1-.06-.07-.42-.27-.17-.15-.08,0-.09,0H107l-.44,0-.64,0-.43-.07-.39-.14-.34-.24,0,.21.26.14.32.11.2.12-.08.07-.1-.06-.11-.09-.09,0-.11,0-.52-.15h-.09l0,0v0l0,0-.11.05h-.14l0,0-.05-.07,0-.07.05,0h.07l.13.05h.08v0l-.21-.14-.11-.09,0-.09-.09,0-.17-.08-.11-.09.1-.06.11,0,.17.17.27.07.23.17.12.06v-.17l-.06-.05-.1,0-.11,0h-.08l-.1,0-.11-.08-.18-.16-.1-.13-.09-.15-.07-.18-.07-.34,0-.06h-.2l-.12,0-.1-.06-.08-.09-.05-.09-.07-.25,0-.07,0-.09,0-.12,0-.07-.12.05-.07,0-.41-.33-.12-.06-.06-.09,0-.11,0-.18-.07-.16V65h0v0l.05-.12,0-.09-.17-.18-.05-.09-.17-.57-.06-.43-.17-.47-.08-.15-.26-.3-.32-.47-.32-.36-.17-.28,0,0-.05,0,0,0-.05,0,0,0-.06-.14-.09-.1-.3-.24-.34-.38L99,60.36l-.07-.09-.07-.19-.1-.08-.2-.1-.17-.14-.57-.65-.23-.45.05-.06,0,0,0,0,0-.09,0-.16-.35-.58-.34-.62-.29-.74,0-.18,0-.07-.08,0v-.05l-.33-.63,0-.1,0-.2V55L96.13,55l-.08.06-.07,0h-.07l-.08,0-.08-.07-.39-.66-.07-.19-.08-.42-.1-.33,0-.41,0-.2-.12-.27,0-.09,0-.05-.08-.18,0-.11.07.16.4.68.13.08.05.11.08.33v.06l0,0,.11.09.23.32.27.26.07.12.24.2.19.12.1.08,0,.08v.16l0,.07-.05.08,0,0-.09,0-.1,0-.08.05-.08.09v0l0,0,0,.16.12.24.06.34h0l0-.22,0-.11.05-.09.06-.07.14-.22,0-.08,0-.21.07-.2v-.2l-.13-.21-.35-.21-.05-.07-.05,0-.27-.23-.09,0-.5-.55L94.85,52l-.05-.18v-.6l0-.1-.08-.22,0,0,0-.05,0-.25,0-.07v-.14l-.15-.5.1-.4V49.2h0l0,.06,0,.07,0,.15v.05l0,0-.06,0h-.06l0,0v-.07l0-.07.17-.36V49l-.09-.1.13,0h0l0,0v-.07l0,0,.16-.16,0-.07.15-.51.05-.06v.36l.06-.6-.13-1.41.05-.88.08-.47.1-1L95,43.79l0,.15,0,.32,0,.13h0l0-.45,0-.12-.07-.05h-.24v0l.35,0,.09,0,0-.08,0-1,0-.2,0-.17.28-2.12.94-3.25.68-1,.28-.54.18-.42.13-.31.06-.2.06-.08,0-.09V34l0-.1,0-.19.14-.67-.33,0h-.3v.08l-.06.05,0,0h0l-.11,0L97,33.21l-.11.07h0l0,0v.09l0,.11v.1h0l-.1,0h0l0,0,0,0,0,0h0v.05h0l0,0-.1,0-.05-.07,0-.08,0,0h-.19l-.08,0L96,33.31l-.22-.21-.14-.06L95.61,33l0-.08,0-.06-.09-.07-.09,0-.1,0-.43,0-.07,0V32.6l-.1,0h-.37l-.31,0-.28,0h-.07l-.15.07-.1,0,0,0,0-.12-.1,0-.23.06h-.17l-.18,0-.38-.18,0,0L92,32.14l0,0h-.13l-.06,0v0l0-.1-.14,0-.15-.08-.14,0v0l-.06.07h0l-.1-.11-.14-.05-.15,0-.14-.07-.29.1h-.06l-.05,0-.1-.09h-.08v0l.06-.07,0,0-.06,0H90l0-.08L90,31.26l-.17-.1-.07-.08,0,0h0l0,0h0l-.05,0h0l0,0h-.09l0,0-.11,0L89.12,31,89,31,89,31l0,0h-.12l-.08,0H88.7l0,0h-.31l-.1-.08v-.06l0-.06,0-.06,0-.06v-.06l-.06-.14-.06-.07-.13,0-.12,0,0-.12,0-.24V29.8l-.2-.52L87.63,29l-.07-.21-.07-.08-.08-.08-.07-.08-.16-.17-.05-.06-.2-.14,0,0,0-.05V28l0,0h-.13l-.07-.05,0,0-.09-.11.1-.16v-.09l0,0,0,0v-.12l.07-.21,0-.09v-.1l0-.09-.05-.08-.07-.07h0l-.06,0v-.06h0l0,0-.14,0,0-.05h0l.08-.08,0,0v-.05l0-.06v-.1l0-.11v-.26l0-.07,0,0,0,0h-.08l0,0v-.36l0-.07-.1-.08-.1,0L86,25l0,0-.06-.09,0,0h-.06l-.1.05h-.05l0,0,0-.08,0,0h-.17l0,0,0,0-.06-.09,0,0,0-.05v-.06l0,0,0,0-.09,0,0,0-.06-.06,0-.07-.05,0h0l-.12,0v0l-.06-.06-.07,0h0v-.2l0,0,0,0,0,0V23.7l0-.08,0-.05v0l-.08,0-.09-.07-.08-.09,0-.07.06-.07-.06,0-.1,0-.07,0-.07-.08,0-.06,0-.06,0-.08v0l0,0v0h0l-.07-.05-.07-.07v-.1l0-.11-.09-.08L83,22.12H83l0,0,0-.06V21.9h0l-.14,0-.08-.05-.08-.08,0-.09,0-.09v-.08l-.08-.11-.14-.16,0-.17,0-.18,0,0,0,0,0,0v-.05l0,0h0l.14-.07h0l-.2-.07-.1-.06-.07-.1v-.17l0,0,0,0-.12,0-.05,0v-.08l-.18-.21-.06-.11-.12-.47,0,0,0,0,0,0,0,0,0,0h-.07l0,0,0,0,0-.06,0,0,0,0-.07,0v0l0-.08-.06-.05-.06,0,0,0v-.12l0,0,0,0,0-.11,0-.1-.1-.19,0-.28,0-.07,0,0h-.12l0,0v0l-.26-.19,0-.07,0-.11L80,17,80,16.93l-.1-.06-.23-.1,0,0-.1-.11-.12-.09L79,16.39l-.05,0,0,0,0,0,0-.05,0-.07,0-.14,0-.08-.15,0-.33-.09-.14-.07-.09-.1,0,0h-.11l0,0,0-.07,0-.15V15.2l-.07-.06h-.12l-.12.06-.08.07-.06,0v-.07l0-.1V15l0,0h-.13l-.06,0,0,0,0,0-.06-.12,0-.09L77,14.56l0-.06v-.06l0-.06,0,0h-.16l0,0,0-.06h0l-.09,0-.08.06-.08,0-.1,0,0,0,0-.08v0l0,0,0,0h0l0,0,0,.09-.05.05-.08,0-.26,0-.8-.1,0,0v-.05h0l-.06,0h-.16l-.1,0h0l0,0,0,0,0,0h-.09l-.06,0-.07-.05-.07,0-.08.06-.13,0-.47,0-.18-.07-.06,0L73.08,14H72.9l-.07,0,0-.09-.09,0-.06,0-.06-.06-.09,0,0,0h0l0,.09h0l-.06,0H72.3l0,0h0l0,0v.13l0,0-.12.15v0h0l-.53,0h0l0,.06h0l-.05,0h-.08l0-.05h0l-.09,0-.18.09-.09,0h-.22l0,0h0v.08l0,.05-.14.22,0,.07h0l-.08.13h0l0,.08,0,0-.06,0h0l0,.06v0h0l0,0h0l0,.07,0,0h0l0,0h0l-.16.36,0,0,0,0v.12l0,.06v.06l0,.06v0l0,.07v0h0l0,0h-.09l-.06,0h0l0,0v.14l-.07.19v.06l0,0,.12.07,0,.05h0l-.05,0-.13,0-.22.15h0l0,0h0l-.11-.05,0,0-.06,0h0l-.13.25,0,.05h0l0,0-.2.09,0,0h0l0,0,0,.09h-.07l0,.17-.07.13h0l-.12.06-.19,0L68,18.17H67.7l-.07,0,0-.07v0l-.07,0,0,0L67.5,18h0l0,0h0l-.06,0-.07,0-.14-.12,0,0-.06,0-.21-.1-.25-.22,0,0v0l0,0,0,0h-.17l-.43-.09-.14-.07-.23-.17,0,0H65.4l0,0,0-.11,0,0,0,0h-.05l-.34,0-.31-.06-.45-.13L64,16.53l-.24-.23-.17-.07-.11-.08L63.33,16l-.09-.18,0,0,0,0-.12-.08L63,15.61l-.12,0h-.14l-.09,0-.05-.07-.4-.22h0l0,0,0,0,0,0,0,0L62,15.13,61.75,15l-.07-.07,0,0v-.12l0-.07-.09-.14,0-.21-.07-.07-.09-.06-.09-.09,0,0-.07-.23-.09-.1,0,0v0L61,13.6l0,0v-.17l-.09-.27V13l0-.1.07-.18,0-.11v-.29l-.07-.08-.09-.17,0,0-.09,0,0,0-.06-.1-.06-.13-.07-.12-.09-.05,0,0v-.15l0,0-.07,0,0,0,0-.05v-.18L60,11v-.09l0-.06v0l0,0-.08,0v-.2l-.06-.09-.15-.15,0-.05,0,0-.16,0h0l0,0V10L59.34,10l-.1-.06-.11,0-.09,0-.09,0-.23-.24,0,0h0l-.06-.06h0V9.49l0,0h-.09l0,0,0-.07,0,0h0l-.05,0h0l0,0h0l-.05,0,0,0,0,0,0,0-.28-.12-.14,0-.06,0-.19-.21-.4-.26-.17-.17-.12-.05,0-.07-.06-.17L56.49,8,56.41,8l-.09,0-.1-.06-.12-.12,0,0-.08,0-.37-.21,0-.06,0-.09L55.16,7l-.09-.06-.08,0v0l-.06,0-.09,0,0,0,0-.08,0,0-.06,0-.21-.13-.08,0h-.12l-.09,0L54,6.29l-.2-.05-.11,0,0-.06-.17-.08,0,0V6l0,0,0-.07-.21-.21-.06-.09L53,5.21,52.86,5l-.13-.17-.16-.14-.18-.06-.22,0-.1,0L52,4.62l-.05,0H43.63V6.79H30l-.3,0-.13,0-.25-.08L29,6.55l-.25-.08-.25-.08-.25-.08L28,6.23l-.25-.08-.25-.08-2-.62-2-.62-2-.62-2-.62-2-.62-2-.62-2-.62-2-.62-.18-.06h0L11.32,1l.07-.2V.68l0-.1.08-.13,0,0h0l.11-.08,0,0h0l.06-.08,0-.09,0-.12h-.2l-.36,0-.36,0-.36,0-.36,0-.36,0-.36,0L9,.21l-.36,0L8.3.26l-.36,0-.36,0-.36,0-.36,0L6.5.4l-.36,0-.36,0-.36,0L4.7.53l-.36,0L4,.59l-.36,0-.36,0L2.9.67,2.54.7l-.36,0-.36,0-.36,0L1.1.81.74.83.38.86,0,.89H0l0,0v.35l.05.08.09.16.07.17.24.45.07.06.21,0,.09,0,.07.06L1,2.42l.09.2.09.23,0,.31,0,.17,0,.11.11.13.19,0h.17l.06.06v.15l.06.09.09,0L2,4,2.12,4l.07.07.07.05.2.05.07.05,0,.12v.11l-.1.14,0,.1-.06.09-.09.05-.09,0L2,4.75l-.12,0v0l.15.13,0,0,.07,0,0,0,.07.09,0,.09,0,.13,0,.08v.07l.1.11H2.18l0,.06,0,.07.11.07,0,0,.19.13,0,.05V6l0,0,.05,0,.07,0,.1.07.07,0,0,0L3,6.32l0,0,.05.06.24.33.52.59L4,7.67V8.1l-.08.21,0,.12,0,.09.09,0h.2l.09,0,.12.15,0,.06.08.11,0,0,.61.35,0,.05v.09l.09.26,0,.5L5.29,11l0,.19.09.18.1.09,0-.06,0-.11,0-.06,0,0v0l0,0,0,0h.11l.05,0,0,0V11l0-.06,0-.06,0-.07.08,0,.09.06.07.08,0,.07,0,.07-.05.06-.14.11h.21l.18,0,.15.07.13.13.08.15.07.19,0,.21v.22l0,.16v.1l0,.07v0l0,.31,0,.11-.1.34,0,.06h.22l.09,0,.08.06,0,.07.06.17,0,.07L7,14l0,.12,0,.12v.09l0,.08.35.25.2.08.08.06.08.17.06.09.08,0h.2l.07,0,.11.09.34.21.36.15.32.18.22.3.41,0,.65.2.08,0,.38.41,0,.08,0,0,.49.31.07,0,0,0,0,.06,0,.12,0,.05,0,0,0,0,.05,0,.2.07.14,0,0,.07,0,.09,0,.08,0,.08,0,.07v0l.06.05.05.06.05,0h.06l0,.05.08.11,0,.06v0h0l0,0h.07l.12,0,.13.05.09.12,0,.07h.09l0,.07V19l0,.09.1.05,0,.09.07,0,0,.1,0,.1v.06l.21.09.12.1,0,.07,0,0h0l0,0,.1,0h.3l0,0,0,.05.07.14,0,.08v.06l0,.07v0l0,0h.16l.07,0,0,.05,0,0,0,0,0,0,0,.06v.06l0,.05,0,0,0,.08V21l0,.06-.11.32-.1.21-.06.11,0,.05,0,0v0l0,0h0l0,0h.05l0,0L15,22l0,.06,0,0,0,0,0,0,0,0,0,.09-.05.11-.07.07,0,0v.09l0,0,0,0,0,.06-.1.11-.15.19-.1.11h0l0,0-.08.07,0,.06-.1.08,0,0,0,.07v.14l0,0h0l0,0,0-.05.09,0h.06l.05,0,0,0h0l0,0v0l0,0h0l0,0v0l0,0,0,0,0,0,0,0,0,0v0l0,0,0,0v0h.07l0,0,0,.06-.06.06-.08.09,0,.05,0,0v.19l.05.07,0,0,0,0,0,.06v.06l0,0,0,0,0,0h.06l.06,0,.06,0,0,0h0l0,0h0V24.4h0l0,0,0-.06,0,0,0,0v-.05l0-.07,0,0v0h0l0,0,0,0,0,.08.06.09h.15l0,0h0l0,0v0h.07l.07,0,0,0h.05l.05,0,0,0,0,.06-.06,0,0,0,0,0,0,0,0,0h-.07l-.13,0-.09,0,0,0v0l0,0-.06,0,0,0v0l0,0h-.1l0,0v0h0l0,0v0l0,0v0l0,0,0,0,0,.07,0,.06-.09.06v0l0,0-.06,0,0,0v-.09h0l0,0v0l0,0,0-.07-.07-.06-.13,0-.09-.06-.14,0-.08,0-.11-.1-.1,0-.11-.14,0-.07,0,0,0-.06,0-.08,0-.08,0-.09v-.08l0,0H13.7l0,0-.05,0-.1.06-.1.06,0,.05-.05.05-.14.09-.15.06-.08,0-.09,0h-.09l-.75,0-.1,0-.08,0-.1-.07-.08,0h-.32l-.19-.07-.08,0h-.29l-.3,0-.09,0-.2-.13h-.07l0,.07,0,.1h.05l0,0v.11l0,.06v.16l0,.09.09,0h.1l.06,0,.07.06.11.17.08,0,.06,0,0,0,0,0H11l.05,0,0,0,0,.05,0,.06h0l0,0h0l.06.05.25.08.1.07,0,0,0,.15,0,0,.07.08,0,0,0,.06.11,0,.21.05.28.14.08,0,0,0,.15.14.12.07,0,0,.12.15.06.16,0,.19v.41l0,.06.06,0h.12l0,0v.15l0,0,.11.08.1,0,.15,0,.16.07.11.07h0l.16-.07.08,0h.07l.07,0,.13,0,.17.08.16.09.1,0,0,0,.11.2,0,.07.24.29.06,0,0,0,0,0,0,0,.3,0h.1l.19.07.16.1.15.1.16.36.08.16,0,.07,0,.07.29.15.24.23.08,0h.22l.08,0,0-.08.08-.06.08-.08.08-.07.1,0v-.09l.11,0h.14l.11.05h0l.16,0,.12,0,.32.21.07,0,0-.05,0-.07v-.18l0-.06.06-.06.06,0,.21-.21,0,0v-.31l0-.11.08,0,.09,0,.07.07,0,.08v.25l0,.05,0,.09,0,.05-.07,0,0,.06-.06.06,0,0-.07,0,0,0h-.09l0,0,0,0v.07l0,.06,0,.05,0,0,.06,0v0l0,0h.13l0-.06,0-.06.07,0,.06,0h0l0,0,0,0-.07,0v.12l0,.05.05.08.05.06.06,0,.08.09.05.07.06.09,0,0v.05l0,.05,0,.08,0,.06L20,30l.1.13.07.07.08,0h.12l0,0v0h0l.22.13h0l.09.06.09.09.16.11,0,0,0,0,.06,0,.08.07h.07l.14.08.1.07.18.26.06,0h.29l0,0,.06,0,0,0,.06,0h.05l.07,0,0,.05v.09l.29.18.08,0,0,0,0-.05.06,0h.05l.2.1.12.1.17.21.11.23,0,.14,0,.16.1,0,.12,0,.13.06.09.1,0,.08.08.1.12.08.28,1,0,.18V35l0,.11v0l0,0h0l0,0,0-.1v-.22l0-.42.06-.2,0,.17v.65l0,.19v.09l0,.07,0,.06v.05l0,0v.94l0,.06-.1.09-.09.12,0,.13v.61l0,.16-.11.09v0l0,.06v0h-.07l0,0,0,.1v.06l0,.08v.1h0l0,0h.05v0l0-.12,0-.09v-.11l0,0,0,0,0-.08v-.12l0,0h.06l0,0v.21l0,.07v0l0,0-.07,0,0,0v0l0,0,0,0,0,.11,0,0-.09.07-.05,0,0,.14h.07l0,0v.2l0,.09,0,.07,0,.05.07.05h-.05l0,0,0,0,0,.06.09,0,.06-.07,0-.1v-.1l0-.15,0-.06.08-.05,0,.05v0l0,0,0,0L25,39l.07.08.08-.09,0,0,0,0h.08l0,0L25.18,39l0,0,.08-.05h0l-.1-.09,0-.11,0-.13,0-.14.06,0,.05.09,0,.1v.08l0,.07.07.1.1.09.1.06h-.1l0,.07.22.2.16.08,0,0,.07.08,0,.41,0,.15,0,0h0v0l0,0,0,0h.13L26.15,40l0,0,0,0,.29,0h.14l.11-.07-.05,0v-.05l0,0,.08,0,0,0,0,.06,0,.13.12.26.1.14.11.1.21.07.06,0,.05,0,.23.24.13.1.15.08.17,0v0L27.78,41,27.67,41l0,0,1,.49.15.13.45.17.06.09.13.07.24.1.29.22.16.16.15.11.07.09.13.27.05,0,.1,0,.11,0,.18.1.32.28.5.55.32.24.15.08.74.25.08,0,.33.27.07.09.25.63.12.17.17.12.07.07,0,.09v.1l.18.52.1.6.12.32,0,.1,0,0,.12.17.07.13.06.05.15.09.08.07,0,0h.18l.06,0,.07-.05,0,0,.22,0h0l.07,0,.13,0,.09-.08.08-.09.08-.07.21-.09.07-.07,0-.12,0-.08.09-.07.68-.35.13-.09.16-.16.06-.08,0-.07v0l.06-.08,0,0v-.2l0,0,0-.06,0-.06L37.67,46l.06-.27,0-.09,0-.08-.05-.08,0-.09v-.09l0-.08,0-.07L37.53,45l0-.06,0-.11,0-.05-.07-.06-.17-.06-.08-.06-.07,0-.5-.12-.11,0,0-.07v-.1L36.34,44v-.11l0-.21,0-.08-.08-.1-.09-.08-.23-.14v0l0-.06h-.07l0,0,0,0,0,0,0,0V43l0-.1,0-.12.06-.11.05-.07-.09-.11,0,0,0,0v0l0,0h0l-.07,0-.24.1h-.08l-.21-.06L35,42.36l-.06-.17,0-.19,0-.05-.05-.06-.11-.1-.09-.06-.17-.06-.41-.2,0-.07,0-.09L34,41.26l-.12-.09,0-.07,0-.07,0,0-.11,0h-.16l-.11,0,0,0,0,.09v.26l.16.31,0,.21,0,0-.09.06h0l0,0,0,.06v.06l0,0-.11.06-.09,0-.07-.08-.08-.21v0l.05,0,.15,0,0,.07.07,0,.09,0,.08-.06,0-.05h-.35l-.25-.05-.16,0h-.06l-.06,0-.13-.07h-.06l-.08,0-.19-.26,0-.07-.08,0-.09-.11-.15-.22-.08-.19,0-.25-.06-.16-.08-.12-.1-.26v-.47l.06-.19.13-.16.05-.08,0-.11v-.39l0-.16V38.3l0,0,0,0,0,0,0,0,0-.1L31.36,38l-.07-.08-.06-.09,0-.06v-.1l0-.06,0,0,0,0,0,0-.1,0-.05,0-.21-.16-.2-.3,0-.09,0-.12,0-.09-.06-.08,0-.09V36.3l-.08-.16L30,35.9l0-.08,0-.09,0-.1v-.38l0-.09-.12,0,0-.07-.08,0H29.4l-.08,0-.16-.19-.06,0,0,0L29,34.6l0-.11,0-.1,0-.11h-.07l0,0-.2-.26,0,0V33.7l0,0h-.1v0l0-.13,0-.15,0,0-.05-.09,0-.09v-.09l0-.09.09-.09v-.16l.05-.21,0-.19-.11-.08-.06-.09L28,31.57v-.14l0,0,0,0v-.1L28,31.18l-.09-.06-.06-.06V31l-.17-.14,0-.09,0-.14.06-.11.07-.1,0-.09-.09-.07-.08,0-.1,0-.1-.06-.08-.06-.06-.06,0-.06v-.62l0-.1-.06,0-.08,0L27,29.2l-.14-.1-.15-.16,0,0-.19-.1-.08-.06,0-.06L26,28.48l-.15.05,0,.2.06.19,0,.26.07.23,0,0,.09,0,.09.09.16.16.17.15,0,.09V30l-.18.16-.09,0-.12-.06-.05-.06-.12-.23L26,29.77l-.06,0-.12-.05,0,0,0,0,0-.09,0,0-.07-.08-.08-.06,0-.06.07-.14v0l0,0,0,0,0,0v-.15l0-.05-.24-.22-.07-.08-.05,0-.09,0,0,0V28.3l0,0-.09-.06L25,28.09l0-.15v-.11l.07-.11.1-.05.11,0,.12,0,0-.07,0,0,0,0h-.1l-.35-.11-.13,0h0l-.31-.17h-.1l-.06,0-.15-.07L24,27l0-.1v-.07h0l.05.08,0-.13L24,26.68l-.1-.09-.08-.12,0,0,0,0-.06,0-.05-.05v-.17l0,0V26l0-.27,0-.07,0-.07-.13-.26-.05,0h-.1l-.23-.07-.09,0-.12-.12L22.78,25l-.09,0h0l0-.07,0,0h0l0,0h0l-.16,0h0l-.07,0-.07-.07-.05-.08,0-.09,0-.07-.11,0-.12,0-.09,0,0-.06,0-.08,0-.09v-.1l0-.07-.18-.1-.06-.08v-.06l0-.09v0l0,0v-.08l0,0,0-.1,0-.2.07-.07,0,0,0,0,0,0h-.08l-.07,0,0-.06v-.07l0-.07v-.07l-.08-.19,0-.15.07-.12v-.06h0l0-.16-.29-.24-.07-.18.06-.27,0-.18,0-.11v0l0,0v0l0,0h0l0,0h0l0,0,0,0-.15,0h-.49l-.06,0-.31-.19,0-.05,0-.07-.09-.4,0-.08-.09-.13,0-.09-.05-.07-.09-.22v-.25l-.06,0,0-.08,0-.07-.08,0-.09,0-.27.08,0,0-.08,0-.08,0-.08,0,0,0,0-.14,0,0,0-.06,0-.06v-.06l-.06-.06,0-.05v-.05l0,0-.06,0,0-.08v0l-.11,0h-.06l0,0v-.1l-.1,0-.13.05,0,0,0,0v0l0,0,0,.08v0h-.14l-.13,0,0,0-.15-.27.06,0v-.06l0-.08,0-.08,0-.07.06-.15v0l-.09-.24-.05-.06-.05,0-.06,0-.07,0v-.13h-.11l0,0L17,17.22l0,0v-.26l0-.05-.05-.07-.49-.51-.77-.6-.48-.37L15,15.26l0-.06,0-.08-.05-.07-.63-.6,0,0-.12,0,0,0,0,0h0l-.06,0-.07.07-.05,0h-.07l0,0,0,0-.05,0-.05,0h-.09l0,0,0-.05v-.11l0-.22,0-.11,0-.06-.09,0h-.1l-.08,0-.07-.2-.09-.06-.21-.09,0-.06L12.49,13v-.05l-.19-.3,0,0h0l0,0v-.07l-.08-.16,0,0,0,0v-.08l0-.07V12l0-.09v-.1l0-.07,0-.16,0-.19,0-.48v-.07l-.06-.09,0-.05v-.21l-.05-.08L12,10.32l0-.08,0-.3,0-.54V9.27L11.83,9V8.74l0,0,0,0v0l-.05-.05-.35-.1-.09-.06-.05-.09v-.1l.06-.11V8.08L11.2,8l-.1-.08L11,7.83l0-.15v-.2l.16-1.67,0-.2.08-.16.17-.18,0-.1-.06-.11L11.34,5l0-.1-.06-.35,0-.06-.07,0H11l-.12-.11-.06-.09V4.17l0-.06-.06-.06-.07,0-.08,0-.13,0h0l0,0,0,0-.07-.11,0-.06V3.66h0l0,0,0,.06v.06l0,0h0l.07,0h.11l.06,0,.11,0h0l.28.18.1,0,.06,0,.13.15.07.05h0l.17,0,.06,0,.1.07,0,0,0,0,.09.09,0,0h.41l.09,0,.73.55.09,0,.43.2,0,0,0,.06,0,0,.05,0,.06,0,0,0,.09.07.09.06.21.09.4.11.23,0,.21,0,0,0,0,0,0,0h.06l0,0,0,0,0-.05,0-.11h.06l0-.06h-.07l0,0V5.14l.07,0,0,.19.09.08h.07l.06,0,.14,0,0,.09.12,0,.27.07.72.32.09.1,0,.15,0,.37,0,.14h-.13l.08.06.62.24H18l.79.21.28,0-.08,0-.07,0-.06,0L18.84,7h.07L19,7h.06l.05.14.07.06.14.09.14.11.07,0,.07,0,.06,0,0-.05-.08-.06-.06,0,.18,0,.13.12.1.15.09,0,0,.19L20,8l-.07.25-.1.16,0-.09-.07-.14V8l0,0h0l0,0v0l.15.38,0,.2v.2l-.12.42,0,.19.22.6.13.19.59.63.24.32.07.14.06.19v.2l-.1.18.05,0,0,0v0H21l.06,0h0l.07,0,.06.06.15.23,0,.13V13l0,.08,0,.07,0,.07,0,.1-.1.25v.07l0,.06h.06l.07,0,.06,0v0l0,0,0,0h.07l.07.12.1.28.06.08.08.09.07.1,0,.19,0,.07,0,.06.13,0,0,0,0,.06.23.36.08.08.17.12,0,.07,0,.12,0,0,.13,0,0,0v.2l0,.1-.11.19,0,.1,0,.12.06.08.19.11.08.09,0,0,0-.06v0l0,0v0h0l.31,0,.1,0,.14.12.05.18,0,.2-.1.2.09,0,.09.05.07.06,0,.06,0,.12v.09l0,.09v.05l0,.09.09.23v0h0v0l0,0,0,0h.2l0,0,0,.06,0,.05.08,0,.11.07,0,0,0,.09,0,.05,0,0,.1.07.33.17.09.07.1,0,.09,0h.08l.05.09v.11l0,0,0,0,0,0,0,0,0,0,0,0-.09,0-.08,0,0,.08v.08l.09.14.78.67.11.14.09.15.08.21.06.09.08,0h.1l.11,0,.56.25.21.06.17,0,0,.09,0,.05,0,.06,0,.11.06.08.22.17,0,.05,0,.11,0,.07v0h.11l0,.05.13.19.06.14.16.22,0,0,.47.43.19.13.13,0v.1l0,0h.12l.19-.1.11,0,.12,0,.11.06.1.08.08.08h-.07l-.06,0,0,0,0,0,0,0,0,0h.14l.11.14h0l0,0,0,0,0-.08,0-.06v-.07l0,0,0,0h-.07l.1-.1,0-.07,0-.08v-.14l0,0h.06l.06,0,0,.05v.11l0,0,0,.06-.15.06h-.05v0l.18,0h.34l.35.08.08,0,.15.09h.07l0,0-.06-.05H32l.29.11.1,0,0,.1-.06,0-.25,0H32l0,.1,0,0h0l0,0,0,.06v.06l0,0H32l-.06.12v.07l.09,0h.17l0,.05h-.11l-.07,0,0,0,0,.16,0-.06.07,0h.06v.08l-.05.06-.1,0h-.11l-.08,0,0,.23.19.37.06.38.09.18,0,.12v.12l0,0,.05,0h0l.06,0,.09-.07,0,0,0,0,.07,0v0l0,0v0l0,.06.13.14-.06.06h-.18l-.09,0,.08,0,.18,0,.08,0,.23.14.13.11.18.2.08.13h.3l.19.09.1,0,.23,0,.11,0,.21.07.09.06.06,0,.06,0,0,0,0,0,0,0H35l.08,0,.07.05.12.17.22.61-.1-.07L35.22,28l-.1,0,0,.09.16.16,0,.07,0,.07.07.15,0,.11,0,.15.09.18.12.17.23.23.12.09.15.05,0,0,.12.06.11,0,.1-.09.08,0,.67.1v0l0,0-.06,0h-.07l0,0v0l0,0v0l-.09,0-.09,0,0,0,.05-.09.08-.05h.08l0,.05v.09h.18l.06,0,.07,0h0l0,.09-.05,0h-.08l0,0h0l.17,0,.05,0,.11.13.5.44.11.12.08.17.05.19,0,.19-.07.34,0,.07h0l.14-.14h.1l.1,0v0l0,0,0,0,0,0,.14.07.09.16.11.21h.14l0,.07,0,0h-.05l0,0v.06l.07.12v.05h-.07L39,31.64l-.1,0v0l.06,0,0-.08v-.1l0-.09-.06,0-.1,0h-.1l0,0v.26l0,.09h0l-.15.26,0,.15,0,.06,0,0h0l0,0V32l0-.05v-.15l0-.07h0l0,0,0,0,0,0,0,0,.05-.11,0-.06h0l0,.05,0,.08-.09.16,0,0-.18.3-.06.2-.08.1-.18.18-.18.27,0,.08v.31l0,.11,0,.08,0,0v.17l0,0h0v0l0,0-.05,0,0,0v-.05h0l0,0-.06.19,0,.1,0,.08.1,0,0,0v.24l0,.09.05.07,0,0v-.28l0-.06.06,0H38l.08,0,.11.05.09.06,0,.05v0h0v.05l0,0v.19l-.14,0H38l-.14,0-.11.07.18,0h.54l.17.05.13.12.11.14.11.1,0-.1L39,34.86l-.34-.26,0,0,0-.05v-.06l0,0,.13.08.15.07h.06l0,0,0,0,0,.1.06.11.06.06h.09l.12-.07.13,0,.1-.07.16-.22.1-.07.24-.07.12,0,.08-.07.07-.15.07-.1.11-.2.06-.06,0,.07,0,.1-.19.16,0,.1v.19H40.3v.1l0,.07-.26.24h0l0,0V35l0,.06v0h0l0,0,0-.09,0,0-.05,0h0l-.17-.06-.06,0,0,0,0,.06,0,0,0,0-.11,0,.24.25.15.1h.14l-.06-.07,0-.05.07,0,.24,0h0l0,0v0H40l.05.07.06,0h.07l.08-.05,0,0,0,0,0,0v-.11l0,0,0,0,0-.05V35h0l.06,0h.11l0,0h.06v0h0l.17.06h0l0,0h0v.37l0,.15h0l.06,0H41v.07l0,0,.06.08,0,0h-.2l.07.09h.12l.26-.08.15,0,.19.15.12.05-.36-.1-.2,0L41.1,36h.17l.21,0,.2.05.29.17.51.19.08,0,.08.06.07.07,0,.1v.08l0,.22v0L42.8,37l.12-.53,0,0,.12,0,0,.05,0,.06v.21l-.05,0L43,36.78h0v0L43,37l.09,0,.14,0h.13l.07,0,.07,0,.05,0,0,0h.07l0,0,.11.17.09.09.05,0H44l0,0v0l0,0h.08l.06,0,.51.42v.11l0,0-.16-.06-.21,0-.08,0-.1-.1,0,0,0,0h0l0,0,0,0,0,.09v0l0,0H44l0,.07v.14H44l-.09-.06h0l0,0h-.06l0,0-.06-.14-.3-.32,0-.08-.09,0-.11,0h-.11l0,.06,0,0,.1,0,.17.13.12.14.38.71.15.19.18.11h0v0l0,0,0,0,0,0,0,0h.06l0,0v-.22l0-.16v-.12l-.06-.26v-.09l.06,0,.2.15.05.07-.07.13,0,.06v.08l0,.17v.08l-.06.05.06,0,.07.07.05.09,0,.09,0,.11h-.08l-.08-.05,0,0-.09,0,0,0h-.05l0,0v0l0,0,0,0,.05,0,.05.07,0,.09,0,.08,0,.18,0,.08,0,.07.42.35.37.21.13,0L45.57,40l-.21-.11-.08-.06-.15-.15-.07,0,0,0,0-.05.12,0,.12.05.11.08.09.09.07,0,.06,0,.2.19,0,0,.07,0,0,0,0,0v.1l0,0,.1.07,0,0h.07l.1-.06.1.06.07.09.09.06.15,0,0,0,.13-.12,0,0,0,0-.13,0h-.07l0-.06.07,0h.16l.08,0,.05.05.18.38,0,.07v.09l0,0,0,0-.05.06h.07v0l0,0v0L47,40.82l-.09,0,0,0,.07,0,.15.08.05,0-.08,0-.06,0-.08,0-.68-.4H46.2l-.39-.2h0v-.1l0,0,0,0h0v.05l0,.09.08.08,1.14.64.3.26.18.12.19.08.06.06,0,.12.05.05.32.2.7.44.26.23.06,0,.09,0,.24.17.65.66.14.24.06.21.08.1.09.09.06.09,0,.23.05.1.21.07.09.06.14.14.11.15.07.08.13.06,0,.06.05.12,0,0,0,0,.2.17.09.06.08,0,.06.05.18.33h0l0,0V46l-.06,0v0l.08.06.17.25,0,.07v.22l.05,0,0,0,0,0h.06l.09,0,.46.49.1.07.05,0,.09,0,0,0,.92,1.09.05-.05.06,0,.06,0h.07l-.1.13v0l0,0,0,0v0l0,0,.21.12.08.08.22.26.4.36.16.23,0,.27h0l0-.06,0,0,0,.07,0,.07,0,0,0,0,.06.15.18.27.18.42,0,.16-.07,1.47,0,.1.06.09.42.48.48.9.08.28,0,.09.07.06.1,0,.36.17.18.13.08,0,.23,0,.06,0,0,.07,0,.1,0,.1v0l-.06,0-.11.13-.05.09,0,.1,0,.4v.71l0,.2V57l-.06.09,0,0,0,0H58l-.09,0,0,.07,0,.07-.05.07-.23.19-.29.32,0,.06v.12l0,.06,0,0-.06,0h-.14l0,0-.11.09,0,0v0l0,0h.06l0,0,.4.15h.11l.17-.05h.21l.08,0,.26.32.09.11.07.15v.21l0,.09-.06.06-.07,0H58l-.07,0-.18.15-.1.05-.34,0-.08,0-.07,0-.35,0-.22.06-.53.31v.19l0,.1.1.09.13.22.1.13.08.13,0,0,.08.05,0,0,0,.08,0,.32v.27l0,.09V62l0,.09.29.4.12.22.06.08.14.12.05.06,0,.09.15.15.26.42.23.26.3.25.09.06.09.09h0l.06,0h.06l.16.4,0,0,0,0,0,0v.05l0,.09v0l.15.06.05.1.06.23.12.13.17.12.38.19,0,0h.15l.08,0h0l.07,0v.06l0,.13v.13l0,0h.11l.13,0h0l.05,0v.05l0,0h.15l0,.07,0,.05.05,0,.18.09.21,0,.43.1.09.05.08.07.07,0,.17,0h0l0,0,0,0,0,0,.07-.07.05,0,0,0,0,0,0,0h.12l0,0v.06l0,.24,0,.07.08,0h.05l.1,0,.16,0,.28.13.48.16.52.2.1.05,0,.06,1,.88.18.16.12.19-.1.11v0l.06,0,.21.09,0,0,0,0,0,0,.1,0,0,0,.18.19.39.69.12.13.23.07.2.09.06,0,.08,0,.19,0,.08,0,.29.08,0,0,.38.12h.09l.15,0,.19,0,.19.07.24.05.47.26.67.27.25,0,.59.05.27.09.21,0,.26.12.84.2.1,0,.18.1.11,0h.11l.07,0,.1-.1.18-.14.19-.06h.19l.21.06.35.2.07,0,.28.15.13.13.07.1.07.19.08.09.19.16.42.53.19.14h.09l.21,0,.08,0,.23.2.06.08v.12l0,.06.24.08.08.06.54.23.56.31.23.15.15.15.08.13v.15l.26,0,.24.08.33.21.26,0,.27.09.24,0,.38.18.39.09,1.24.47.69.32.1,0h.32l.1,0,.31.18.2,0,.1,0,.09.07,0,.05,0,.13,0,0,.06,0,0,0,0-.12,0,0v0h.1l0,0,0,0v.15h.07v.07l0,0-.06,0,.07.06.23.08.26.2.11.05.15,0,.16,0,.11,0h.24l.17.06h.05l.82,0,.11,0,.1,0,.16.1.1,0,.52,0,1.09.3.25.14.1,0h.09l.06,0v-.08l0,0h0l0,0h.24l.16.1.48.6.29.23.15.19,0,0,.07,0,.11,0,.32.12.64.11.49.15h.13l0,0,0,0h0l0,0v0h0l.1,0,.1,0,.06,0,.07,0,.07,0h.07l-.07.07-.15,0-.29-.08.09.09.16.07.18.05.57.27.11.08.34.24,0-.08v0l.06.12v0h-.07l0,.05,0,0h0l.05,0,.12.13,0,0,.1,0,.31,0,.16.06h.1l.1,0h.06l2.1.23.22.06.19.08,1.35.76.2,0,.53.12.39.15.21.06.42.07.1,0,.06-.06.05-.08.08-.07.08,0,.09,0,.54,0,.16,0,.33-.1.46-.24.31-.12.32-.19.17-.07.24-.07.07,0,.09,0,.21,0,.09,0,.1,0,0,0,0,0,0,0,.1,0,.11-.06.31,0,1.17-.34.15-.09v-.1l.09-.14.16-.1.17-.07.12-.07.16-.18.08,0,.09,0,.19,0,.09,0,0,0v-.09l0,0h.05l0,0,0,0,0,0,.39-.06h.05l.11,0h.08l.09,0,.3,0h.38l.25.07,0,0-.07-.11-.14-.05h-.44l-.17,0h.14l.21,0,.15-.07,0-.08h0l-.09.09,0,0H109l-.79,0-.1,0v0l.06-.08,0,0h.06l0,0,0-.09h.29l0,0,.21-.31.1-.09.11-.06.13,0,.05,0,.07,0,.06.06,0,0,0,.07v.05l0,.05.07.07.05.08,0,.05-.08,0-.05,0v.06l0,.06.06.09.06-.05.08-.12.07,0,.14-.07v0l0,0,.06,0h0l.06,0h0l0,0v-.08l0,0h.08l0,0,.08,0,.19.05.05.05,0,.22-.19.13-.42.13-.06,0,0,.06,0,0,.11,0h.3l.08,0,.08,0,.13,0h.69l.23,0,.17.1.07.05,1.38.55.48.19,0-.06-.07,0-.17-.06-.06,0-.13-.18-.12-.09,0,0-.11,0-.35-.07v0h.07v0l-.17-.1-.07,0H112l-.09,0-.2-.07h-.13v0l.37.13-.13,0-.26-.11-.45-.29h.07l0,0v0h-.06l0,0v0l0,0,0,0h0v-.08l0-.09v-.07l.09,0,.11,0,.07,0,.11.11.17.13.2.11.21.06.2,0,.1-.05.1,0,.07,0,0,.14,0,.07.07.07.09.08,0,0,.15.08.59.12.12.05.06.09.06.11.1.12-.06.06-.06,0h-.05l0-.05h-.17l-.06,0,.9.51.51.33.82.64.08,0,1.19,1,.14.05.06.07.09.14.45.49.39.27.07.14.09.06.2.08.29.23h.08l-.06-.06,0,0h.05v.08l.08,0,.1,0,.1,0,.07,0,.06.08,0,.2.05.1-.08,0-.05-.07,0-.09V86l0,0-.21-.07-.08,0V86l.08.12.61.67.94.94.62.6.37.34.27.32,0,0h0l.18-.12.11-.29.07-.13,0-.06,0-.07v-.09l-.09-.24v-.14l0-.12v-.14l0-.06h0l.1-.12h0l.05-.14V87l0-.16h0l.06-.06.06,0h.06l.07,0,0-.06,0,0,.08-.18-.63-.8,0-.08v-.09l0-.09.09-.15.24-.4.5-.83.23-.38.39-.65.34-.56.24-.4.09-.15.09-.15,0,0h0l.06-.07.08,0h6.16l.09,0h0l0,0,0-.07v0h0l0,0h0l0-.08h0l.12-.1-.06-.06v0l.11,0h0l0,0-.14-.08,0-.09,0-.07.06,0,.06,0h0l-.07,0,0,0v0h0l.05-.06,0,0h.08l0,0,0-.05,0,0h0l0,0h.07v-.05h0l-.07,0,0,0h0l0,0,.09,0,.07-.07h0l0-.08,0-.06h0v0h0v-.07h0l0,0h.07l.07,0h0L131,80v-.16h0l0,0h-.08l0,0,0,0-.15,0V79.7l0-.05,0,0,0,0-.05,0-.12.05,0,0,0-.1h0l-.13,0h-.2l-.06,0,0,0,0,0,0,0v-.05l-.06,0h-.08l0,0,0-.07,0-.08,0-.08,0-.07-.07,0v0l0,0h-.07v0l.06-.11-.07-.18-.33-.46-.07-.05-.18-.08-.07-.06,0-.06v0l-.07,0,0,0h-.06l-.34-.1-.09-.05-.14-.14-.1,0h0l.07-.07v0H128v0l0,0v0h0l0,0h0l-.06-.06,0,0-.19-.07-.06,0,0-.1,0-.05-.17-.2,0,0,0-.09,0,0h-.17l0,0-.17-.18,0-.07,0,0,0-.09,0,0,0,0-.1,0,0,0v-.08l0-.09,0-.08-.05,0h-.13l-.13,0-.1,0,0-.12-.08,0-.15,0-.11,0,0-.08h0l2.15,0h0V73h0l0,0,.1,0H137v-.43l0-.19,0-.06.06-.09h0l.41-.14.11,0,.08.07.07.08.08.06H138l.07.14.06,0,.2.11h0l0,0,0-.11,0,0h0l.25-.18,0-.05h0l.07-.19,0,0h0l.07-.06h0l.07,0,.06,0h0l0-.07,0-.05,0-.11v0l.12-.2,0-.05,0-.07h0l.11-.08,0,0h0l.14-.06.06,0,0-.07,0-.07v-.08l0-.08,0-.08.15-.17.06-.09,0-.06,0-.12,0-.12,0-.15,0-.05,0,0,.11-.08,0,0h0l0,0h.09l.1,0,.05,0h.06l0,0,0,0h0l0,0h.37l0,0h.08l0-.09.11-.15,0-.08.14-.24.11-.14.12-.24h0l.05,0,0,0,0,0h0l-.05,0,0,0,0,0v-.09l0-.07,0-.06,0-.08-.06.1-.08.09-.1.07-.1,0v-.05l0,0,0,0,.21-.18,0,0h.12l.09,0,.06-.06v0l0,.1v.09l0,0,0,0,0-.07,0-.08v-.07l0-.13.1-.14.12-.12.11-.09,0,.2,0,.08.05.07,0,.08v.1l0,.2h0v.11l0,0,0,0h0v.06l0,.08v0l0,.08-.08.09-.05.1,0,.11-.16.18v.18l.05,0,.12,0,.26.14.13,0h.1l0,0,0,.05,0,.08h0l0,0v0l0,0h0l.14,0,0,0v.11l.07.08h0v.08l0,.05,0,0,0,.06,0,0,0,0,0,0,0-.05v.07l0,.13,0,.12,0,.05,0,0,0,.07.06,0,.08-.1,0,.11v.13h0v-.4l.07-.15,0-.07,0-.07.24-.33,0-.11,0-.34,0-.08.07-.1v-.1l0-.22,0-.21.07-.18.1-.15.11-.13.09-.14.18-.6.1-.64.11-.16.1-.24.07-.15,0-.11.06-.09.06-.26.05-.12.13-.18.08-.08.1,0v0h-.1l-.06.05-.05.06-.06,0,.1-.2-.23,0-.12,0-.05.07,0,.08-.05.09-.13.15-.1.08h-.05l0,0-.09,0-.05,0,0-.11.1-.2-.08,0,0-.06.07-.08,0-.08h0l0,.1h0l.06-.19.19-.16.23-.11.17,0,0,.07v.06l0,0-.09,0,.18,0,0,0,.14-.13,0,0,.08,0,.08-.06.07-.09.05-.1,0-.32,0,0,0,0,0-.11-.09-.18v.08l0,.12v.07l-.3,0H145l.07,0,.06,0,.13,0h.15l0,0v0l0-.05h.07v.09l-.07.1-.13,0v0l.06,0h-.06l0,0h0l0,0h0l0,0v.06l0,0h0l-.1-.06-.14,0-.07,0-.14,0-.06,0-.06.07-.05.07-.06.05h-.1l0-.09v-.14l0-.07h-.16l0,0v0l-.14-.08-.05-.07v-.28l0-.06h.36l0,.06,0,.08,0,.06-.05,0h.06l0-.05.06-.16.09-.15.05-.14.09-.17.1-.14h.08l0-.07h0l0,0,0,0h0l0,0,0,0,0,0,0,0,.21-.29,0,0,0,0,0,0,0,0v-.07l0-.16,0,0,0,0v0l0,0h.07l0,0v.08l0,0,.09.07V63l0,0h0l0,0h-.06l0,0v.26l0-.06.07-.22,0,0h0l0,0,0-.18v-.05l0-.11-.11-.2,0-.11,0-.41,0-.21.11-.39.07-.14.1-.12.15-.1,0,0v0l0,0h.06l.06-.16.58-.81.27-.27.21-.12.08-.07.27-.16.05-.06.1-.16.46-.49Zm.34-3.24v.09l0,.06,0,.09,0,0,0-.15,0-.08v-.1l0,0v.08Z"/></g></g></svg>