<?xml version="1.0" encoding="utf-8"?>
<!-- Generator: Adobe Illustrator 18.1.1, SVG Export Plug-In . SVG Version: 6.00 Build 0)  -->
<svg version="1.1" id="Layer_1" xmlns="http://www.w3.org/2000/svg" xmlns:xlink="http://www.w3.org/1999/xlink" x="0px" y="0px"
	 width="320px" height="250px" viewBox="0 0 320 250" enable-background="new 0 0 320 250" xml:space="preserve">
<rect class="background" fill="none" width="50" width="250" height="250"/>
<g>
	<g opacity="0.5">
		<path class="border" fill="#ffffff" d="M275.6,8.4v233.4H42.4V8.4H275.6 M284,0H34v250h250V0L284,0z"/>
	</g>
	<path class="logo" fill="#FFFFFF" d="M161.7,163.7c4.2,0,4.2-6.1,4.2-8.4c0-4.2,4.2-8.4,8.4-8.4c4.2,0,11.4,7.2,16.9,12.7
		c4.2,4.2,4.2,4.2,8.4,4.2s12.7,0,12.7,0s8.4-0.3,8.4-8.4c0-2.7-2.9-7.1-12.7-16.9c-8.4-8.4-12.7-4.1,0-21.1
		c7.7-10.3,13.4-19.7,12.4-22.4c-0.9-2.6-22.5-6.7-25.1-2.9c-8.4,12.7-10,15.7-12.7,21.1c-4.2,8.4-4.6,12.7-8.4,12.7
		c-3.8,0-4.2-8.2-4.2-12.7c0-13.9,2-23.8-4.2-25.3c0,0-8.4,0-12.7,0c-6.8,0-12.7,4.2-12.7,4.2s-5.2,4.1-4.2,4.2
		c1.2,0.2,8.4-1.7,8.4,4.2c0,4.2,0,8.4,0,8.4s0,16.9-4.2,16.9c-4.2,0-12.7-16.9-21.1-29.5c-3.3-4.9-4.2-4.2-8.4-4.2
		c-4.5,0-8.4,0.2-12.7,0.2c-4.2,0-4.8,2.7-4.2,4.1c8.4,21.1,14.5,34.3,30.5,50.9c14.7,15.3,24.5,16.1,32.7,16.5
		C159.6,163.8,157.5,163.7,161.7,163.7z"/>
</g>
</svg>
