<?xml version="1.0" encoding="utf-8"?>
<!-- Generator: Adobe Illustrator 18.1.1, SVG Export Plug-In . SVG Version: 6.00 Build 0)  -->
<svg version="1.1" id="Layer_1" xmlns="http://www.w3.org/2000/svg" xmlns:xlink="http://www.w3.org/1999/xlink" x="0px" y="0px"
	 width="250px" height="250px" viewBox="35 0 250 250" enable-background="new 35 0 250 250" xml:space="preserve">
<rect class="background" fill="none" x="35" width="250" height="250"/>
<g opacity="0.5">
	<path class="border" fill="#ffffff" d="M276.5,8.5V242h-233V8.5H276.5 M285,0H35v250h250V0L285,0z"/>
</g>
<path class="logo" fill="#FFFFFF" d="M200.4,122.7c0,0,18.3-25.8,20.1-34.3c0.6-3-0.7-4.7-3.9-4.7c0,0-10.5,0-15.9,0c-3.6,0-5,1.6-6.1,3.9
	c0,0-8.6,18.3-19,29.8c-3.3,3.7-5.1,4.8-6.9,4.8c-1.5,0-2.2-1.2-2.2-4.6V88.2c0-4.1-0.5-5.3-3.9-5.3h-25.4c-1.9,0-3.1,1.1-3.1,2.7
	c0,3.9,5.9,4.8,5.9,15.3v21.7c0,4.4-0.2,6.1-2.3,6.1c-5.4,0-18.4-18.8-25.7-40.1c-1.5-4.4-3-5.6-7.1-5.6H89.1c-2.3,0-4,1.6-4,3.9
	c0,4.2,5,23.8,24.5,50.1c13.1,17.7,30.3,27.2,45.8,27.2c9.4,0,11.7-1.6,11.7-5.6V145c0-3.4,1.3-4.8,3.3-4.8c2.2,0,6,0.7,15,9.6
	c10.7,10.2,11.4,14.4,17.2,14.4h17.8c1.8,0,3.5-0.8,3.5-3.9c0-4-5.2-11.1-13.2-19.6c-3.3-4.4-8.6-9.1-10.3-11.3
	C198,126.9,198.7,125.4,200.4,122.7z"/>
</svg>
