<?xml version="1.0" encoding="utf-8"?>
<!-- Generator: Adobe Illustrator 18.0.0, SVG Export Plug-In . SVG Version: 6.00 Build 0)  -->
<!DOCTYPE svg PUBLIC "-//W3C//DTD SVG 1.1//EN" "http://www.w3.org/Graphics/SVG/1.1/DTD/svg11.dtd">
<svg version="1.1" id="Layer_1" xmlns="http://www.w3.org/2000/svg" xmlns:xlink="http://www.w3.org/1999/xlink" x="0px" y="0px"
	 viewBox="589 0 320 320" enable-background="new 589 0 320 320" xml:space="preserve">
<g opacity="0.5">
	<path fill="#FFFFFF" d="M899.3,10.7v298.7H600.7V10.7H899.3 M910,0H590v320h320V0L910,0z"/>
</g>
<path id="VK" fill="#FFFFFF" d="M753.5,209.5c5.4,0,5.4-7.8,5.4-10.8c0-5.4,5.4-10.8,10.8-10.8s14.6,9.2,21.6,16.2
	c5.4,5.4,5.4,5.4,10.8,5.4s16.2,0,16.2,0s10.8-0.4,10.8-10.8c0-3.4-3.7-9.1-16.2-21.6c-10.8-10.8-16.3-5.2,0-27
	c9.9-13.2,17.2-25.2,15.9-28.7c-1.2-3.3-28.8-8.6-32.1-3.7c-10.8,16.2-12.8,20.1-16.2,27c-5.4,10.8-5.9,16.2-10.8,16.2
	c-4.9,0-5.4-10.5-5.4-16.2c0-17.8,2.6-30.4-5.4-32.4c0,0-10.8,0-16.2,0c-8.7,0-16.2,5.4-16.2,5.4s-6.7,5.2-5.4,5.4
	c1.6,0.2,10.8-2.2,10.8,5.4c0,5.4,0,10.8,0,10.8s0,21.6-5.4,21.6c-5.4,0-16.2-21.6-27-37.8c-4.2-6.3-5.4-5.4-10.8-5.4
	c-5.8,0-10.8,0.2-16.2,0.2c-5.4,0-6.1,3.4-5.4,5.2c10.8,27,18.5,43.9,39,65.2c18.8,19.6,31.4,20.6,41.9,21.1
	C750.8,209.6,748.1,209.5,753.5,209.5z"/>
</svg>
